<?xml version="1.0" standalone="no"?>
<!DOCTYPE svg PUBLIC "-//W3C//DTD SVG 1.1//EN" "http://www.w3.org/Graphics/SVG/1.1/DTD/svg11.dtd" >
<svg xmlns="http://www.w3.org/2000/svg" xmlns:xlink="http://www.w3.org/1999/xlink" version="1.1">
<metadata>
Created by FontForge 20160407 at Sun Aug  7 19:06:47 2016
 By Jimmy Warting
Copyright (c) 2011 by James T. Edmondson. All rights reserved.
</metadata>
<defs>
<font id="Lavanderia-Delicate" horiz-adv-x="146" >
  <font-face 
    font-family="Lavanderia"
    font-weight="400"
    font-stretch="normal"
    units-per-em="1000"
    panose-1="2 0 6 3 2 0 0 2 0 3"
    ascent="750"
    descent="-250"
    x-height="456"
    cap-height="882"
    bbox="-640 -642 1642 1058"
    underline-thickness="20"
    underline-position="-133"
    stemh="20"
    stemv="148"
    unicode-range="U+0020-FB02"
  />
<missing-glyph horiz-adv-x="240" 
 />
    <glyph glyph-name="w_e" unicode="we" horiz-adv-x="645" 
d="M41 456h20c-28 -150 -61 -318 -61 -399c0 -31 4 -49 16 -49c39 0 106 112 136 241c11 66 25 137 39 207h20c-28 -150 -62 -318 -62 -399c0 -31 5 -49 17 -49c24 0 66 84 101 185c-11 20 -17 47 -17 83c0 184 38 251 67 251c17 0 30 -23 30 -59c0 -80 -27 -189 -62 -282
c12 -17 28 -25 48 -25c17 0 38 7 59 20c9 129 72 278 145 278c23 0 34 -17 34 -43c0 -61 -60 -173 -159 -237c-1 -14 -2 -27 -2 -40c0 -75 21 -134 75 -134c71 0 128 154 160 238c4 0 8 -2 8 -6v-2c-30 -80 -84 -240 -170 -240c-66 0 -93 68 -93 153c0 6 1 13 1 19
c-20 -10 -40 -15 -58 -15c-21 0 -39 7 -53 22c-39 -100 -86 -179 -116 -179c-23 0 -32 30 -32 78c0 25 3 56 7 90c-34 -96 -84 -168 -122 -168c-26 0 -36 32 -36 81c0 89 32 238 60 380zM536 451c-54 0 -108 -133 -122 -254c96 77 143 175 143 224c0 18 -7 30 -21 30z
M328 470c0 25 -7 40 -16 40c-19 0 -50 -67 -50 -228c0 -30 3 -54 10 -72c31 93 56 196 56 260z" />
    <glyph glyph-name="F_r" unicode="Fr" horiz-adv-x="1183" 
d="M1016 850l11 -14c-5 -12 -25 -26 -57 -37c-31 -38 -84 -143 -115 -443c-1 -6 -2 -11 -2 -16c69 11 121 48 147 108c-5 26 -7 51 -7 74c0 50 9 87 25 87c7 0 13 -9 13 -31c0 -39 -5 -88 -22 -132c13 -46 67 -91 67 -172c0 -83 -48 -162 -48 -231c0 -23 10 -35 24 -35
c35 0 76 91 131 235c4 0 9 -2 9 -7v-2c-61 -160 -96 -239 -142 -239c-27 0 -40 20 -40 57c0 72 48 146 48 222c0 70 -39 110 -54 158c-24 -51 -70 -94 -153 -105c-54 -458 -200 -560 -356 -560c-136 0 -196 84 -196 169c0 81 50 150 119 152l1 -20
c-61 -2 -101 -60 -101 -130c0 -84 55 -161 180 -161c142 0 281 105 335 548c-101 -8 -190 -48 -190 -123c0 -12 1 -24 7 -35l-21 -8c-6 10 -8 23 -8 38c0 96 116 134 210 141h4c0 6 1 12 2 18c28 253 76 378 115 438c-24 -6 -53 -10 -85 -10c-147 0 -307 78 -514 78
c-223 0 -336 -169 -336 -327c0 -142 90 -275 271 -275c174 0 254 114 254 238c0 16 -1 33 -4 50l19 4c3 -18 5 -36 5 -54c0 -128 -87 -248 -273 -248c-194 0 -288 138 -288 284c0 167 122 346 355 346c216 0 388 -81 513 -81c45 0 74 4 93 9c25 33 45 41 54 42z" />
    <glyph glyph-name="o_e" unicode="oe" horiz-adv-x="567" 
d="M258 107c-22 0 -42 2 -61 7c-28 -68 -69 -119 -116 -119c-62 0 -89 74 -89 162c0 57 11 120 31 174l19 -4c-20 -55 -32 -121 -32 -178c0 -80 23 -144 75 -144c37 0 71 48 96 114c-91 31 -131 116 -131 194c0 77 39 146 108 146c57 0 80 -64 80 -144
c0 -61 -14 -132 -37 -191c17 -5 36 -7 57 -7c19 0 38 3 55 8c-1 8 -1 16 -1 24c0 136 68 312 147 312c38 0 56 -34 56 -80c0 -88 -65 -221 -182 -262c3 -65 25 -114 74 -114c71 0 128 154 160 238c4 0 8 -2 8 -6v-2c-30 -80 -84 -240 -170 -240c-57 0 -84 51 -91 119
c-17 -5 -36 -7 -56 -7zM157 451c-54 0 -88 -66 -88 -140c0 -73 33 -152 115 -182c21 61 34 134 34 195c0 71 -18 127 -61 127zM458 450c-66 0 -126 -187 -126 -319c108 43 165 175 165 255c0 37 -13 64 -39 64z" />
    <glyph glyph-name="b_r" unicode="br" horiz-adv-x="551" 
d="M128 422c0 25 16 41 35 41c29 0 66 -36 70 -128h6c57 0 106 40 130 103c-7 17 -12 38 -12 66c0 23 3 50 11 85l32 -2c1 -14 1 -27 1 -40c0 -45 -6 -83 -18 -113c18 -36 61 -68 61 -140c0 -83 -48 -182 -48 -251c0 -23 10 -35 24 -35c35 0 76 91 131 235c4 0 8 -2 8 -6v-2
c-61 -160 -95 -240 -141 -240c-27 0 -40 20 -40 57c0 72 48 166 48 242c0 65 -28 91 -48 127c-31 -68 -87 -96 -138 -96h-6v-7c0 -137 -68 -323 -157 -323c-58 0 -79 80 -79 190c0 236 88 602 148 602c14 0 23 -14 23 -40c0 -94 -106 -376 -147 -483c-3 -33 -4 -65 -4 -94
c0 -96 17 -165 63 -165c74 0 133 189 133 321v1c-47 10 -86 45 -86 95zM158 753c0 17 -3 25 -13 25c-34 0 -98 -258 -120 -473c41 107 133 357 133 448zM141 425c0 -40 27 -78 73 -88c-3 86 -30 114 -50 114c-13 0 -23 -11 -23 -26z" />
    <glyph glyph-name="b_s" unicode="bs" horiz-adv-x="542" 
d="M474 122c0 -69 -36 -127 -112 -127c-51 0 -77 38 -77 76c0 39 27 79 80 79c27 0 45 -14 55 -33l-14 -11c-4 14 -20 28 -41 28c-42 0 -63 -33 -63 -65c0 -33 21 -65 63 -65c56 0 89 57 89 118c0 80 -44 171 -60 298c-32 -62 -85 -95 -154 -95h-6v-7
c0 -137 -68 -323 -157 -323c-58 0 -79 80 -79 190c0 236 88 602 148 602c14 0 23 -14 23 -40c0 -94 -106 -376 -147 -483c-3 -33 -4 -65 -4 -94c0 -96 17 -165 63 -165c74 0 133 189 133 321v1c-47 10 -86 45 -86 95c0 25 16 41 35 41c29 0 66 -36 70 -128h6
c69 0 124 38 152 107c-2 23 -3 45 -3 66c0 38 3 71 10 89l27 -3v-17c0 -56 -9 -103 -24 -140c13 -114 73 -236 73 -315zM158 753c0 17 -3 25 -13 25c-34 0 -98 -258 -120 -473c41 107 133 357 133 448zM141 425c0 -40 27 -78 73 -88c-3 86 -30 114 -50 114
c-13 0 -23 -11 -23 -26z" />
    <glyph glyph-name="f_r" unicode="fr" horiz-adv-x="403" 
d="M0 45c57 -42 82 -100 82 -155c0 -65 -32 -122 -72 -122c-28 0 -51 20 -51 103c0 217 97 706 151 853c15 42 37 63 52 63c14 0 23 -14 23 -40c0 -105 -142 -465 -170 -534c-9 -56 -17 -110 -23 -161c144 84 203 249 228 396c-6 48 1 105 12 149l18 -3
c2 -54 -8 -98 -17 -145l-2 -9c16 -44 65 -89 65 -166c0 -83 -48 -162 -48 -231c0 -23 10 -35 24 -35c35 0 76 91 131 235c4 0 8 -2 8 -6v-2c-61 -160 -95 -240 -141 -240c-27 0 -40 20 -40 57c0 72 48 146 48 222c0 65 -33 105 -50 149c-31 -147 -86 -299 -228 -378zM7 -222
c30 0 59 52 59 114c0 51 -20 109 -76 149c-8 -68 -16 -131 -16 -177c0 -52 11 -86 33 -86zM174 753c0 17 -3 25 -13 25c-34 0 -87 -233 -136 -509c37 93 149 386 149 484z" />
    <glyph glyph-name="o_x" unicode="ox" horiz-adv-x="645" 
d="M457 461c38 0 49 -50 49 -117c0 -19 -1 -39 -2 -59c36 94 73 176 121 176c12 0 21 -5 25 -11l-8 -11s-8 8 -18 8c-47 0 -84 -94 -123 -196c-6 -70 -16 -142 -16 -189c0 -33 5 -54 19 -54c35 0 86 91 141 235c4 0 8 -2 8 -6v-2c-61 -160 -105 -240 -151 -240
c-30 0 -39 36 -39 89c0 27 2 58 6 91c-42 -96 -84 -180 -131 -180c-32 0 -45 26 -45 59c0 39 17 87 41 118l17 -12c-24 -27 -41 -76 -41 -112c0 -25 8 -43 29 -43c45 0 89 101 134 208c6 58 14 118 14 163c0 44 -8 75 -31 75c-70 0 -111 -177 -219 -228
c-22 -102 -76 -228 -156 -228c-62 0 -89 74 -89 162c0 57 11 120 31 174l19 -4c-20 -55 -32 -121 -32 -178c0 -80 23 -144 75 -144c65 0 110 113 131 210c-14 -4 -29 -6 -45 -5c-177 6 -136 249 -9 249c68 0 88 -63 88 -142c0 -21 -3 -49 -10 -81c95 55 140 225 217 225z
M177 220c15 -1 28 2 41 6c8 38 12 73 12 97c0 72 -15 128 -68 128c-105 0 -147 -227 15 -231z" />
    <glyph glyph-name="x_t" unicode="xt" horiz-adv-x="486" 
d="M11 172l17 -12c-24 -27 -41 -76 -41 -112c0 -25 8 -43 29 -43c45 0 89 101 134 208c6 58 14 118 14 163c0 44 -8 75 -31 75c-34 0 -65 -61 -125 -216c0 0 -9 0 -9 5c0 1 1 2 1 3c56 144 88 218 134 218c38 0 49 -50 49 -117c0 -19 -1 -39 -2 -59c38 112 99 168 179 177
c15 69 32 133 50 180c17 45 34 61 50 57c12 -3 20 -23 17 -48c-7 -53 -27 -123 -51 -191c13 -2 26 -5 40 -9l-4 -13l-40 10c-33 -97 -71 -185 -82 -212c-16 -126 -17 -228 15 -228c35 0 76 91 131 235c5 0 10 -2 8 -8c-61 -160 -95 -240 -141 -240c-39 0 -46 91 -35 209
c-55 -139 -96 -209 -139 -209c-30 0 -39 36 -39 89c0 27 2 58 6 91c-42 -96 -84 -180 -131 -180c-32 0 -45 26 -45 59c0 39 17 87 41 118zM357 451c-83 -9 -139 -75 -179 -200c-6 -70 -16 -142 -16 -189c0 -33 5 -54 19 -54c35 0 86 91 141 235c8 67 20 139 35 208zM466 657
c2 16 0 31 -8 33c-11 3 -19 -9 -32 -49c-16 -46 -32 -109 -47 -177c11 0 23 -1 35 -2c23 68 43 139 52 195zM410 450c-11 1 -22 2 -33 2c-13 -60 -24 -123 -33 -182c13 33 41 103 66 180z" />
    <glyph glyph-name=".notdef" horiz-adv-x="240" 
 />
    <glyph glyph-name="eth" unicode="&#xf0;" horiz-adv-x="324" 
d="M140 522l-5 10c16 9 37 19 56 34c-9 59 -28 81 -52 81c-22 0 -39 -11 -53 -30l-10 8c12 14 37 32 63 32s53 -19 66 -79c17 16 32 35 42 61l11 -3c-14 -27 -31 -49 -51 -68c4 -23 7 -52 7 -87c0 -101 -45 -347 -45 -405c0 -52 10 -68 24 -68c35 0 76 91 131 235
c4 0 9 -2 9 -7v-2c-61 -160 -96 -239 -142 -239c-27 0 -39 27 -39 81c0 24 8 74 18 137c-37 -120 -78 -218 -136 -218c-37 0 -52 47 -52 111c0 138 70 353 154 353c30 0 48 -22 56 -51c2 30 3 56 3 80c0 26 -1 49 -3 68c-16 -13 -34 -24 -52 -34zM135 451
c-68 0 -137 -225 -137 -355c0 -54 12 -91 40 -91c43 0 113 141 143 290l6 52c0 53 -13 104 -52 104z" />
    <glyph glyph-name="Lslash" unicode="&#x141;" horiz-adv-x="781" 
d="M338 14h74c16 42 30 92 42 150c-48 -16 -100 -25 -158 -25c-236 0 -339 143 -339 280c0 125 86 244 233 244c37 0 64 -9 88 -26l-14 -18c-19 16 -43 24 -73 24c-138 0 -217 -110 -217 -226c0 -130 99 -268 322 -268c59 0 113 10 161 27c10 53 19 112 27 180
c49 449 119 529 223 529c73 0 111 -78 111 -183c0 -180 -111 -441 -344 -531c-13 -61 -27 -113 -43 -157h83l-3 -12h-85c-19 -49 -39 -88 -62 -119c133 -38 225 -105 352 -105c74 0 103 39 117 83l21 -8c-18 -45 -41 -85 -138 -85c-132 0 -241 63 -363 101
c-62 -77 -135 -101 -211 -101c-53 0 -81 29 -81 61c0 38 39 79 123 79c62 0 115 -8 163 -21c22 31 42 68 61 115h-75zM706 875c-84 0 -159 -89 -204 -519c-7 -64 -16 -121 -26 -173c224 91 323 346 323 520c0 99 -32 172 -93 172zM145 -222c68 0 134 24 192 96
c-49 15 -100 24 -155 24c-68 0 -103 -38 -103 -71c0 -26 22 -49 66 -49z" />
    <glyph glyph-name="lslash" unicode="&#x142;" horiz-adv-x="159" 
d="M28 8c35 0 76 91 131 235c4 0 9 -2 9 -7v-2c-61 -160 -96 -239 -142 -239c-25 0 -35 44 -35 112c0 75 12 180 31 285h-39l2 12h39c22 124 52 248 79 320c16 42 36 63 52 63s23 -14 23 -38c0 -100 -46 -238 -90 -345h68l-2 -12h-71c-29 -73 -57 -129 -65 -146
c-8 -61 -13 -116 -13 -157c0 -50 7 -81 23 -81zM167 749c0 20 -5 29 -12 29c-32 0 -79 -187 -112 -374h34c42 101 90 240 90 345zM24 285c10 20 28 59 48 107h-31c-7 -36 -12 -73 -17 -107z" />
    <glyph glyph-name="Scaron" unicode="&#x160;" horiz-adv-x="981" 
d="M1005 883c-5 1 -9 1 -13 1c-92 0 -113 -209 -117 -417c-39 -56 -85 -112 -135 -164c-8 115 -64 213 -174 213c-206 0 -324 -224 -324 -427c0 -15 1 -29 2 -43h-19c-136 0 -192 79 -192 150c0 58 37 111 100 111c29 0 49 -17 62 -38l14 11c-18 25 -37 42 -76 42
c-72 0 -115 -59 -115 -123c0 -77 62 -162 211 -162h16c15 -146 97 -269 257 -269c269 0 391 290 391 603c0 35 0 71 1 106c93 135 148 267 148 343c0 35 -11 58 -37 63zM612 -3l15 -15c74 63 113 181 113 290v19c50 50 95 104 134 158v-81c0 -314 -128 -588 -371 -588
c-146 0 -220 118 -235 258c169 14 326 111 455 236c-1 -103 -40 -215 -111 -277zM565 506c106 0 156 -103 158 -220c-126 -125 -283 -224 -455 -238c-1 14 -2 28 -2 42c0 198 109 416 299 416zM1003 870c19 -4 28 -22 28 -51c0 -68 -50 -193 -136 -323c7 201 34 375 100 375
c3 0 5 -1 8 -1zM995 919h-14c-30 53 -49 87 -57 107l9 4c12 -27 25 -54 54 -97c46 59 94 100 94 100l10 -12c-19 -16 -62 -55 -96 -102z" />
    <glyph glyph-name="scaron" unicode="&#x161;" horiz-adv-x="224" 
d="M49 5h-2c-42 0 -63 32 -63 65c0 11 2 23 8 33l-15 7c-6 -12 -9 -26 -9 -39c0 -38 25 -76 76 -76h1c86 0 127 87 186 240v2c0 4 -4 6 -8 6c-27 -70 -50 -124 -73 -163c4 13 6 27 6 42c0 83 -66 213 -75 331c15 53 20 104 20 135v7l-16 2c-7 -19 -14 -53 -14 -93
c0 -14 -1 -29 0 -44c-21 -74 -50 -161 -71 -217c0 -1 -1 -2 -1 -3c0 -5 9 -5 9 -5c19 49 45 124 66 194c16 -132 62 -225 62 -307c0 -60 -32 -115 -85 -117h-2zM105 659h-14c-30 53 -49 87 -57 107l9 4c12 -27 25 -54 54 -97c46 59 94 100 94 100l10 -12
c-19 -16 -62 -55 -96 -102z" />
    <glyph glyph-name="Yacute" unicode="&#xdd;" horiz-adv-x="803" 
d="M824 885l22 -11c-46 -96 -110 -305 -152 -618c-25 -183 -59 -607 -246 -607c-64 0 -110 41 -110 109c0 78 62 134 120 136l2 -20c-51 0 -104 -47 -104 -116c0 -67 38 -99 92 -99c186 0 209 519 233 645c-46 -150 -120 -309 -201 -309c-69 0 -100 53 -100 145
c0 168 67 278 67 443c0 149 -110 291 -274 291c-226 0 -342 -175 -342 -338c0 -141 87 -272 266 -272c178 0 242 157 242 280c0 12 -1 24 -2 35l18 4c1 -10 1 -20 1 -30c0 -129 -70 -299 -258 -299c-192 0 -283 134 -283 278c0 169 125 352 361 352c169 0 291 -141 291 -301
c0 -168 -67 -272 -67 -441c0 -82 19 -137 80 -137c97 0 187 267 219 406c43 240 97 411 125 474zM712 1028l13 -8c-49 -80 -89 -112 -89 -112l-5 6c17 19 46 52 81 114z" />
    <glyph glyph-name="yacute" unicode="&#xfd;" horiz-adv-x="286" 
d="M286 243h2c3 0 6 -2 6 -6v-2c-46 -120 -110 -195 -168 -256l-38 -213c-8 -44 -33 -70 -64 -70c-24 0 -43 25 -43 63c0 83 61 145 123 212c11 60 22 123 32 185c-34 -93 -82 -161 -119 -161c-26 0 -36 32 -36 81c0 89 32 238 60 380h20c-28 -149 -65 -310 -65 -393
c0 -36 7 -55 24 -55c41 0 106 120 134 249c14 83 28 154 37 199h22c-11 -44 -52 -271 -85 -459c55 60 115 134 158 246zM-4 -219c-2 -9 -2 -17 -2 -24c0 -35 14 -51 32 -51c21 0 36 23 43 62l32 185c-52 -55 -95 -104 -105 -172zM189 608l13 -8c-49 -80 -89 -112 -89 -112
l-5 6c17 19 46 52 81 114z" />
    <glyph glyph-name="Thorn" unicode="&#xde;" horiz-adv-x="321" 
d="M5 154v10c15 0 30 1 45 3c27 142 48 264 72 409c-33 -12 -64 -31 -89 -53l-12 14c31 24 66 43 103 54l22 130h20l-21 -125c16 4 32 6 49 6c92 0 135 -64 135 -144c0 -117 -93 -268 -261 -299l-29 -159h-23c12 56 22 107 32 156c-14 -1 -28 -2 -43 -2zM70 171
c155 32 238 178 238 289c0 74 -36 132 -111 132c-17 0 -35 -3 -54 -9c-24 -142 -47 -270 -73 -412z" />
    <glyph glyph-name="thorn" unicode="&#xfe;" horiz-adv-x="303" 
d="M71 721h21c-1 -12 -35 -219 -72 -444c35 103 76 182 126 182c46 0 65 -54 65 -124c0 -114 -50 -271 -120 -323c71 23 162 99 212 231c4 0 8 -2 8 -6v-2c-59 -153 -180 -240 -266 -240h-1c-36 0 -53 29 -59 67l-60 -361h-25c0 4 29 156 52 246c43 269 113 696 119 774z
M-3 132c-1 -11 -2 -23 -2 -34c0 -49 13 -93 50 -93c78 0 148 208 148 339c0 61 -15 105 -51 105c-50 0 -123 -157 -145 -317zM-83 -276c0 2 2 15 4 31c-2 -16 -4 -27 -4 -31z" />
    <glyph glyph-name="Zcaron" unicode="&#x17d;" horiz-adv-x="686" 
d="M268 141l-7 -34c4 0 8 -1 12 -1c24 0 35 9 60 15c100 -15 140 -101 140 -194c0 -127 -74 -268 -170 -268c-59 0 -90 47 -90 105c0 61 34 132 106 172l-12 19c-73 -38 -110 -116 -110 -183s35 -123 106 -123c107 0 190 142 190 274c0 91 -41 177 -141 207
c225 105 332 305 332 473c0 155 -90 282 -259 282c-210 0 -315 -192 -315 -359c0 -134 63 -242 176 -242c105 0 158 101 158 194c0 62 -22 121 -73 149l-13 -20c43 -21 66 -73 66 -128c0 -89 -41 -185 -138 -185c-100 0 -156 100 -156 226c0 163 99 355 295 355
c154 0 238 -123 238 -273c0 -168 -106 -369 -333 -467c-18 4 -37 6 -58 6h-4zM425 920h-14c-30 53 -49 87 -57 107l9 4c12 -27 25 -54 54 -97c46 59 94 100 94 100l10 -12c-19 -16 -62 -55 -96 -102z" />
    <glyph glyph-name="zcaron" unicode="&#x17e;" horiz-adv-x="285" 
d="M37 -5l-2 20c4 2 12 3 19 3c4 0 8 0 12 -1c48 40 99 213 99 328c0 60 -14 105 -51 105c-45 0 -64 -106 -106 -215c0 0 -9 0 -9 5c0 1 1 2 1 3c43 115 59 218 116 218c48 0 69 -57 69 -131c0 -110 -46 -260 -110 -317c14 -10 24 -28 32 -49c57 66 127 145 178 279h2
c3 0 6 -2 6 -6v-2c-53 -138 -125 -216 -183 -282c8 -29 12 -61 12 -91c0 -91 -36 -164 -79 -164c-24 0 -43 25 -43 63c0 75 47 134 97 191c-6 25 -15 46 -30 54c-8 -6 -20 -9 -30 -11zM100 -183c2 17 4 38 4 61c0 21 -2 42 -5 62c-46 -54 -86 -109 -86 -181
c0 -35 14 -51 32 -51c27 0 46 47 55 109zM125 489h-14c-30 53 -49 87 -57 107l9 4c12 -27 25 -54 54 -97c46 59 94 100 94 100l10 -12c-19 -16 -62 -55 -96 -102z" />
    <glyph glyph-name="onehalf" unicode="&#xbd;" horiz-adv-x="369" 
d="M168 -6l-12 12c2 7 6 16 17 29c58 70 160 96 160 168c0 38 -20 57 -53 57c-39 0 -67 -37 -67 -79c0 -9 2 -17 4 -26l-20 -6c-2 8 -3 17 -3 26c0 45 28 95 88 95c43 0 71 -25 71 -71c0 -81 -112 -103 -170 -180c6 3 13 4 20 4c20 0 43 -9 68 -9c29 0 40 7 51 17l12 -17
c-12 -13 -24 -19 -48 -19c-40 0 -64 18 -85 18c-11 0 -22 -5 -33 -19zM39 375l-11 9c36 30 61 72 61 72h19c-3 -21 -19 -51 -52 -265h-19c30 188 47 238 49 244c-3 -5 -23 -38 -47 -60zM246 459l11 -6c-75 -152 -137 -284 -224 -456l-10 5c93 189 142 292 223 457z" />
    <glyph glyph-name="onequarter" unicode="&#xbc;" horiz-adv-x="360" 
d="M323 0h-113l2 11h48l9 66c-26 3 -50 11 -69 11c-12 0 -23 -3 -30 -12l-9 9c34 44 59 118 59 188h18c-1 -46 -16 -124 -51 -176c6 2 13 2 19 2c22 0 44 -7 65 -9c18 121 23 138 32 183h19c-3 -19 -7 -16 -32 -183c18 1 30 6 42 19l12 -13c-13 -14 -27 -20 -56 -20l-10 -65
h47zM36 375l-11 9c36 30 61 72 61 72h19c-3 -21 -19 -51 -52 -265h-19c30 188 47 238 49 244c-3 -5 -23 -38 -47 -60zM246 459l11 -6c-75 -152 -137 -284 -224 -456l-10 5c93 189 142 292 223 457z" />
    <glyph glyph-name="onesuperior" unicode="&#xb9;" horiz-adv-x="112" 
d="M36 640l-11 9c36 30 61 72 61 72h19c-3 -21 -19 -51 -52 -265h-19c30 188 47 238 49 244c-3 -5 -23 -38 -47 -60z" />
    <glyph glyph-name="threequarters" unicode="&#xbe;" horiz-adv-x="361" 
d="M249 133v20h1c10 0 19 -2 27 -5c20 12 32 39 32 64s-12 48 -41 48c-27 0 -47 -21 -47 -51v-6h-21c1 35 24 67 71 67c39 0 58 -29 58 -60c0 -25 -13 -53 -39 -67c22 -13 33 -38 33 -63c0 -41 -30 -85 -88 -85c-41 0 -65 28 -65 66c0 9 1 18 4 28l20 -5
c-4 -10 -7 -20 -7 -29c0 -27 17 -50 49 -50c46 0 67 39 67 76c0 23 -9 46 -26 56c-8 -2 -17 -4 -27 -4h-1zM246 459l11 -6c-75 -152 -137 -284 -224 -456l-10 5c93 189 142 292 223 457zM38 375l-11 9c36 30 61 72 61 72h19c-3 -21 -19 -51 -52 -265h-19
c30 188 47 238 49 244c-3 -5 -23 -38 -47 -60z" />
    <glyph glyph-name="threesuperior" unicode="&#xb3;" horiz-adv-x="212" 
d="M121 589v20h1c10 0 19 -2 27 -5c20 12 32 39 32 64s-12 48 -41 48c-27 0 -47 -21 -47 -51v-6h-21c1 35 24 67 71 67c39 0 58 -29 58 -60c0 -25 -13 -53 -39 -67c22 -13 33 -38 33 -63c0 -41 -30 -85 -88 -85c-41 0 -65 28 -65 66c0 9 1 18 4 28l20 -5
c-4 -10 -7 -20 -7 -29c0 -27 17 -50 49 -50c46 0 67 39 67 76c0 23 -9 46 -26 56c-8 -2 -17 -4 -27 -4h-1z" />
    <glyph glyph-name="twosuperior" unicode="&#xb2;" horiz-adv-x="232" 
d="M38 450l-12 12c2 7 6 16 17 29c58 70 160 96 160 168c0 38 -20 57 -53 57c-39 0 -67 -37 -67 -79c0 -9 2 -17 4 -26l-20 -6c-2 8 -3 17 -3 26c0 45 28 95 88 95c43 0 71 -25 71 -71c0 -81 -112 -103 -170 -180c6 3 13 4 20 4c20 0 43 -9 68 -9c29 0 40 7 51 17l12 -17
c-12 -13 -24 -19 -48 -19c-40 0 -64 18 -85 18c-11 0 -22 -5 -33 -19z" />
    <glyph glyph-name="brokenbar" unicode="&#xa6;" 
d="M80 346h14c-20 -110 -39 -214 -65 -346h-12c21 119 42 234 63 346zM101 386h-15c21 118 44 225 63 335h12c-20 -114 -38 -217 -60 -335z" />
    <glyph glyph-name="minus" unicode="&#x2212;" horiz-adv-x="227" 
d="M19 261h179l-2 -12h-179z" />
    <glyph glyph-name="multiply" unicode="&#xd7;" horiz-adv-x="212" 
d="M103 250l-58 86l9 6l57 -84l84 82l7 -8l-84 -83l58 -84l-10 -8l-57 84l-83 -83l-8 8z" />
    <glyph glyph-name="space" unicode=" " horiz-adv-x="181" 
 />
    <glyph glyph-name="exclam" unicode="!" horiz-adv-x="159" 
d="M201 724l18 -6c-59 -184 -126 -394 -181 -664l-11 2c43 214 116 486 174 668zM12 10c0 8 5 17 13 17s12 -6 12 -15c0 -8 -4 -17 -13 -17c-8 0 -12 6 -12 15z" />
    <glyph glyph-name="quotedbl" unicode="&#x22;" horiz-adv-x="164" 
d="M78 584l-9 2c15 75 24 141 24 141l18 -2s-17 -64 -33 -141zM118 584l-9 2c15 75 24 141 24 141l18 -2s-17 -64 -33 -141z" />
    <glyph glyph-name="numbersign" unicode="#" horiz-adv-x="386" 
d="M280 476l12 -1l-25 -144h113l-2 -12h-113l-19 -98h117l-2 -12h-117l-27 -140l-12 2l26 138h-87l-27 -140l-12 2l26 138h-114l2 12h115l18 98h-118l2 12h118l26 145l12 -1l-25 -144h87zM165 319l-19 -98h88l18 98h-87z" />
    <glyph glyph-name="dollar" unicode="$" horiz-adv-x="317" 
d="M210 539l12 -1c-5 -28 -9 -54 -14 -79c36 -9 66 -42 66 -94c0 -15 -2 -32 -8 -51l-20 7c6 18 9 34 9 49c0 40 -21 67 -49 77c-12 -72 -22 -139 -34 -208c36 -38 73 -75 73 -129c0 -78 -56 -113 -109 -113h-9c-5 -29 -12 -59 -18 -91l-12 1c6 32 13 62 18 91
c-47 8 -90 45 -90 107c0 9 1 19 3 29l22 -4c-2 -9 -2 -18 -2 -26c0 -55 32 -87 69 -96c16 79 28 150 40 218c-35 37 -70 77 -70 137c0 66 49 99 99 99c3 0 7 0 10 -1zM225 108c0 43 -27 75 -57 107c-11 -63 -23 -130 -39 -208c3 0 6 -1 9 -1c44 0 87 34 87 102zM182 451
c-41 0 -75 -29 -75 -89c0 -46 25 -80 54 -111c12 65 22 130 33 199c-4 0 -8 1 -12 1z" />
    <glyph glyph-name="percent" unicode="%" horiz-adv-x="425" 
d="M311 230c-55 0 -92 -83 -92 -148c0 -42 16 -77 52 -77c55 0 91 82 91 147c0 43 -15 78 -51 78zM311 240c50 0 72 -43 72 -93c0 -69 -42 -152 -112 -152c-50 0 -72 43 -72 93c0 69 42 152 112 152zM185 457c104 0 180 70 180 70l10 -7c-65 -148 -220 -392 -349 -523l-11 6
c209 221 341 507 341 507s-70 -61 -164 -61c-10 0 -21 1 -33 4c27 -9 46 -45 46 -87c0 -65 -35 -144 -109 -144c-52 0 -77 47 -77 100c0 61 45 141 116 141c18 0 34 -6 50 -6zM132 453c-59 0 -93 -80 -93 -137c0 -45 18 -84 57 -84c56 0 90 72 90 134c0 43 -17 82 -54 87z
" />
    <glyph glyph-name="ampersand" unicode="&#x26;" horiz-adv-x="423" 
d="M300 339l2 9h171l-2 -9s-37 -1 -91 -1c-1 -123 -20 -228 -76 -288c50 -81 107 -136 163 -136c35 0 57 17 73 38l12 -10c-22 -26 -43 -36 -84 -36c-64 0 -125 53 -178 131c-29 -24 -66 -37 -112 -37c-93 0 -140 67 -140 159c0 79 35 176 104 263c-7 43 -11 84 -11 122
c0 106 31 182 106 182c64 0 93 -49 93 -102c0 -41 -18 -83 -50 -107l-9 11c27 23 43 63 43 100c0 46 -24 88 -78 88c-61 0 -87 -64 -87 -155c0 -144 63 -357 147 -499c47 57 63 157 64 276c-19 0 -38 0 -60 1zM180 9c43 0 77 14 103 38c-65 100 -116 238 -139 363
c-54 -66 -86 -162 -86 -243c0 -87 37 -158 122 -158z" />
    <glyph glyph-name="quotesingle" unicode="'" horiz-adv-x="95" 
d="M60 584l-9 2c15 75 24 141 24 141l18 -2s-17 -64 -33 -141z" />
    <glyph glyph-name="parenleft" unicode="(" 
d="M196 773l9 -5c-80 -148 -163 -515 -163 -752c0 -40 2 -75 7 -106l-10 -2c-8 39 -11 85 -11 135c0 241 80 584 168 730z" />
    <glyph glyph-name="parenright" unicode=")" horiz-adv-x="170" 
d="M-14 -92l-9 5c80 147 163 514 163 752c0 39 -2 75 -7 106l10 2c8 -39 11 -85 11 -136c0 -240 -81 -583 -168 -729z" />
    <glyph glyph-name="asterisk" unicode="*" horiz-adv-x="184" 
d="M14 589l-5 13c33 11 67 21 81 25c-10 8 -32 25 -65 54l9 10c31 -27 55 -50 63 -59c1 12 4 39 14 85l13 -2c-7 -39 -16 -71 -19 -83c10 4 36 14 81 30l3 -14c-38 -13 -69 -21 -81 -25c9 -7 32 -26 66 -55l-9 -10c-29 24 -54 50 -63 59c-2 -13 -6 -42 -14 -85l-13 3
c7 36 16 71 20 84c-12 -5 -40 -16 -81 -30z" />
    <glyph glyph-name="plus" unicode="+" horiz-adv-x="197" 
d="M106 263h82l-2 -12h-82l-16 -91l-12 2l15 89h-84l2 12h84l17 93l12 -2z" />
    <glyph glyph-name="comma" unicode="," horiz-adv-x="86" 
d="M-38 -107l-7 5c31 48 43 91 43 138h18c0 -42 -19 -100 -54 -143z" />
    <glyph glyph-name="hyphen" unicode="-" horiz-adv-x="219" 
d="M19 261h179l-2 -12h-179z" />
    <glyph glyph-name="period" unicode="." horiz-adv-x="110" 
d="M12 10c0 8 5 17 13 17s12 -6 12 -15c0 -8 -4 -17 -13 -17c-8 0 -12 6 -12 15z" />
    <glyph glyph-name="slash" unicode="/" horiz-adv-x="151" 
d="M194 722l12 -2c-40 -225 -83 -444 -178 -723l-12 4c84 252 140 499 178 721z" />
    <glyph glyph-name="zero" unicode="0" horiz-adv-x="293" 
d="M114 -5c-66 0 -94 74 -94 170c0 133 53 296 154 296c75 0 94 -78 94 -170c0 -133 -52 -296 -154 -296zM114 5c89 0 134 165 134 294c0 83 -22 152 -74 152c-87 0 -134 -165 -134 -294c0 -84 20 -152 74 -152z" />
    <glyph glyph-name="one" unicode="1" horiz-adv-x="171" 
d="M135 0h-170l2 11h76c32 220 76 429 76 429s-44 -68 -93 -114l-8 8c59 55 103 125 103 125l21 -7c-3 -21 -42 -192 -79 -441h74z" />
    <glyph glyph-name="two" unicode="2" horiz-adv-x="262" 
d="M-2 -4l-13 9c2 7 9 21 18 34c98 143 217 195 217 330c0 45 -25 82 -73 82c-57 0 -89 -56 -89 -108c0 -18 4 -36 12 -51l-16 -8c-9 13 -13 32 -13 52c0 57 34 125 108 125c61 0 91 -39 91 -96c0 -144 -144 -208 -228 -344c8 4 18 5 29 5c29 0 66 -10 100 -10
c29 0 40 7 51 17l14 -17c-12 -11 -23 -19 -50 -19c-46 0 -86 20 -118 20c-16 0 -29 -5 -40 -21z" />
    <glyph glyph-name="three" unicode="3" horiz-adv-x="264" 
d="M116 185l3 19h3c10 0 18 -2 27 -5c45 19 71 86 71 146c0 56 -23 106 -75 106c-54 0 -86 -57 -86 -109c0 -18 4 -36 12 -50l-16 -8c-9 14 -14 33 -14 54c0 56 33 123 107 123c65 0 93 -54 93 -114c0 -61 -30 -130 -80 -154c37 -22 56 -75 56 -131
c0 -84 -43 -175 -133 -175c-65 0 -95 51 -95 104c0 43 19 86 53 109l11 -13c-30 -22 -47 -64 -47 -102c0 -46 24 -88 79 -88c74 0 111 89 111 170c0 54 -17 104 -49 121c-8 -3 -16 -4 -25 -4c-2 0 -4 0 -6 1z" />
    <glyph glyph-name="four" unicode="4" horiz-adv-x="261" 
d="M212 0h-159l2 11h66c5 36 10 73 16 108c-36 5 -68 14 -94 14c-17 0 -32 -4 -42 -17l-13 16c64 85 86 186 89 289h18c-1 -96 -18 -188 -79 -282c8 2 17 3 27 3c28 0 64 -8 96 -11c25 150 52 283 60 325h21c-3 -18 -30 -142 -61 -326c41 0 61 10 76 23l10 -19
c-12 -11 -34 -18 -64 -18c-7 0 -14 0 -22 1h-2l-16 -106h73z" />
    <glyph glyph-name="five" unicode="5" horiz-adv-x="286" 
d="M58 197l-14 13c2 4 11 12 20 17c7 29 27 108 41 234c22 -5 48 -8 75 -8c30 0 60 3 82 12l5 -21c-19 -8 -49 -12 -78 -12c-31 0 -60 4 -74 8c-10 -78 -15 -119 -38 -207c15 5 32 9 46 9c75 0 108 -57 108 -143c0 -112 -61 -214 -151 -214c-64 0 -92 49 -92 102
c0 43 18 88 50 112l13 -15c-31 -22 -48 -63 -48 -102c0 -45 25 -87 80 -87c76 0 129 108 129 207c0 76 -28 130 -91 130c-17 0 -39 -7 -48 -16c-4 -9 -9 -17 -15 -19z" />
    <glyph glyph-name="six" unicode="6" horiz-adv-x="286" 
d="M279 552l6 -15c-109 -39 -196 -130 -233 -253c21 36 51 61 94 61c64 0 94 -69 94 -148c0 -95 -45 -202 -130 -202c-71 0 -94 76 -94 161c0 194 124 352 263 396zM143 337c-41 0 -85 -35 -102 -107c-5 -23 -8 -55 -8 -83c0 -61 15 -142 79 -142c72 0 108 100 108 190
c0 78 -25 142 -77 142z" />
    <glyph glyph-name="seven" unicode="7" horiz-adv-x="260" 
d="M54 -94h-21s95 377 200 541c-26 -7 -66 -10 -104 -10c-36 0 -71 3 -95 7c0 -8 1 -16 1 -23c0 -19 -2 -38 -3 -52l-21 1c5 25 7 62 7 87c30 -5 71 -8 112 -8s83 3 118 11l6 -15c-107 -158 -200 -539 -200 -539z" />
    <glyph glyph-name="eight" unicode="8" horiz-adv-x="286" 
d="M202 563c54 0 78 -46 78 -100c0 -65 -35 -142 -93 -162c42 -14 60 -59 60 -111c0 -88 -54 -195 -142 -195c-63 0 -92 56 -92 120c0 77 41 167 114 187c-35 14 -51 54 -51 99c0 74 46 162 126 162zM158 296c-78 0 -126 -103 -126 -186c0 -57 23 -105 73 -105
c73 0 121 106 121 190c0 55 -20 101 -68 101zM202 553c-66 0 -106 -87 -106 -158c0 -48 19 -89 61 -89c61 0 102 91 102 162c0 47 -17 85 -57 85z" />
    <glyph glyph-name="nine" unicode="9" horiz-adv-x="300" 
d="M75 -98l-13 17c85 49 143 162 168 272c-21 -46 -56 -80 -104 -80c-64 0 -93 66 -93 143c0 97 47 208 133 208c64 0 94 -69 94 -159c0 -139 -69 -329 -185 -401zM118 120c4 -1 7 -1 11 -1c72 0 115 103 115 186c0 84 -25 147 -80 147c-73 0 -112 -105 -112 -196
c0 -69 22 -131 66 -136z" />
    <glyph glyph-name="colon" unicode=":" horiz-adv-x="129" 
d="M12 10c0 8 5 17 13 17s12 -6 12 -15c0 -8 -4 -17 -13 -17c-8 0 -12 6 -12 15zM71 365c0 8 5 17 13 17s12 -6 12 -15c0 -8 -4 -17 -13 -17c-8 0 -12 6 -12 15z" />
    <glyph glyph-name="semicolon" unicode=";" horiz-adv-x="138" 
d="M-23 -107l-7 5c31 48 43 91 43 138h18c0 -42 -19 -100 -54 -143zM71 365c0 8 5 17 13 17s12 -6 12 -15c0 -8 -4 -17 -13 -17c-8 0 -12 6 -12 15z" />
    <glyph glyph-name="less" unicode="&#x3c;" horiz-adv-x="255" 
d="M14 373l2 13s108 48 193 112l6 -9c-82 -63 -182 -108 -182 -108c67 -49 135 -130 135 -130l-12 -13s-69 76 -142 135z" />
    <glyph glyph-name="equal" unicode="=" horiz-adv-x="222" 
d="M32 296h181l-2 -12h-181zM18 216h181l-2 -12h-181z" />
    <glyph glyph-name="greater" unicode="&#x3e;" horiz-adv-x="241" 
d="M228 363l-2 -13s-108 -48 -193 -112l-6 9c82 63 182 108 182 108c-67 49 -135 130 -135 130l12 13s69 -76 142 -135z" />
    <glyph glyph-name="question" unicode="?" horiz-adv-x="272" 
d="M105 117l-20 3c28 202 207 281 207 462c0 89 -50 134 -105 134c-87 0 -131 -83 -131 -160c0 -65 32 -126 96 -126l-2 -17c-75 0 -111 66 -111 138c0 84 50 175 148 175c75 0 125 -50 125 -144c0 -175 -176 -263 -207 -465zM74 10c0 8 5 17 13 17s12 -6 12 -15
c0 -8 -4 -17 -13 -17c-8 0 -12 6 -12 15z" />
    <glyph glyph-name="at" unicode="@" horiz-adv-x="554" 
d="M323 -5c-25 0 -34 30 -34 79c0 33 4 74 11 120c-36 -111 -75 -199 -130 -199c-37 0 -52 47 -52 111c0 138 70 353 154 353c38 0 56 -35 61 -76l15 73h20c-28 -149 -64 -316 -64 -398c0 -31 6 -50 19 -50c62 0 140 221 140 404c0 129 -39 239 -149 239
c-191 0 -318 -298 -318 -540c0 -166 60 -306 198 -306c155 0 271 208 360 438c4 0 8 -2 8 -6v-2c-86 -224 -205 -440 -368 -440c-147 0 -210 145 -210 316c0 247 132 550 330 550c118 0 160 -119 160 -256c0 -188 -79 -410 -151 -410zM271 451c-68 0 -137 -225 -137 -355
c0 -54 12 -91 40 -91c52 0 114 156 147 314c1 10 2 21 2 32c0 51 -15 100 -52 100z" />
    <glyph glyph-name="A" unicode="A" horiz-adv-x="1010" 
d="M559 400c85 -1 169 -25 234 -74c90 232 156 469 243 558l22 -10c-81 -339 -131 -644 -131 -873c0 -262 65 -424 224 -424c96 0 145 54 179 136l18 -6c-37 -93 -100 -141 -186 -141c-189 0 -255 171 -255 429c0 17 1 34 1 52c0 118 -39 201 -105 257
c-103 -277 -238 -536 -506 -536c-247 0 -364 180 -364 367c0 205 139 418 401 418c124 0 197 -68 225 -153zM188 152c36 156 194 243 354 247c-27 82 -96 146 -211 146c-244 0 -377 -210 -377 -410c0 -183 110 -357 347 -357c243 0 382 264 488 538c-63 48 -144 70 -227 71
c6 -23 9 -46 9 -70c0 -109 -62 -223 -175 -260l-7 15c108 36 165 143 165 246c0 23 -3 46 -9 68c-154 -5 -307 -89 -340 -238zM1029 858c-86 -122 -145 -336 -222 -543c53 -44 91 -105 105 -186c15 213 61 467 117 729z" />
    <glyph glyph-name="B" unicode="B" horiz-adv-x="886" 
d="M457 885c216 0 320 -131 320 -260c0 -103 -66 -205 -195 -238c166 -34 240 -162 240 -292c0 -161 -113 -327 -306 -327c-87 0 -148 30 -200 61c-53 -45 -113 -61 -174 -61c-57 0 -86 33 -86 68s32 72 98 72c65 0 110 -30 159 -61c77 77 140 228 171 509l2 20
c-8 1 -12 5 -12 9c0 5 5 10 14 11c20 166 46 280 71 354l21 -6c-26 -73 -51 -187 -70 -349c15 0 30 -1 44 -3c133 25 203 129 203 235c0 123 -96 248 -300 248c-272 0 -398 -211 -398 -388c0 -129 67 -240 193 -240c122 0 182 125 182 228c0 55 -17 104 -51 124l7 14
c40 -20 62 -76 62 -138c0 -109 -64 -238 -201 -238s-210 118 -210 253c0 182 131 395 416 395zM556 381c-15 -2 -31 -4 -48 -5c0 -7 -2 -13 -2 -20c-31 -287 -97 -440 -179 -517c49 -31 105 -61 189 -61c173 0 285 167 285 326c0 129 -73 252 -245 277zM145 -222
c54 0 109 15 158 59c-51 31 -95 61 -151 61c-55 0 -82 -31 -82 -62c0 -29 25 -58 75 -58z" />
    <glyph glyph-name="C" unicode="C" horiz-adv-x="932" 
d="M350 645l-12 -20s-24 18 -74 18c-138 0 -216 -107 -216 -227c0 -130 98 -267 321 -267c11 0 23 1 34 1c6 324 167 735 387 735c95 0 140 -76 140 -180c0 -209 -183 -530 -506 -563v-21c0 -190 55 -343 187 -343c9 0 18 1 27 2c-11 43 -17 90 -17 137
c0 137 48 270 143 270c65 0 96 -58 96 -134c0 -110 -69 -254 -203 -280c21 -71 59 -126 115 -136l-5 -19c-62 12 -104 74 -126 152c-10 -1 -19 -2 -29 -2c-151 0 -209 168 -209 372c-11 0 -23 -1 -34 -1c-239 0 -339 147 -339 285c0 124 87 239 233 239c59 0 87 -18 87 -18z
M790 875c-204 0 -356 -405 -366 -723c317 34 485 351 485 554c0 98 -39 169 -119 169zM778 176h-10c-86 0 -131 -127 -131 -258c0 -47 6 -93 17 -135c126 27 185 171 185 277c0 62 -21 112 -61 116z" />
    <glyph glyph-name="D" unicode="D" horiz-adv-x="898" 
d="M106 -92c52 0 95 -31 147 -63c55 53 103 144 138 293c-9 -1 -19 -1 -28 -1c-196 0 -293 158 -293 329c0 201 133 419 394 419c254 0 366 -248 366 -514c0 -293 -138 -603 -372 -603c-90 0 -152 29 -203 59c-52 -44 -111 -59 -171 -59c-57 0 -90 34 -90 69s34 71 112 71z
M458 -222c217 0 348 305 348 594c0 262 -106 504 -351 504c-241 0 -365 -213 -365 -409c0 -166 90 -320 274 -320c10 0 19 0 29 1c13 60 24 129 33 208c21 188 48 313 75 393l17 -5c-28 -79 -55 -205 -74 -388c-8 -78 -19 -146 -32 -206c139 22 207 136 207 234
c0 46 -15 88 -44 115l9 13c34 -28 51 -74 51 -124c0 -105 -74 -227 -226 -248c-35 -155 -85 -248 -144 -303c51 -31 110 -59 193 -59zM87 -222c54 0 107 15 155 57c-51 32 -91 63 -138 63c-62 0 -92 -32 -92 -63c0 -29 26 -57 75 -57z" />
    <glyph glyph-name="E" unicode="E" horiz-adv-x="726" 
d="M532 406l-2 -19c-3 -1 -7 -2 -12 -2c-15 0 -29 3 -42 8c-183 -31 -278 -207 -278 -362c0 -134 70 -253 214 -253c161 0 241 165 241 297c0 86 -34 158 -103 158c-76 0 -119 -80 -119 -159c0 -33 8 -66 23 -93l-16 -9c-16 27 -24 62 -24 97c0 85 47 174 136 174
c82 0 123 -80 123 -174c0 -135 -87 -301 -265 -301c-150 0 -228 128 -228 269c0 155 92 325 282 363c-28 17 -49 47 -63 83c-29 -5 -60 -8 -94 -8c-213 0 -301 102 -301 194c0 75 59 144 155 144c69 0 124 -39 153 -88l-19 -13c-25 50 -74 91 -134 91
c-87 0 -137 -61 -137 -129c0 -88 84 -189 283 -189c33 0 63 3 91 8c-12 36 -18 77 -18 119c0 133 59 274 179 274c71 0 111 -53 111 -128c0 -101 -77 -233 -252 -272c15 -39 37 -69 68 -82c11 2 24 4 36 4c5 0 9 -1 12 -2zM576 875c-5 0 -10 1 -15 1
c-113 0 -167 -135 -167 -262c0 -42 6 -82 18 -117c167 39 237 170 237 267c0 59 -27 106 -73 111z" />
    <glyph glyph-name="F" unicode="F" horiz-adv-x="1004" 
d="M650 167l-21 -8c-6 11 -8 27 -8 38c0 96 116 134 210 141h4c0 6 1 12 2 18c28 253 76 378 115 438c-24 -6 -53 -10 -85 -10c-147 0 -307 78 -514 78c-223 0 -336 -169 -336 -327c0 -142 90 -275 271 -275c174 0 254 114 254 238c0 16 -1 33 -4 50l19 4c3 -18 5 -36 5 -54
c0 -128 -87 -248 -273 -248c-194 0 -288 138 -288 284c0 167 122 346 355 346c216 0 388 -81 513 -81c45 0 74 4 93 9c25 33 45 41 54 42l11 -14c-5 -12 -25 -26 -57 -37c-31 -38 -84 -143 -115 -443c-1 -6 -2 -11 -2 -16c51 6 81 18 102 36c19 50 37 79 37 79l15 -7
c0 -17 -9 -52 -44 -81c-10 -37 -29 -114 -29 -211h-20c0 80 16 149 34 201c-23 -14 -54 -26 -97 -31c-54 -457 -200 -559 -356 -559c-136 0 -196 84 -196 169c0 81 50 150 119 152l1 -20c-61 -2 -101 -60 -101 -130c0 -84 55 -161 180 -161c142 0 281 105 335 548
c-101 -7 -190 -49 -190 -124c0 -12 2 -22 7 -34z" />
    <glyph glyph-name="G" unicode="G" horiz-adv-x="863" 
d="M826 309l-40 -94c-5 -17 -30 -135 -53 -279c-17 -108 -37 -287 -184 -287c-84 0 -122 59 -122 119c0 62 40 125 112 127l2 -21c-64 -3 -98 -58 -98 -111s33 -104 106 -104c130 0 148 172 164 277c9 59 20 120 32 178c-36 -66 -94 -120 -176 -120c-95 0 -149 83 -169 199
c-23 -3 -47 -4 -72 -4c-222 0 -317 130 -317 254c0 113 78 220 211 220c32 0 61 -8 87 -23l-10 -17c-23 13 -46 21 -76 21c-123 0 -197 -101 -197 -206c0 -117 90 -239 302 -239c24 0 48 1 71 4c-5 32 -8 67 -8 102c0 258 127 580 338 580c98 0 145 -76 145 -177
c0 -188 -161 -465 -457 -512c17 -112 66 -192 151 -192c179 0 197 232 236 316zM729 875c-198 0 -319 -324 -319 -578c0 -32 2 -62 6 -91c289 47 437 320 437 502c0 96 -41 167 -124 167z" />
    <glyph glyph-name="H" unicode="H" horiz-adv-x="931" 
d="M1162 740h-23c2 14 2 27 2 38c0 71 -29 98 -72 98c-57 0 -112 -56 -159 -183c-75 -205 -146 -672 -146 -920h-20c1 143 25 360 58 556c-69 -14 -133 0 -200 0c-54 -308 -124 -561 -408 -561c-183 0 -265 135 -265 275c0 151 96 308 266 308c104 0 168 -87 168 -178
c0 -41 -13 -84 -42 -119l-15 12c28 37 41 76 41 113c0 87 -68 162 -153 162c-153 0 -242 -154 -242 -300c0 -135 75 -263 246 -263c259 0 325 242 383 550c-40 -2 -78 -11 -106 -26l-7 16c33 16 75 23 116 24c26 141 51 294 93 445c-113 -79 -328 -51 -328 -209
c0 -61 45 -98 114 -98l-4 -25c-79 6 -129 47 -129 123c0 171 269 159 352 230l23 74l28 -7c-4 -30 -18 -53 -38 -72c-42 -152 -64 -312 -90 -461c87 -3 146 -12 199 0c71 408 158 544 271 544c52 0 88 -34 88 -120c0 -8 0 -17 -1 -26z" />
    <glyph glyph-name="I" unicode="I" horiz-adv-x="517" 
d="M538 882l16 -4c-2 -16 -9 -35 -15 -46c-82 -342 -129 -639 -186 -1059h-20c62 412 104 696 186 1035c-130 -137 -479 -257 -479 -498c0 -112 64 -185 165 -185c81 0 124 66 124 128c0 43 -21 85 -66 100l8 18c51 -18 76 -64 76 -113c0 -70 -50 -143 -142 -143
c-108 0 -185 73 -185 195c0 246 390 388 503 515c4 26 10 42 15 57z" />
    <glyph glyph-name="J" unicode="J" horiz-adv-x="527" 
d="M557 880l21 -9c-6 -22 -17 -40 -27 -57l-3 -5c-28 -93 -92 -314 -124 -553c-25 -183 -59 -607 -246 -607c-64 0 -110 41 -110 109c0 78 55 138 120 138l2 -22c-51 0 -104 -47 -104 -116c0 -67 38 -99 92 -99c170 0 200 422 226 597c31 217 72 388 107 499
c-41 -52 -96 -107 -167 -167c-137 -116 -316 -231 -316 -398c0 -112 64 -185 165 -185c81 0 124 66 124 128c0 43 -21 85 -66 100l7 19c52 -13 79 -63 79 -115c0 -69 -47 -142 -144 -142c-108 0 -185 73 -185 195c0 177 198 301 329 406c88 70 160 146 186 197
c11 33 21 61 34 87z" />
    <glyph glyph-name="K" unicode="K" horiz-adv-x="913" 
d="M224 -222c243 0 317 214 373 496h-25l3 17c8 0 16 -1 24 -4c31 155 57 330 104 500c-113 -79 -328 -51 -328 -209c0 -61 45 -98 114 -98l-4 -25c-79 6 -129 47 -129 123c0 171 269 159 352 230l23 74l28 -7c-4 -30 -18 -53 -38 -72c-47 -170 -69 -352 -100 -515
c250 60 265 597 457 597c41 0 65 -30 65 -62v-6h-19v5c0 32 -18 51 -47 51c-165 0 -181 -542 -457 -595c130 -79 197 -500 405 -500c75 0 105 54 105 105l23 -1c0 -51 -34 -116 -127 -116c-232 0 -291 417 -409 502c-53 -280 -132 -500 -397 -500c-183 0 -265 135 -265 275
c0 151 96 308 266 308c104 0 168 -87 168 -178c0 -41 -13 -84 -42 -119l-15 12c28 37 41 76 41 113c0 87 -68 162 -153 162c-153 0 -242 -154 -242 -300c0 -135 75 -263 246 -263z" />
    <glyph glyph-name="L" unicode="L" horiz-adv-x="781" 
d="M296 149c59 0 113 10 161 27c10 53 19 112 27 180c49 449 119 529 223 529c73 0 111 -78 111 -183c0 -180 -111 -441 -344 -531c-28 -135 -65 -226 -110 -288c133 -38 225 -105 352 -105c96 0 113 54 117 83l20 -5c-4 -38 -38 -88 -137 -88c-132 0 -241 63 -363 101
c-62 -77 -135 -101 -211 -101c-53 0 -81 29 -81 61c0 38 39 79 123 79c62 0 115 -8 163 -21c43 60 80 148 107 277c-48 -16 -100 -25 -158 -25c-236 0 -339 143 -339 280c0 125 86 244 233 244c35 0 64 -7 92 -22l-12 -18c-23 16 -49 20 -79 20c-138 0 -217 -110 -217 -226
c0 -130 99 -268 322 -268zM706 875c-84 0 -159 -89 -204 -519c-7 -64 -16 -121 -26 -173c224 91 323 346 323 520c0 99 -32 172 -93 172zM145 -222c68 0 134 24 192 96c-49 15 -100 24 -155 24c-68 0 -103 -38 -103 -71c0 -26 22 -49 66 -49z" />
    <glyph glyph-name="M" unicode="M" horiz-adv-x="1153" 
d="M775 -223l-31 1c0 16 8 56 16 72c-8 127 -41 301 -69 468c-84 -286 -249 -545 -451 -545c-151 0 -223 132 -223 272c0 156 91 322 264 322c111 0 168 -90 168 -184c0 -43 -12 -87 -36 -124l-21 13c24 40 35 84 35 124c0 88 -54 163 -147 163c-157 0 -244 -166 -244 -320
c0 -132 65 -256 208 -256c186 0 359 265 442 562c-20 121 -35 236 -35 325c0 88 25 137 60 137c28 0 40 -28 40 -102c0 -105 -17 -223 -47 -339c25 -160 56 -337 68 -478c57 177 156 383 224 580c-1 25 -1 50 -1 75c0 191 20 342 57 342c17 0 27 -27 27 -64
c0 -103 -27 -216 -65 -333c11 -384 60 -701 248 -701c52 0 82 20 105 53l15 -12c-23 -37 -58 -59 -113 -59c-212 0 -255 292 -272 667c-72 -204 -172 -413 -223 -587c0 -15 2 -28 2 -44c0 -9 0 -18 -1 -28zM739 701c0 67 -6 96 -29 96s-39 -48 -39 -125
c0 -69 12 -168 29 -277c25 103 39 208 39 306zM1069 820c0 30 -6 55 -19 55c-21 0 -36 -134 -36 -307v-46c33 105 55 206 55 298z" />
    <glyph glyph-name="N" unicode="N" horiz-adv-x="996" 
d="M870 -227h-29c-1 12 -2 27 -2 41c0 23 1 46 2 64v10c-26 120 -95 282 -157 440c-50 -257 -204 -555 -444 -555c-151 0 -223 132 -223 272c0 156 91 322 264 322c104 0 168 -92 168 -186c0 -43 -13 -86 -42 -121l-15 12c28 37 41 77 41 115c0 90 -68 170 -153 170
c-157 0 -244 -165 -244 -318c0 -133 65 -256 208 -256c221 0 386 293 432 564c-59 152 -109 297 -109 397c0 41 18 64 41 64c51 0 93 -124 93 -313c0 -39 -4 -82 -10 -126c55 -142 117 -295 152 -422c28 563 200 950 422 950c69 0 119 -36 131 -69l-18 -9
c-11 38 -60 62 -122 62c-201 0 -382 -388 -402 -973l7 -33c4 -20 9 -74 9 -97v-5zM689 491c0 176 -39 307 -81 307c-20 0 -27 -21 -27 -52c0 -80 46 -211 101 -354c4 34 7 67 7 99z" />
    <glyph glyph-name="O" unicode="O" horiz-adv-x="1116" 
d="M924 837l6 12c83 -39 121 -168 121 -324c0 -321 -161 -757 -419 -757c-159 0 -225 168 -226 372c-12 -1 -25 -1 -37 -1c-236 0 -339 143 -339 280c0 125 86 244 233 244c38 0 61 -7 91 -25l-12 -17c-22 15 -48 22 -78 22c-138 0 -217 -110 -217 -226
c0 -130 99 -268 322 -268c12 0 25 0 37 1c2 324 164 735 384 735c95 0 140 -76 140 -180c0 -208 -183 -529 -505 -563c0 -200 58 -364 206 -364c244 0 399 436 399 752c0 146 -33 267 -106 307zM790 875c-205 0 -360 -405 -365 -723c316 34 484 351 484 554
c0 98 -39 169 -119 169z" />
    <glyph glyph-name="P" unicode="P" horiz-adv-x="824" 
d="M593 752l24 -9c-30 -63 -71 -175 -93 -387c-7 -61 -14 -116 -22 -166c184 23 284 187 284 348c0 170 -110 337 -349 337c-264 0 -384 -201 -384 -376c0 -134 70 -252 199 -252c125 0 181 119 181 221c0 57 -17 109 -50 131l12 15c38 -25 58 -82 58 -143
c0 -109 -63 -234 -202 -234c-141 0 -218 125 -218 265c0 179 126 383 404 383c254 0 370 -171 370 -345c0 -169 -109 -339 -307 -360c-57 -333 -155 -413 -276 -413c-116 0 -176 84 -176 169c0 81 51 152 120 155v-19c-54 -2 -101 -64 -101 -134c0 -84 55 -161 160 -161
c120 0 224 109 276 579c22 197 57 324 90 396z" />
    <glyph glyph-name="Q" unicode="Q" horiz-adv-x="703" 
d="M151 -228l4 32c4 0 8 1 12 1c17 0 36 -4 49 -8c272 116 450 491 450 767c0 176 -73 311 -241 311c-253 0 -385 -277 -385 -506c0 -160 65 -295 198 -295c136 0 213 154 213 286c0 82 -29 155 -93 177l11 21c67 -28 99 -106 99 -192c0 -140 -84 -302 -230 -302
s-218 144 -218 311c0 232 139 510 405 510c183 0 262 -141 262 -323c0 -275 -179 -645 -447 -771c177 -46 427 -137 594 -137c136 0 170 80 171 140h19v-7c0 -73 -44 -151 -191 -151c-164 0 -464 120 -610 148l-5 -3c-16 -7 -33 -10 -50 -10c-6 0 -12 0 -17 1z" />
    <glyph glyph-name="R" unicode="R" horiz-adv-x="805" 
d="M448 184l2 18c10 0 21 -3 31 -6c8 48 15 101 22 160c22 197 57 324 90 396l24 -9c-29 -63 -71 -175 -93 -387c-6 -59 -14 -112 -22 -160c175 22 279 192 279 356s-104 323 -344 323c-267 0 -386 -200 -386 -374c0 -134 72 -254 201 -254c125 0 181 120 181 222
c0 57 -17 108 -50 130l14 15c37 -21 57 -77 57 -139c0 -109 -62 -238 -203 -238s-218 125 -218 265c0 179 126 383 404 383c252 0 366 -168 366 -340c0 -166 -107 -336 -302 -360c130 -93 185 -547 392 -547c75 0 105 54 105 105l22 -1c-2 -54 -33 -116 -126 -116
c-229 0 -282 447 -395 547c-58 -328 -155 -406 -275 -406c-116 0 -176 84 -176 169c0 81 55 153 117 158l3 -22c-55 -1 -101 -64 -101 -134c0 -84 55 -161 160 -161c103 0 195 82 252 406h-2c-9 0 -20 0 -29 1z" />
    <glyph glyph-name="S" unicode="S" horiz-adv-x="972" 
d="M1005 883c26 -5 37 -28 37 -63c0 -76 -55 -208 -148 -343c-1 -35 -1 -71 -1 -106c0 -313 -122 -603 -391 -603c-160 0 -242 123 -257 269h-16c-149 0 -211 85 -211 162c0 64 43 123 115 123c39 0 58 -17 76 -42l-14 -11c-13 21 -33 38 -62 38c-63 0 -100 -53 -100 -111
c0 -71 56 -150 192 -150h19c-1 14 -2 28 -2 43c0 203 118 427 324 427c110 0 166 -98 174 -213c50 52 96 108 135 164c4 208 25 417 117 417c4 0 8 0 13 -1zM627 -18l-15 15c71 62 110 174 111 277c-129 -125 -286 -222 -455 -236c15 -140 89 -258 235 -258
c243 0 371 274 371 588v81c-39 -54 -84 -108 -134 -158v-19c0 -109 -39 -227 -113 -290zM565 506c-190 0 -299 -218 -299 -416c0 -14 1 -28 2 -42c172 14 329 113 455 238c-2 117 -52 220 -158 220zM1003 870c-3 0 -5 1 -8 1c-66 0 -93 -174 -100 -375
c86 130 136 255 136 323c0 29 -9 47 -28 51z" />
    <glyph glyph-name="T" unicode="T" horiz-adv-x="944" 
d="M1011 849l13 -18c-7 -11 -27 -23 -56 -32c-31 -39 -83 -145 -114 -443c-51 -483 -200 -589 -360 -589c-136 0 -196 84 -196 169c0 81 53 154 118 154l2 -18c-55 -1 -103 -64 -103 -134c0 -84 57 -161 182 -161c146 0 287 109 339 579c28 253 76 377 115 438
c-24 -6 -53 -10 -85 -10c-147 0 -307 78 -514 78c-223 0 -336 -169 -336 -327c0 -142 90 -275 271 -275c182 0 244 127 244 245c0 15 -1 30 -3 44l24 2c2 -15 3 -29 3 -44c0 -128 -80 -257 -267 -257c-194 0 -288 138 -288 284c0 167 122 346 355 346c216 0 388 -81 513 -81
c45 0 74 4 93 9c22 28 40 38 50 41z" />
    <glyph glyph-name="U" unicode="U" horiz-adv-x="995" 
d="M1097 -30l18 -3c-23 -148 -77 -200 -144 -200c-72 0 -115 52 -115 202c0 47 5 100 12 157c-47 -163 -136 -358 -223 -358c-69 0 -100 53 -100 145c0 168 118 505 118 670c0 149 -110 291 -274 291c-226 0 -342 -175 -342 -338c0 -141 87 -272 266 -272
c178 0 242 157 242 280c0 12 -1 24 -2 35l18 4c1 -10 1 -20 1 -30c0 -129 -70 -299 -258 -299c-192 0 -283 134 -283 278c0 169 125 352 361 352c169 0 291 -141 291 -301c0 -188 -118 -499 -118 -668c0 -82 19 -137 80 -137c101 0 207 305 237 440c35 225 92 507 146 668
l27 -11l-38 -100c-18 -47 -37 -120 -72 -325c-28 -163 -69 -353 -69 -490c0 -128 36 -183 93 -183c58 0 111 55 128 193z" />
    <glyph glyph-name="V" unicode="V" horiz-adv-x="978" 
d="M719 -197c132 651 386 1094 638 1094c69 0 116 -31 131 -69l-18 -9c-17 44 -57 62 -119 62c-235 0 -490 -435 -628 -1110l-21 3c5 95 8 186 8 273c0 439 -86 736 -361 736c-218 0 -326 -164 -326 -321c0 -147 94 -289 280 -289c176 0 235 158 235 266c0 18 -2 35 -5 49
l20 4c2 -13 4 -28 4 -45c0 -110 -58 -284 -253 -284c-199 0 -297 144 -297 295c0 164 117 335 345 335c277 0 380 -300 380 -716c0 -87 -5 -179 -13 -274z" />
    <glyph glyph-name="W" unicode="W" horiz-adv-x="1266" 
d="M1027 -227h-17c-33 23 -45 122 -45 257c0 215 31 520 62 753c-121 -263 -278 -999 -280 -1010h-14c-51 49 5 573 -54 756c-52 159 -162 254 -306 254c-218 0 -326 -164 -326 -321c0 -147 94 -289 280 -289c175 0 232 153 232 276c0 13 -1 26 -2 39l18 4
c1 -11 1 -22 1 -34c0 -128 -62 -295 -248 -295c-199 0 -297 144 -297 295c0 164 117 335 345 335c148 0 264 -98 319 -258c31 -90 35 -262 35 -419c0 -56 -1 -110 -1 -158c0 -89 2 -154 13 -166c7 32 151 720 284 1012l17 -4c-27 -244 -59 -559 -59 -774
c0 -119 10 -208 36 -238c132 651 235 1109 491 1109c59 0 100 -24 131 -69l-18 -9c-25 41 -73 62 -122 62c-236 0 -337 -433 -475 -1108z" />
    <glyph glyph-name="X" unicode="X" horiz-adv-x="966" 
d="M475 571l-2 -23c-103 0 -159 84 -159 169c0 84 56 168 176 168c180 0 237 -260 281 -527c96 267 185 527 386 527c69 0 122 -35 133 -71l-20 -7c-11 38 -60 62 -122 62c-193 0 -277 -264 -374 -533c45 -280 90 -558 323 -558c75 0 122 38 136 105l22 -3
c-16 -69 -64 -114 -157 -114c-240 0 -298 254 -341 522c-97 -262 -214 -515 -464 -515c-177 0 -264 155 -264 317c0 179 106 367 315 367c123 0 194 -105 194 -215c0 -65 -25 -133 -79 -182l-14 12c54 53 79 118 79 180c0 104 -70 197 -181 197c-192 0 -292 -186 -292 -361
c0 -157 80 -305 246 -305c246 0 358 260 456 528l-2 18c-43 274 -89 546 -260 546c-112 0 -162 -74 -162 -149c0 -77 53 -155 146 -155z" />
    <glyph glyph-name="Y" unicode="Y" horiz-adv-x="992" 
d="M1013 885l22 -11c-46 -96 -110 -305 -152 -618c-25 -183 -59 -607 -246 -607c-64 0 -110 41 -110 109c0 78 62 134 120 136l2 -20c-51 0 -104 -47 -104 -116c0 -67 38 -99 92 -99c186 0 209 519 233 645c-46 -150 -120 -309 -201 -309c-69 0 -100 53 -100 145
c0 168 67 278 67 443c0 149 -110 291 -274 291c-226 0 -342 -175 -342 -338c0 -141 87 -272 266 -272c178 0 242 157 242 280c0 12 -1 24 -2 35l18 4c1 -10 1 -20 1 -30c0 -129 -70 -299 -258 -299c-192 0 -283 134 -283 278c0 169 125 352 361 352c169 0 291 -141 291 -301
c0 -168 -67 -272 -67 -441c0 -82 19 -137 80 -137c97 0 187 267 219 406c43 240 97 411 125 474z" />
    <glyph glyph-name="Z" unicode="Z" horiz-adv-x="654" 
d="M261 107l7 34h4c21 0 40 -2 58 -6c227 98 333 299 333 467c0 150 -84 273 -238 273c-196 0 -295 -192 -295 -355c0 -126 56 -226 156 -226c97 0 138 96 138 185c0 55 -23 107 -66 128l13 20c51 -28 73 -87 73 -149c0 -93 -53 -194 -158 -194c-113 0 -176 108 -176 242
c0 167 105 359 315 359c169 0 259 -127 259 -282c0 -168 -107 -368 -332 -473c100 -30 141 -116 141 -207c0 -132 -83 -274 -190 -274c-71 0 -106 56 -106 123s37 145 110 183l12 -19c-72 -40 -106 -111 -106 -172c0 -58 31 -105 90 -105c96 0 170 141 170 268
c0 93 -40 179 -140 194c-25 -6 -36 -15 -60 -15c-4 0 -8 1 -12 1z" />
    <glyph glyph-name="bracketleft" unicode="[" horiz-adv-x="183" 
d="M79 337c23 136 73 439 73 439c22 -5 47 -8 73 -8c28 0 57 3 79 12l5 -17c-10 -7 -32 -9 -57 -9c-36 0 -76 5 -93 10c-10 -83 -53 -323 -71 -427s-55 -340 -73 -423c18 5 48 9 78 9c24 0 47 -2 66 -9l-6 -18c-19 8 -46 12 -74 12c-26 0 -53 -3 -76 -8c0 0 53 301 76 437z
" />
    <glyph glyph-name="backslash" unicode="\" horiz-adv-x="132" 
d="M48 720h14c-13 -234 -1 -475 36 -745h-13c-35 266 -53 492 -37 745z" />
    <glyph glyph-name="bracketright" unicode="]" horiz-adv-x="164" 
d="M68 339c-23 -136 -73 -439 -73 -439c-22 5 -48 8 -73 8c-29 0 -57 -4 -79 -12l-5 17c9 7 32 9 57 9c35 0 76 -5 93 -10c10 83 53 323 71 427s55 340 73 423c-18 -5 -48 -10 -79 -10c-23 0 -46 3 -65 10l6 18c19 -9 46 -12 74 -12c26 0 52 3 76 8c0 0 -53 -301 -76 -437z
" />
    <glyph glyph-name="asciicircum" unicode="^" horiz-adv-x="196" 
d="M112 598h14c30 -53 49 -87 57 -107l-15 -5c-7 15 -25 52 -54 95c-49 -56 -92 -93 -92 -93l-6 8c19 16 62 55 96 102z" />
    <glyph glyph-name="underscore" unicode="_" horiz-adv-x="158" 
d="M-11 -24h179l-2 -12h-179z" />
    <glyph glyph-name="grave" unicode="`" horiz-adv-x="174" 
d="M47 600l14 8c35 -62 64 -94 81 -113l-5 -7s-41 32 -90 112z" />
    <glyph glyph-name="a" unicode="a" horiz-adv-x="318" 
d="M195 371l17 85h20c-28 -150 -62 -318 -62 -399c0 -31 5 -49 17 -49c35 0 76 91 131 235c4 0 8 -2 8 -6v-2c-61 -160 -95 -240 -141 -240c-23 0 -32 27 -32 74c0 32 4 73 11 120c-36 -112 -79 -194 -130 -194c-37 0 -52 47 -52 111c0 138 70 353 154 353
c43 0 57 -43 59 -88zM135 451c-68 0 -137 -225 -137 -355c0 -54 12 -91 40 -91c62 0 147 243 147 348c0 59 -17 98 -50 98z" />
    <glyph glyph-name="b" unicode="b" horiz-adv-x="319" 
d="M81 5c35 0 67 43 91 102c-83 7 -115 83 -115 162c0 92 43 190 97 190c56 0 80 -63 80 -142c0 -64 -15 -139 -40 -200c49 5 95 47 125 126c4 0 8 -2 8 -6v-2c-29 -77 -78 -125 -137 -128c-28 -65 -68 -112 -113 -112c-58 0 -79 80 -79 190c0 236 88 602 148 602
c14 0 23 -14 23 -40c0 -94 -106 -376 -147 -483c-3 -33 -4 -65 -4 -94c0 -96 17 -165 63 -165zM153 451c-40 0 -79 -97 -79 -187c0 -73 27 -142 102 -147c23 63 38 141 38 206c0 72 -18 128 -61 128zM158 753c0 17 -3 25 -13 25c-34 0 -98 -258 -120 -473
c41 107 133 357 133 448z" />
    <glyph glyph-name="c" unicode="c" horiz-adv-x="245" 
d="M245 243c4 0 8 -2 8 -6v-2c-59 -153 -92 -240 -178 -240c-60 0 -84 68 -84 152c0 135 63 312 138 312c38 0 57 -40 57 -90c0 -43 -13 -94 -40 -135l-18 12c31 47 44 95 44 132c0 43 -17 73 -44 73c-60 0 -118 -172 -118 -303c0 -78 21 -141 76 -143c67 5 100 83 159 238z
" />
    <glyph glyph-name="d" unicode="d" horiz-adv-x="324" 
d="M272 787h16c-31 -168 -119 -617 -119 -711c0 -52 10 -68 24 -68c35 0 76 91 131 235c4 0 9 -2 9 -7v-2c-61 -160 -96 -239 -142 -239c-27 0 -39 27 -39 81c0 22 5 67 13 124c-36 -114 -75 -205 -131 -205c-37 0 -52 47 -52 111c0 138 70 353 154 353c37 0 55 -32 61 -71
c22 128 61 327 75 399zM135 451c-68 0 -137 -225 -137 -355c0 -54 12 -91 40 -91c44 0 101 126 138 264l9 50c1 10 2 21 2 32c0 51 -15 100 -52 100z" />
    <glyph glyph-name="e" unicode="e" horiz-adv-x="244" 
d="M84 5c71 0 128 154 160 238c4 0 8 -2 8 -6v-2c-30 -80 -84 -240 -170 -240c-66 0 -92 69 -92 154c0 136 67 312 146 312c27 0 40 -17 40 -42c0 -49 -50 -128 -154 -179l-3 -2c-6 -34 -10 -68 -10 -100c0 -75 21 -133 75 -133zM135 450c-46 0 -91 -95 -113 -198
c95 57 136 130 136 169c0 18 -8 29 -23 29z" />
    <glyph glyph-name="f" unicode="f" horiz-adv-x="161" 
d="M10 -232c-28 0 -51 20 -51 103c0 217 97 706 151 853c15 42 37 63 52 63c14 0 23 -14 23 -40c0 -105 -142 -465 -170 -534c-9 -56 -17 -110 -23 -161c28 11 122 68 169 191c4 0 8 -2 8 -6v-2c-41 -105 -125 -173 -169 -190c59 -39 82 -100 82 -155
c0 -65 -32 -122 -72 -122zM7 -222c30 0 59 52 59 114c0 51 -20 109 -76 149c-8 -68 -16 -131 -16 -177c0 -52 11 -86 33 -86zM174 753c0 17 -3 25 -13 25c-34 0 -87 -233 -136 -509c37 93 149 386 149 484z" />
    <glyph glyph-name="g" unicode="g" horiz-adv-x="305" 
d="M305 243h2c3 0 6 -2 6 -6v-2c-46 -120 -110 -195 -168 -256l-38 -213c-8 -44 -33 -70 -64 -70c-24 0 -43 25 -43 63c0 84 60 145 123 212c13 72 26 149 38 221c-34 -110 -72 -197 -127 -197c-37 0 -52 47 -52 111c0 138 70 353 154 353c37 0 55 -33 60 -72l14 69h22
c-11 -44 -52 -271 -85 -459c55 60 115 134 158 246zM135 451c-68 0 -137 -225 -137 -355c0 -54 12 -91 40 -91c45 0 101 130 138 272l8 41c1 11 2 22 2 33c0 51 -14 100 -51 100zM15 -219c-2 -9 -2 -17 -2 -24c0 -35 14 -51 32 -51c21 0 36 23 43 62l32 185
c-52 -55 -95 -104 -105 -172z" />
    <glyph glyph-name="h" unicode="h" horiz-adv-x="311" 
d="M-18 105c29 221 85 682 169 682c14 0 23 -14 23 -40c0 -103 -127 -432 -157 -508c-4 -25 -8 -50 -11 -75c44 131 114 295 175 295c26 0 44 -25 44 -63c0 -75 -75 -256 -75 -338c0 -29 9 -50 27 -50c34 0 90 120 134 235c4 0 8 -2 8 -6v-2c-44 -114 -96 -240 -144 -240
c-31 0 -45 24 -45 64c0 77 76 280 76 337c0 36 -10 52 -30 52c-46 0 -132 -196 -176 -324c-5 -43 -11 -84 -17 -124h-21s7 50 20 105zM163 753c0 17 -3 25 -13 25c-44 0 -97 -297 -126 -489c37 96 139 369 139 464z" />
    <glyph glyph-name="i" unicode="i" 
d="M56 558c0 7 2 18 12 18c9 0 13 -7 13 -15c0 -10 -5 -17 -13 -17c-9 0 -12 6 -12 14zM40 456h20c-28 -150 -62 -318 -62 -399c0 -31 5 -49 17 -49c35 0 76 91 131 235c4 0 8 -2 8 -6v-2c-61 -160 -95 -240 -141 -240c-23 0 -32 30 -32 78c0 89 31 242 59 383z" />
    <glyph glyph-name="j" unicode="j" horiz-adv-x="151" 
d="M151 243h2c3 0 6 -2 6 -6v-2c-46 -120 -111 -195 -168 -257l-38 -212c-8 -44 -33 -70 -64 -70c-24 0 -43 25 -43 63c0 84 62 144 124 212c18 102 36 213 53 307c-4 -14 -9 -28 -15 -43c0 0 -9 0 -9 5c0 1 1 2 1 3c44 115 48 166 57 213h20c-11 -44 -51 -271 -83 -460
c55 61 114 134 157 247zM-139 -219c-2 -9 -2 -17 -2 -24c0 -35 14 -51 32 -51c46 0 56 132 76 248c-52 -56 -95 -105 -106 -173zM74 562c1 8 4 14 12 14c9 0 13 -7 13 -15c0 -10 -5 -17 -13 -17c-9 0 -12 6 -12 14v4z" />
    <glyph glyph-name="k" unicode="k" horiz-adv-x="251" 
d="M117 8c34 0 90 120 134 235c4 0 9 -2 9 -7v-2c-44 -114 -97 -239 -145 -239c-53 0 -52 151 -81 191c-5 -1 -10 -2 -15 -2c-4 0 -7 1 -9 2c0 -2 -1 -4 -2 -6c-8 -62 -16 -123 -25 -180h-22c38 193 95 787 190 787c14 0 23 -14 23 -40c0 -103 -128 -432 -158 -508l-3 -22
c52 133 101 242 158 242c18 0 26 -12 26 -31c0 -64 -85 -204 -152 -237c34 -47 42 -183 72 -183zM163 753c0 17 -3 25 -13 25c-45 0 -100 -309 -129 -506c32 87 143 382 142 481zM166 448c-36 0 -90 -84 -149 -242h4c6 0 11 -2 16 -6c63 27 144 172 144 227
c0 13 -5 21 -15 21z" />
    <glyph glyph-name="l" unicode="l" horiz-adv-x="159" 
d="M28 8c35 0 76 91 131 235c4 0 9 -2 9 -7v-2c-61 -160 -96 -239 -142 -239c-25 0 -35 44 -35 112c0 168 62 482 112 617c16 42 36 63 52 63s23 -14 23 -38c0 -172 -139 -460 -160 -503c-8 -61 -13 -116 -13 -157c0 -50 7 -81 23 -81zM167 749c0 20 -5 29 -12 29
c-38 0 -100 -275 -131 -493c32 65 143 304 143 464z" />
    <glyph glyph-name="m" unicode="m" horiz-adv-x="412" 
d="M106 0h-22c24 110 73 355 73 398c0 21 0 52 -22 52c-34 0 -83 -113 -121 -224c-21 -111 -43 -222 -44 -226h-22c0 4 69 323 88 456h21c-1 -10 -14 -80 -30 -161c35 94 73 166 115 166c23 -2 32 -25 32 -63c0 -24 -5 -66 -13 -114c30 103 72 177 121 177
c26 0 44 -27 44 -65c0 -75 -75 -269 -75 -351c0 -25 9 -37 27 -37c42 0 90 120 134 235c4 0 8 -2 8 -6v-2c-44 -114 -90 -240 -144 -240c-31 0 -45 19 -45 51c0 77 76 293 76 350c0 36 -10 55 -30 55c-41 0 -95 -106 -128 -241c-15 -85 -34 -171 -43 -210z" />
    <glyph glyph-name="n" unicode="n" horiz-adv-x="298" 
d="M212 396c0 -75 -75 -266 -75 -348c0 -24 9 -40 27 -40c41 0 90 120 134 235c4 0 8 -2 8 -6v-2c-44 -114 -89 -240 -144 -240c-31 0 -45 22 -45 54c0 77 76 290 76 347c0 36 -8 54 -30 54c-51 0 -116 -140 -158 -261l-34 -189h-22c4 28 15 80 32 140c19 103 44 245 50 316
h21c-1 -12 -18 -109 -37 -211c42 111 98 216 153 216c29 0 44 -27 44 -65z" />
    <glyph glyph-name="o" unicode="o" horiz-adv-x="323" 
d="M323 243c4 0 8 -2 8 -6v-2c-29 -77 -78 -125 -137 -128c-28 -65 -68 -112 -113 -112c-62 0 -89 74 -89 162c0 57 11 120 31 174l19 -4c-20 -55 -32 -121 -32 -178c0 -80 23 -144 75 -144c35 0 67 43 91 102c-91 6 -126 82 -126 162c0 92 47 190 108 190
c56 0 80 -63 80 -142c0 -64 -15 -139 -40 -200c49 5 95 47 125 126zM157 451c-49 0 -91 -94 -91 -183c0 -75 31 -147 114 -151c23 63 38 141 38 206c0 72 -18 128 -61 128z" />
    <glyph glyph-name="p" unicode="p" horiz-adv-x="303" 
d="M-36 -9l5 -10c-12 -36 -37 -153 -46 -216c20 139 100 593 107 691h22l-25 -159c31 93 72 164 119 164c46 0 65 -54 65 -125c0 -113 -50 -272 -120 -324c71 23 162 99 212 231c4 0 8 -2 8 -6v-2c-59 -153 -180 -240 -266 -240h-1c-37 0 -52 30 -56 68l-61 -362h-27
c19 97 41 220 64 290zM45 5c78 0 148 208 148 340c0 61 -15 106 -51 106c-42 0 -96 -104 -127 -226l-18 -109c0 -6 -1 -12 -1 -18c0 -49 12 -93 49 -93zM-79 -247c0 3 1 7 2 12c-1 -5 -2 -8 -2 -12zM-83 -274c0 2 1 7 2 14c-1 -6 -2 -12 -2 -14z" />
    <glyph glyph-name="q" unicode="q" horiz-adv-x="307" 
d="M213 456h20c-24 -128 -67 -302 -95 -442c81 70 131 131 169 229c4 0 8 -2 8 -6v-2c-34 -90 -95 -170 -176 -227c41 -40 59 -110 59 -173c0 -86 -21 -139 -61 -139c-31 0 -45 36 -45 98c0 84 24 212 54 351c-31 -87 -65 -150 -112 -150c-37 0 -52 47 -52 111
c0 138 70 353 154 353c39 0 56 -35 61 -77zM135 451c-68 0 -137 -225 -137 -355c0 -54 12 -91 40 -91c54 0 110 159 147 322c1 8 1 16 1 25c0 51 -14 99 -51 99zM113 -126c-3 -25 -6 -54 -6 -82c0 -59 12 -86 30 -86c31 0 43 49 43 126c0 62 -13 129 -45 168
c-10 -48 -17 -91 -22 -126z" />
    <glyph glyph-name="r" unicode="r" horiz-adv-x="232" 
d="M61 597l18 -3c2 -54 -8 -98 -17 -145l-2 -9c16 -44 65 -89 65 -166c0 -83 -48 -162 -48 -231c0 -23 10 -35 24 -35c35 0 76 91 131 235c4 0 8 -2 8 -6v-2c-61 -160 -95 -240 -141 -240c-27 0 -40 20 -40 57c0 72 48 146 48 222c0 65 -33 105 -50 149
c-14 -68 -31 -140 -49 -188c0 0 -9 0 -9 5c0 1 1 2 1 3c21 55 37 134 49 205c-6 48 1 105 12 149z" />
    <glyph glyph-name="s" unicode="s" horiz-adv-x="224" 
d="M47 5h2h2c53 2 85 57 85 117c0 82 -46 175 -62 307c-21 -70 -47 -145 -66 -194c0 0 -9 0 -9 5c0 1 1 2 1 3c21 56 50 143 71 217c-1 15 0 30 0 44c0 40 7 74 14 93l16 -2v-7c0 -31 -5 -82 -20 -135c9 -118 75 -248 75 -331c0 -15 -2 -29 -6 -42c23 39 46 93 73 163
c4 0 8 -2 8 -6v-2c-59 -153 -100 -240 -186 -240h-1c-51 0 -76 38 -76 76c0 13 3 27 9 39l15 -7c-6 -10 -8 -22 -8 -33c0 -33 21 -65 63 -65z" />
    <glyph glyph-name="t" unicode="t" horiz-adv-x="164" 
d="M33 8c35 0 76 91 131 235c4 0 8 -2 8 -6v-2c-61 -160 -95 -240 -141 -240c-28 0 -40 48 -40 119c0 91 18 218 43 333h-60l2 9h60c28 123 62 243 97 243c13 0 23 -14 23 -38c0 -52 -29 -134 -53 -205h46l-2 -9h-47c-34 -96 -71 -185 -82 -211c-7 -54 -11 -103 -11 -142
c0 -52 7 -86 26 -86zM144 657c0 4 1 7 1 11c0 13 -4 22 -12 22c-20 0 -53 -119 -77 -234h34c23 69 45 144 54 201zM87 447h-33c-12 -58 -24 -119 -32 -177c13 33 40 101 65 177z" />
    <glyph glyph-name="u" unicode="u" horiz-adv-x="297" 
d="M41 456h20c-28 -149 -65 -310 -65 -393c0 -36 7 -56 24 -56c40 0 103 117 132 242c11 66 25 137 39 207h20c-28 -150 -62 -318 -62 -399c0 -31 5 -49 17 -49c35 0 76 91 131 235c4 0 8 -2 8 -6v-2c-61 -160 -95 -240 -141 -240c-23 0 -32 30 -32 78c0 25 3 56 7 90
c-34 -96 -84 -168 -122 -168c-26 0 -36 32 -36 81c0 89 32 238 60 380z" />
    <glyph glyph-name="v" unicode="v" horiz-adv-x="289" 
d="M289 243c3 0 8 -2 8 -6v-2c-24 -64 -62 -98 -94 -98c-18 0 -32 10 -44 28c-33 -80 -69 -145 -93 -165h-14c-9 120 -16 224 -19 310c-6 -23 -15 -48 -25 -75c0 0 -9 0 -9 5c0 1 1 2 1 3c15 40 25 73 32 100c0 43 1 80 5 113h21c1 -4 2 -10 2 -17c0 -10 -1 -23 -4 -35
l-6 -26c4 -72 12 -220 18 -362c32 44 61 101 84 161c-17 34 -25 87 -25 141c0 100 28 206 77 206c18 0 31 -20 31 -56c0 -83 -33 -196 -71 -291c11 -19 25 -30 43 -30c26 0 58 33 82 96zM216 470c0 33 -6 44 -16 44c-37 0 -61 -101 -61 -197c0 -48 6 -94 19 -126
c35 95 58 197 58 279z" />
    <glyph glyph-name="w" unicode="w" horiz-adv-x="401" 
d="M41 456h20c-28 -150 -61 -318 -61 -399c0 -31 4 -49 16 -49c39 0 106 112 136 241c11 66 25 137 39 207h20c-28 -150 -62 -318 -62 -399c0 -31 5 -49 17 -49c23 0 62 77 96 172c-7 21 -12 51 -12 94c0 187 32 250 68 250c16 0 29 -21 29 -56c0 -85 -30 -202 -68 -298
c10 -17 24 -23 39 -23c26 0 58 32 83 96c3 0 8 -2 8 -6v-2c-24 -64 -62 -98 -94 -98c-16 0 -30 5 -41 20c-38 -92 -82 -162 -110 -162c-23 0 -32 30 -32 78c0 25 3 56 7 90c-34 -96 -84 -168 -122 -168c-26 0 -36 32 -36 81c0 89 32 238 60 380zM328 470c0 25 -6 44 -15 44
c-27 0 -53 -77 -53 -240c0 -34 3 -59 8 -78c33 96 60 207 60 274z" />
    <glyph glyph-name="x" unicode="x" horiz-adv-x="322" 
d="M11 172l17 -12c-24 -27 -41 -76 -41 -112c0 -25 8 -43 29 -43c45 0 89 101 134 208c6 58 14 118 14 163c0 44 -8 75 -31 75c-34 0 -65 -61 -125 -216c0 0 -9 0 -9 5c0 1 1 2 1 3c56 144 88 218 134 218c38 0 49 -50 49 -117c0 -19 -1 -39 -2 -59c36 94 73 176 121 176
c12 0 21 -5 25 -11l-8 -11s-8 8 -18 8c-47 0 -84 -94 -123 -196c-6 -70 -16 -142 -16 -189c0 -33 5 -54 19 -54c35 0 86 91 141 235c4 0 8 -2 8 -6v-2c-61 -160 -105 -240 -151 -240c-30 0 -39 36 -39 89c0 27 2 58 6 91c-42 -96 -84 -180 -131 -180c-32 0 -45 26 -45 59
c0 39 17 87 41 118z" />
    <glyph glyph-name="y" unicode="y" horiz-adv-x="286" 
d="M286 243h2c3 0 6 -2 6 -6v-2c-46 -120 -110 -195 -168 -256l-38 -213c-8 -44 -33 -70 -64 -70c-24 0 -43 25 -43 63c0 83 61 145 123 212c11 60 22 123 32 185c-34 -93 -82 -161 -119 -161c-26 0 -36 32 -36 81c0 89 32 238 60 380h20c-28 -149 -65 -310 -65 -393
c0 -36 7 -55 24 -55c41 0 106 120 134 249c14 83 28 154 37 199h22c-11 -44 -52 -271 -85 -459c55 60 115 134 158 246zM-4 -219c-2 -9 -2 -17 -2 -24c0 -35 14 -51 32 -51c21 0 36 23 43 62l32 185c-52 -55 -95 -104 -105 -172z" />
    <glyph glyph-name="z" unicode="z" horiz-adv-x="285" 
d="M37 -5l-2 20c4 2 12 3 19 3c4 0 8 0 12 -1c48 40 99 213 99 328c0 60 -14 105 -51 105c-45 0 -64 -106 -106 -215c0 0 -9 0 -9 5c0 1 1 2 1 3c43 115 59 218 116 218c48 0 69 -57 69 -131c0 -110 -46 -260 -110 -317c14 -10 24 -28 32 -49c57 66 127 145 178 279h2
c3 0 6 -2 6 -6v-2c-53 -138 -125 -216 -183 -282c8 -29 12 -61 12 -91c0 -91 -36 -164 -79 -164c-24 0 -43 25 -43 63c0 75 47 134 97 191c-6 25 -15 46 -30 54c-8 -6 -20 -9 -30 -11zM100 -183c2 17 4 38 4 61c0 21 -2 42 -5 62c-46 -54 -86 -109 -86 -181
c0 -35 14 -51 32 -51c27 0 46 47 55 109z" />
    <glyph glyph-name="braceleft" unicode="{" horiz-adv-x="167" 
d="M49 331l3 18h7c7 0 15 -1 22 -4c90 50 -35 428 144 428c7 0 15 -1 20 -4l-4 -16c-6 2 -12 3 -17 3c-146 -1 -46 -352 -136 -416c9 -9 12 -22 12 -39c0 -81 -81 -242 -81 -327c0 -34 13 -55 48 -55c6 0 12 1 19 3l2 -17c-4 -2 -18 -3 -25 -3c-47 0 -63 26 -63 65
c0 93 91 259 91 334c0 15 -4 27 -13 33c-7 -2 -16 -3 -24 -3h-5z" />
    <glyph glyph-name="bar" unicode="|" horiz-adv-x="141" 
d="M143 721h13c-38 -225 -77 -442 -132 -721h-12c44 252 93 499 131 721z" />
    <glyph glyph-name="braceright" unicode="}" horiz-adv-x="195" 
d="M168 344l-3 -18c-3 0 -5 -1 -8 -1c-7 0 -14 2 -21 4c-91 -50 35 -427 -144 -427c-7 0 -15 1 -20 4l4 16c6 -2 12 -3 17 -3c145 1 46 351 135 416c-9 8 -12 21 -12 38c0 80 82 243 82 328c0 33 -13 55 -48 55c-6 0 -12 -1 -19 -3l-2 17c4 2 18 3 25 3c46 0 62 -26 62 -65
c0 -93 -91 -260 -91 -335c0 -15 4 -27 13 -33c6 2 16 4 24 4h6z" />
    <glyph glyph-name="asciitilde" unicode="~" horiz-adv-x="390" 
d="M12 280l-18 17c28 36 63 46 101 46c63 0 132 -28 186 -28c59 0 81 14 104 34l22 -30c-26 -24 -55 -36 -95 -36c-71 0 -146 40 -211 40c-34 0 -64 -10 -89 -43z" />
    <glyph glyph-name="Adieresis" unicode="&#xc4;" horiz-adv-x="1010" 
d="M559 400c85 -1 169 -25 234 -74c90 232 156 469 243 558l22 -10c-81 -339 -131 -644 -131 -873c0 -262 65 -424 224 -424c96 0 145 54 179 136l18 -6c-37 -93 -100 -141 -186 -141c-189 0 -255 171 -255 429c0 17 1 34 1 52c0 118 -39 201 -105 257
c-103 -277 -238 -536 -506 -536c-247 0 -364 180 -364 367c0 205 139 418 401 418c124 0 197 -68 225 -153zM188 152c36 156 194 243 354 247c-27 82 -96 146 -211 146c-244 0 -377 -210 -377 -410c0 -183 110 -357 347 -357c243 0 382 264 488 538c-63 48 -144 70 -227 71
c6 -23 9 -46 9 -70c0 -109 -62 -223 -175 -260l-7 15c108 36 165 143 165 246c0 23 -3 46 -9 68c-154 -5 -307 -89 -340 -238zM1029 858c-86 -122 -145 -336 -222 -543c53 -44 91 -105 105 -186c15 213 61 467 117 729zM1012 960c0 8 5 17 13 17s12 -6 12 -15
c0 -8 -4 -17 -13 -17c-8 0 -12 6 -12 15zM1102 960c0 8 5 17 13 17s12 -6 12 -15c0 -8 -4 -17 -13 -17c-8 0 -12 6 -12 15z" />
    <glyph glyph-name="Aring" unicode="&#xc5;" horiz-adv-x="1010" 
d="M559 400c85 -1 169 -25 234 -74c88 227 153 460 238 553c-16 8 -23 25 -23 44c0 32 22 69 61 69c31 0 45 -23 45 -49c0 -32 -21 -67 -57 -69h1c-81 -339 -131 -644 -131 -873c0 -262 65 -424 224 -424c96 0 145 54 179 136l18 -6c-37 -93 -100 -141 -186 -141
c-189 0 -255 171 -255 429c0 17 1 34 1 52c0 118 -39 201 -105 257c-103 -277 -238 -536 -506 -536c-247 0 -364 180 -364 367c0 205 139 418 401 418c124 0 197 -68 225 -153zM188 152c36 156 194 243 354 247c-27 82 -96 146 -211 146c-244 0 -377 -210 -377 -410
c0 -183 110 -357 347 -357c243 0 382 264 488 538c-63 48 -144 70 -227 71c6 -23 9 -46 9 -70c0 -109 -62 -223 -175 -260l-7 15c108 36 165 143 165 246c0 23 -3 46 -9 68c-154 -5 -307 -89 -340 -238zM1029 858c-86 -122 -145 -336 -222 -543c53 -44 91 -105 105 -186
c15 213 61 467 117 729zM1069 984c-31 0 -50 -34 -50 -62c0 -22 11 -41 34 -41c31 0 49 34 49 63c0 21 -10 40 -33 40z" />
    <glyph glyph-name="Ccedilla" unicode="&#xc7;" horiz-adv-x="932" 
d="M573 -315l-11 12c22 22 31 37 42 72c-145 6 -201 170 -201 371c-11 0 -23 -1 -34 -1c-236 0 -339 143 -339 280c0 125 86 244 233 244c39 0 70 -13 86 -26l-12 -19c-19 16 -43 25 -73 25c-138 0 -217 -110 -217 -226c0 -130 99 -268 322 -268c11 0 23 1 34 1
c6 324 167 735 387 735c95 0 140 -76 140 -180c0 -209 -183 -530 -506 -563v-21c0 -188 54 -339 183 -342c41 151 20 408 161 408c65 0 96 -58 96 -131c0 -122 -87 -286 -249 -288c-7 -21 -15 -40 -26 -55c11 4 24 6 39 6c46 0 69 -28 69 -57c0 -34 -30 -70 -86 -70
c-46 0 -68 19 -76 50l22 6c5 -21 20 -46 57 -46s61 33 61 63c0 23 -15 44 -49 44c-33 0 -37 -8 -53 -24zM790 875c-204 0 -356 -405 -366 -723c317 34 485 351 485 554c0 98 -39 169 -119 169zM778 176h-10c-118 0 -106 -252 -149 -398c150 6 227 165 227 281
c0 62 -22 112 -68 117z" />
    <glyph glyph-name="Eacute" unicode="&#xc9;" horiz-adv-x="590" 
d="M396 406l-2 -19c-3 -1 -7 -2 -12 -2c-15 0 -29 3 -42 8c-183 -31 -278 -207 -278 -362c0 -134 70 -253 214 -253c161 0 241 165 241 297c0 86 -34 158 -103 158c-76 0 -119 -80 -119 -159c0 -33 8 -66 23 -93l-16 -9c-16 27 -24 62 -24 97c0 85 47 174 136 174
c82 0 123 -80 123 -174c0 -135 -87 -301 -265 -301c-150 0 -228 128 -228 269c0 155 92 325 282 363c-28 17 -49 47 -63 83c-29 -5 -60 -8 -94 -8c-213 0 -301 102 -301 194c0 75 59 144 155 144c69 0 124 -39 153 -88l-19 -13c-25 50 -74 91 -134 91
c-87 0 -137 -61 -137 -129c0 -88 84 -189 283 -189c33 0 63 3 91 8c-12 36 -18 77 -18 119c0 133 59 274 179 274c71 0 111 -53 111 -128c0 -101 -77 -233 -252 -272c15 -39 37 -69 68 -82c11 2 24 4 36 4c5 0 9 -1 12 -2zM440 875c-5 0 -10 1 -15 1
c-113 0 -167 -135 -167 -262c0 -42 6 -82 18 -117c167 39 237 170 237 267c0 59 -27 106 -73 111zM502 1048l13 -8c-49 -80 -89 -112 -89 -112l-5 6c17 19 46 52 81 114z" />
    <glyph glyph-name="Ntilde" unicode="&#xd1;" horiz-adv-x="996" 
d="M870 -227h-29c-1 12 -2 27 -2 41c0 23 1 46 2 64v10c-26 120 -95 282 -157 440c-50 -257 -204 -555 -444 -555c-151 0 -223 132 -223 272c0 156 91 322 264 322c104 0 168 -92 168 -186c0 -43 -13 -86 -42 -121l-15 12c28 37 41 77 41 115c0 90 -68 170 -153 170
c-157 0 -244 -165 -244 -318c0 -133 65 -256 208 -256c221 0 386 293 432 564c-59 152 -109 297 -109 397c0 41 18 64 41 64c51 0 93 -124 93 -313c0 -39 -4 -82 -10 -126c55 -142 117 -295 152 -422c28 563 200 950 422 950c69 0 119 -36 131 -69l-18 -9
c-11 38 -60 62 -122 62c-201 0 -382 -388 -402 -973l7 -33c4 -20 9 -74 9 -97v-5zM689 491c0 176 -39 307 -81 307c-20 0 -27 -21 -27 -52c0 -80 46 -211 101 -354c4 34 7 67 7 99zM813 836l-9 8c14 18 31 23 50 23c31 0 65 -14 92 -14c29 0 40 7 51 17l11 -15
c-13 -12 -27 -18 -47 -18c-35 0 -72 20 -104 20c-17 0 -32 -5 -44 -21z" />
    <glyph glyph-name="Odieresis" unicode="&#xd6;" horiz-adv-x="1116" 
d="M930 849l-6 -12c73 -40 106 -161 106 -307c0 -316 -155 -752 -399 -752c-148 0 -206 164 -206 364c322 34 505 355 505 563c0 104 -45 180 -140 180c-220 0 -382 -411 -384 -735c-12 -1 -25 -1 -37 -1c-223 0 -322 138 -322 268c0 116 79 226 217 226c30 0 56 -7 78 -22
l12 17c-30 18 -53 25 -91 25c-147 0 -233 -119 -233 -244c0 -137 103 -280 339 -280c12 0 25 0 37 1c1 -204 67 -372 226 -372c258 0 419 436 419 757c0 156 -38 285 -121 324zM790 875c80 0 119 -71 119 -169c0 -203 -168 -520 -484 -554c5 318 160 723 365 723zM782 950
c0 8 5 17 13 17s12 -6 12 -15c0 -8 -4 -17 -13 -17c-8 0 -12 6 -12 15zM882 950c0 8 5 17 13 17s12 -6 12 -15c0 -8 -4 -17 -13 -17c-8 0 -12 6 -12 15z" />
    <glyph glyph-name="Udieresis" unicode="&#xdc;" horiz-adv-x="779" 
d="M899 -33l-18 3c-17 -138 -70 -193 -128 -193c-57 0 -93 55 -93 183c0 137 41 327 69 490c35 205 54 278 72 325l38 100l-27 11c-54 -161 -111 -443 -146 -668c-30 -135 -136 -440 -237 -440c-61 0 -80 55 -80 137c0 169 118 480 118 668c0 160 -122 301 -291 301
c-236 0 -361 -183 -361 -352c0 -144 91 -278 283 -278c188 0 258 170 258 299c0 10 0 20 -1 30l-18 -4c1 -11 2 -23 2 -35c0 -123 -64 -280 -242 -280c-179 0 -266 131 -266 272c0 163 116 338 342 338c164 0 274 -142 274 -291c0 -165 -118 -502 -118 -670
c0 -92 31 -145 100 -145c87 0 176 195 223 358c-7 -57 -12 -110 -12 -157c0 -150 43 -202 115 -202c67 0 121 52 144 200zM612 950c0 8 5 17 13 17s12 -6 12 -15c0 -8 -4 -17 -13 -17c-8 0 -12 6 -12 15zM712 950c0 8 5 17 13 17s12 -6 12 -15c0 -8 -4 -17 -13 -17
c-8 0 -12 6 -12 15z" />
    <glyph glyph-name="aacute" unicode="&#xe1;" horiz-adv-x="318" 
d="M195 371l17 85h20c-28 -150 -62 -318 -62 -399c0 -31 5 -49 17 -49c35 0 76 91 131 235c4 0 8 -2 8 -6v-2c-61 -160 -95 -240 -141 -240c-23 0 -32 27 -32 74c0 32 4 73 11 120c-36 -112 -79 -194 -130 -194c-37 0 -52 47 -52 111c0 138 70 353 154 353
c43 0 57 -43 59 -88zM135 451c-68 0 -137 -225 -137 -355c0 -54 12 -91 40 -91c62 0 147 243 147 348c0 59 -17 98 -50 98zM202 608l13 -8c-49 -80 -89 -112 -89 -112l-5 6c17 19 46 52 81 114z" />
    <glyph glyph-name="agrave" unicode="&#xe0;" horiz-adv-x="318" 
d="M212 456l-17 -85c-2 45 -16 88 -59 88c-84 0 -154 -215 -154 -353c0 -64 15 -111 52 -111c51 0 94 82 130 194c-7 -47 -11 -88 -11 -120c0 -47 9 -74 32 -74c46 0 80 80 141 240v2c0 4 -4 6 -8 6c-55 -144 -96 -235 -131 -235c-12 0 -17 18 -17 49c0 81 34 249 62 399
h-20zM135 451c33 0 50 -39 50 -98c0 -105 -85 -348 -147 -348c-28 0 -40 37 -40 91c0 130 69 355 137 355zM47 600l14 8c35 -62 64 -94 81 -113l-5 -7s-41 32 -90 112z" />
    <glyph glyph-name="acircumflex" unicode="&#xe2;" horiz-adv-x="318" 
d="M212 456l-17 -85c-2 45 -16 88 -59 88c-84 0 -154 -215 -154 -353c0 -64 15 -111 52 -111c51 0 94 82 130 194c-7 -47 -11 -88 -11 -120c0 -47 9 -74 32 -74c46 0 80 80 141 240v2c0 4 -4 6 -8 6c-55 -144 -96 -235 -131 -235c-12 0 -17 18 -17 49c0 81 34 249 62 399
h-20zM135 451c33 0 50 -39 50 -98c0 -105 -85 -348 -147 -348c-28 0 -40 37 -40 91c0 130 69 355 137 355zM162 598h14c30 -53 49 -87 57 -107l-14 -7c-7 15 -26 55 -55 98c-40 -54 -92 -94 -92 -94l-7 7c27 22 63 56 97 103z" />
    <glyph glyph-name="adieresis" unicode="&#xe4;" horiz-adv-x="318" 
d="M212 456l-17 -85c-2 45 -16 88 -59 88c-84 0 -154 -215 -154 -353c0 -64 15 -111 52 -111c51 0 94 82 130 194c-7 -47 -11 -88 -11 -120c0 -47 9 -74 32 -74c46 0 80 80 141 240v2c0 4 -4 6 -8 6c-55 -144 -96 -235 -131 -235c-12 0 -17 18 -17 49c0 81 34 249 62 399
h-20zM135 451c33 0 50 -39 50 -98c0 -105 -85 -348 -147 -348c-28 0 -40 37 -40 91c0 130 69 355 137 355zM82 510c0 8 5 17 13 17s12 -6 12 -15c0 -8 -4 -17 -13 -17c-8 0 -12 6 -12 15zM182 510c0 8 5 17 13 17s12 -6 12 -15c0 -8 -4 -17 -13 -17c-8 0 -12 6 -12 15z" />
    <glyph glyph-name="atilde" unicode="&#xe3;" horiz-adv-x="318" 
d="M195 371l17 85h20c-28 -150 -62 -318 -62 -399c0 -31 5 -49 17 -49c35 0 76 91 131 235c4 0 8 -2 8 -6v-2c-61 -160 -95 -240 -141 -240c-23 0 -32 27 -32 74c0 32 4 73 11 120c-36 -112 -79 -194 -130 -194c-37 0 -52 47 -52 111c0 138 70 353 154 353
c43 0 57 -43 59 -88zM135 451c-68 0 -137 -225 -137 -355c0 -54 12 -91 40 -91c62 0 147 243 147 348c0 59 -17 98 -50 98zM63 506l-9 8c14 18 31 23 50 23c31 0 65 -14 92 -14c29 0 40 7 51 17l11 -15c-13 -12 -27 -18 -47 -18c-35 0 -72 20 -104 20c-17 0 -32 -5 -44 -21z
" />
    <glyph glyph-name="aring" unicode="&#xe5;" horiz-adv-x="318" 
d="M195 371l17 85h20c-28 -150 -62 -318 -62 -399c0 -31 5 -49 17 -49c35 0 76 91 131 235c4 0 8 -2 8 -6v-2c-61 -160 -95 -240 -141 -240c-23 0 -32 27 -32 74c0 32 4 73 11 120c-36 -112 -79 -194 -130 -194c-37 0 -52 47 -52 111c0 138 70 353 154 353
c43 0 57 -43 59 -88zM135 451c-68 0 -137 -225 -137 -355c0 -54 12 -91 40 -91c62 0 147 243 147 348c0 59 -17 98 -50 98zM134 452c-31 0 -45 23 -45 49c0 32 22 69 61 69c31 0 45 -23 45 -49c0 -33 -22 -69 -61 -69zM150 562c-31 0 -50 -34 -50 -62c0 -22 11 -41 34 -41
c31 0 49 34 49 63c0 21 -10 40 -33 40z" />
    <glyph glyph-name="ccedilla" unicode="&#xe7;" horiz-adv-x="245" 
d="M245 243c4 0 8 -2 8 -6v-2c-59 -153 -92 -240 -178 -240c-60 0 -84 68 -84 152c0 135 63 312 138 312c38 0 57 -40 57 -90c0 -43 -13 -94 -40 -135l-18 12c31 47 44 95 44 132c0 43 -17 73 -44 73c-60 0 -118 -172 -118 -303c0 -78 21 -141 76 -143c67 5 100 83 159 238z
M34 -100l-18 13c6 7 11 12 18 16c4 15 10 40 17 75l12 -5l-16 -64c12 4 26 7 41 7c46 0 69 -28 69 -57c0 -34 -30 -70 -86 -70c-46 0 -70 18 -77 45l23 11c8 -26 20 -46 57 -46s61 33 61 63c0 23 -15 44 -49 44c-20 0 -32 -5 -42 -10v-1c-2 -7 -5 -17 -10 -21z" />
    <glyph glyph-name="eacute" unicode="&#xe9;" horiz-adv-x="244" 
d="M84 5c71 0 128 154 160 238c4 0 8 -2 8 -6v-2c-30 -80 -84 -240 -170 -240c-66 0 -92 69 -92 154c0 136 67 312 146 312c27 0 40 -17 40 -42c0 -49 -50 -128 -154 -179l-3 -2c-6 -34 -10 -68 -10 -100c0 -75 21 -133 75 -133zM135 450c-46 0 -91 -95 -113 -198
c95 57 136 130 136 169c0 18 -8 29 -23 29zM182 608l13 -8c-49 -80 -89 -112 -89 -112l-5 6c17 19 46 52 81 114z" />
    <glyph glyph-name="egrave" unicode="&#xe8;" horiz-adv-x="244" 
d="M84 5c-54 0 -75 58 -75 133c0 32 4 66 10 100l3 2c104 51 154 130 154 179c0 25 -13 42 -40 42c-79 0 -146 -176 -146 -312c0 -85 26 -154 92 -154c86 0 140 160 170 240v2c0 4 -4 6 -8 6c-32 -84 -89 -238 -160 -238zM135 450c15 0 23 -11 23 -29
c0 -39 -41 -112 -136 -169c22 103 67 198 113 198zM47 600l14 8c35 -62 64 -94 81 -113l-5 -7s-41 32 -90 112z" />
    <glyph glyph-name="ecircumflex" unicode="&#xea;" horiz-adv-x="244" 
d="M84 5c-54 0 -75 58 -75 133c0 32 4 66 10 100l3 2c104 51 154 130 154 179c0 25 -13 42 -40 42c-79 0 -146 -176 -146 -312c0 -85 26 -154 92 -154c86 0 140 160 170 240v2c0 4 -4 6 -8 6c-32 -84 -89 -238 -160 -238zM135 450c15 0 23 -11 23 -29
c0 -39 -41 -112 -136 -169c22 103 67 198 113 198zM146 598h14c30 -53 49 -87 57 -107l-14 -7c-7 15 -26 55 -55 98c-40 -54 -92 -94 -92 -94l-7 7c27 22 63 56 97 103z" />
    <glyph glyph-name="edieresis" unicode="&#xeb;" horiz-adv-x="244" 
d="M84 5c-54 0 -75 58 -75 133c0 32 4 66 10 100l3 2c104 51 154 130 154 179c0 25 -13 42 -40 42c-79 0 -146 -176 -146 -312c0 -85 26 -154 92 -154c86 0 140 160 170 240v2c0 4 -4 6 -8 6c-32 -84 -89 -238 -160 -238zM135 450c15 0 23 -11 23 -29
c0 -39 -41 -112 -136 -169c22 103 67 198 113 198zM62 510c0 8 5 17 13 17s12 -6 12 -15c0 -8 -4 -17 -13 -17c-8 0 -12 6 -12 15zM162 510c0 8 5 17 13 17s12 -6 12 -15c0 -8 -4 -17 -13 -17c-8 0 -12 6 -12 15z" />
    <glyph glyph-name="iacute" unicode="&#xed;" 
d="M40 456h20c-28 -150 -62 -318 -62 -399c0 -31 5 -49 17 -49c35 0 76 91 131 235c4 0 8 -2 8 -6v-2c-61 -160 -95 -240 -141 -240c-23 0 -32 30 -32 78c0 89 31 242 59 383zM132 608l13 -8c-49 -80 -89 -112 -89 -112l-5 6c17 19 46 52 81 114z" />
    <glyph glyph-name="igrave" unicode="&#xec;" 
d="M60 456h-20c-28 -141 -59 -294 -59 -383c0 -48 9 -78 32 -78c46 0 80 80 141 240v2c0 4 -4 6 -8 6c-55 -144 -96 -235 -131 -235c-12 0 -17 18 -17 49c0 81 34 249 62 399zM-33 600l14 8c35 -62 64 -94 81 -113l-5 -7s-41 32 -90 112z" />
    <glyph glyph-name="icircumflex" unicode="&#xee;" 
d="M72 598h14c30 -53 49 -87 57 -107l-14 -7c-7 15 -26 55 -55 98c-40 -54 -92 -94 -92 -94l-7 7c27 22 63 56 97 103zM60 456h-20c-28 -141 -59 -294 -59 -383c0 -48 9 -78 32 -78c46 0 80 80 141 240v2c0 4 -4 6 -8 6c-55 -144 -96 -235 -131 -235c-12 0 -17 18 -17 49
c0 81 34 249 62 399z" />
    <glyph glyph-name="idieresis" unicode="&#xef;" 
d="M60 456h-20c-28 -141 -59 -294 -59 -383c0 -48 9 -78 32 -78c46 0 80 80 141 240v2c0 4 -4 6 -8 6c-55 -144 -96 -235 -131 -235c-12 0 -17 18 -17 49c0 81 34 249 62 399zM-8 510c0 8 5 17 13 17s12 -6 12 -15c0 -8 -4 -17 -13 -17c-8 0 -12 6 -12 15zM92 510
c0 8 5 17 13 17s12 -6 12 -15c0 -8 -4 -17 -13 -17c-8 0 -12 6 -12 15z" />
    <glyph glyph-name="ntilde" unicode="&#xf1;" horiz-adv-x="298" 
d="M212 396c0 -75 -75 -266 -75 -348c0 -24 9 -40 27 -40c41 0 90 120 134 235c4 0 8 -2 8 -6v-2c-44 -114 -89 -240 -144 -240c-31 0 -45 22 -45 54c0 77 76 290 76 347c0 36 -8 54 -30 54c-51 0 -116 -140 -158 -261l-34 -189h-22c4 28 15 80 32 140c19 103 44 245 50 316
h21c-1 -12 -18 -109 -37 -211c42 111 98 216 153 216c29 0 44 -27 44 -65zM63 506l-9 8c14 18 31 23 50 23c31 0 65 -14 92 -14c29 0 40 7 51 17l11 -15c-13 -12 -27 -18 -47 -18c-35 0 -72 20 -104 20c-17 0 -32 -5 -44 -21z" />
    <glyph glyph-name="oacute" unicode="&#xf3;" horiz-adv-x="323" 
d="M323 243c4 0 8 -2 8 -6v-2c-29 -77 -78 -125 -137 -128c-28 -65 -68 -112 -113 -112c-62 0 -89 74 -89 162c0 57 11 120 31 174l19 -4c-20 -55 -32 -121 -32 -178c0 -80 23 -144 75 -144c35 0 67 43 91 102c-91 6 -126 82 -126 162c0 92 47 190 108 190
c56 0 80 -63 80 -142c0 -64 -15 -139 -40 -200c49 5 95 47 125 126zM157 451c-49 0 -91 -94 -91 -183c0 -75 31 -147 114 -151c23 63 38 141 38 206c0 72 -18 128 -61 128zM222 608l13 -8c-49 -80 -89 -112 -89 -112l-5 6c17 19 46 52 81 114z" />
    <glyph glyph-name="ograve" unicode="&#xf2;" horiz-adv-x="323" 
d="M323 243c-30 -79 -76 -121 -125 -126c25 61 40 136 40 200c0 79 -24 142 -80 142c-61 0 -108 -98 -108 -190c0 -80 35 -156 126 -162c-24 -59 -56 -102 -91 -102c-52 0 -75 64 -75 144c0 57 12 123 32 178l-19 4c-20 -54 -31 -117 -31 -174c0 -88 27 -162 89 -162
c45 0 85 47 113 112c59 3 108 51 137 128v2c0 4 -4 6 -8 6zM157 451c43 0 61 -56 61 -128c0 -65 -15 -143 -38 -206c-83 4 -114 76 -114 151c0 89 42 183 91 183zM77 600l14 8c35 -62 64 -94 81 -113l-5 -7s-41 32 -90 112z" />
    <glyph glyph-name="ocircumflex" unicode="&#xf4;" horiz-adv-x="323" 
d="M323 243c-30 -79 -76 -121 -125 -126c25 61 40 136 40 200c0 79 -24 142 -80 142c-61 0 -108 -98 -108 -190c0 -80 35 -156 126 -162c-24 -59 -56 -102 -91 -102c-52 0 -75 64 -75 144c0 57 12 123 32 178l-19 4c-20 -54 -31 -117 -31 -174c0 -88 27 -162 89 -162
c45 0 85 47 113 112c59 3 108 51 137 128v2c0 4 -4 6 -8 6zM157 451c43 0 61 -56 61 -128c0 -65 -15 -143 -38 -206c-83 4 -114 76 -114 151c0 89 42 183 91 183zM172 598h14c30 -53 49 -87 57 -107l-14 -7c-7 15 -26 55 -55 98c-40 -54 -92 -94 -92 -94l-7 7
c27 22 63 56 97 103z" />
    <glyph glyph-name="odieresis" unicode="&#xf6;" horiz-adv-x="323" 
d="M323 243c-30 -79 -76 -121 -125 -126c25 61 40 136 40 200c0 79 -24 142 -80 142c-61 0 -108 -98 -108 -190c0 -80 35 -156 126 -162c-24 -59 -56 -102 -91 -102c-52 0 -75 64 -75 144c0 57 12 123 32 178l-19 4c-20 -54 -31 -117 -31 -174c0 -88 27 -162 89 -162
c45 0 85 47 113 112c59 3 108 51 137 128v2c0 4 -4 6 -8 6zM157 451c43 0 61 -56 61 -128c0 -65 -15 -143 -38 -206c-83 4 -114 76 -114 151c0 89 42 183 91 183zM102 510c0 8 5 17 13 17s12 -6 12 -15c0 -8 -4 -17 -13 -17c-8 0 -12 6 -12 15zM202 510c0 8 5 17 13 17
s12 -6 12 -15c0 -8 -4 -17 -13 -17c-8 0 -12 6 -12 15z" />
    <glyph glyph-name="otilde" unicode="&#xf5;" horiz-adv-x="323" 
d="M323 243c4 0 8 -2 8 -6v-2c-29 -77 -78 -125 -137 -128c-28 -65 -68 -112 -113 -112c-62 0 -89 74 -89 162c0 57 11 120 31 174l19 -4c-20 -55 -32 -121 -32 -178c0 -80 23 -144 75 -144c35 0 67 43 91 102c-91 6 -126 82 -126 162c0 92 47 190 108 190
c56 0 80 -63 80 -142c0 -64 -15 -139 -40 -200c49 5 95 47 125 126zM157 451c-49 0 -91 -94 -91 -183c0 -75 31 -147 114 -151c23 63 38 141 38 206c0 72 -18 128 -61 128zM83 506l-9 8c14 18 31 23 50 23c31 0 65 -14 92 -14c29 0 40 7 51 17l11 -15
c-13 -12 -27 -18 -47 -18c-35 0 -72 20 -104 20c-17 0 -32 -5 -44 -21z" />
    <glyph glyph-name="uacute" unicode="&#xfa;" horiz-adv-x="297" 
d="M41 456h20c-28 -149 -65 -310 -65 -393c0 -36 7 -56 24 -56c40 0 103 117 132 242c11 66 25 137 39 207h20c-28 -150 -62 -318 -62 -399c0 -31 5 -49 17 -49c35 0 76 91 131 235c4 0 8 -2 8 -6v-2c-61 -160 -95 -240 -141 -240c-23 0 -32 30 -32 78c0 25 3 56 7 90
c-34 -96 -84 -168 -122 -168c-26 0 -36 32 -36 81c0 89 32 238 60 380zM182 608l13 -8c-49 -80 -89 -112 -89 -112l-5 6c17 19 46 52 81 114z" />
    <glyph glyph-name="ugrave" unicode="&#xf9;" horiz-adv-x="297" 
d="M61 456h-20c-28 -142 -60 -291 -60 -380c0 -49 10 -81 36 -81c38 0 88 72 122 168c-4 -34 -7 -65 -7 -90c0 -48 9 -78 32 -78c46 0 80 80 141 240v2c0 4 -4 6 -8 6c-55 -144 -96 -235 -131 -235c-12 0 -17 18 -17 49c0 81 34 249 62 399h-20c-14 -70 -28 -141 -39 -207
c-29 -125 -92 -242 -132 -242c-17 0 -24 20 -24 56c0 83 37 244 65 393zM47 600l14 8c35 -62 64 -94 81 -113l-5 -7s-41 32 -90 112z" />
    <glyph glyph-name="ucircumflex" unicode="&#xfb;" horiz-adv-x="297" 
d="M61 456h-20c-28 -142 -60 -291 -60 -380c0 -49 10 -81 36 -81c38 0 88 72 122 168c-4 -34 -7 -65 -7 -90c0 -48 9 -78 32 -78c46 0 80 80 141 240v2c0 4 -4 6 -8 6c-55 -144 -96 -235 -131 -235c-12 0 -17 18 -17 49c0 81 34 249 62 399h-20c-14 -70 -28 -141 -39 -207
c-29 -125 -92 -242 -132 -242c-17 0 -24 20 -24 56c0 83 37 244 65 393zM142 598h14c30 -53 49 -87 57 -107l-14 -7c-7 15 -26 55 -55 98c-40 -54 -92 -94 -92 -94l-7 7c27 22 63 56 97 103z" />
    <glyph glyph-name="udieresis" unicode="&#xfc;" horiz-adv-x="297" 
d="M61 456h-20c-28 -142 -60 -291 -60 -380c0 -49 10 -81 36 -81c38 0 88 72 122 168c-4 -34 -7 -65 -7 -90c0 -48 9 -78 32 -78c46 0 80 80 141 240v2c0 4 -4 6 -8 6c-55 -144 -96 -235 -131 -235c-12 0 -17 18 -17 49c0 81 34 249 62 399h-20c-14 -70 -28 -141 -39 -207
c-29 -125 -92 -242 -132 -242c-17 0 -24 20 -24 56c0 83 37 244 65 393zM72 510c0 8 5 17 13 17s12 -6 12 -15c0 -8 -4 -17 -13 -17c-8 0 -12 6 -12 15zM172 510c0 8 5 17 13 17s12 -6 12 -15c0 -8 -4 -17 -13 -17c-8 0 -12 6 -12 15z" />
    <glyph glyph-name="dagger" unicode="&#x2020;" horiz-adv-x="180" 
d="M148 721h13c-38 -225 -90 -532 -145 -811h-12c44 252 106 589 144 811zM10 407h179l-2 -12h-179z" />
    <glyph glyph-name="degree" unicode="&#xb0;" horiz-adv-x="152" 
d="M86 530c-35 0 -56 -37 -56 -68c0 -23 12 -43 37 -43c35 0 55 37 55 68c0 23 -11 43 -36 43zM88 540c34 0 49 -25 49 -52c0 -37 -26 -79 -71 -79c-34 0 -50 24 -50 52c0 37 27 79 72 79z" />
    <glyph glyph-name="cent" unicode="&#xa2;" horiz-adv-x="230" 
d="M137 456h8c-3 -16 -6 -32 -8 -47c39 -3 52 -30 52 -62c0 -27 -10 -58 -21 -81l-20 10c13 23 21 50 21 73c0 27 -11 48 -34 51c-18 -105 -37 -210 -61 -335h5c46 0 81 55 102 119l15 -6c-20 -66 -67 -123 -121 -123h-3l-11 -55h-8c3 18 6 37 10 55c-50 7 -71 58 -71 119
c0 103 60 235 137 235zM65 66c21 117 43 229 62 335c-62 -1 -114 -132 -114 -230c0 -53 15 -96 52 -105z" />
    <glyph glyph-name="sterling" unicode="&#xa3;" horiz-adv-x="297" 
d="M200 451c-99 0 -98 -160 -104 -250h80l-2 -10h-79c-6 -59 -16 -109 -54 -159c5 1 10 1 16 1c34 0 71 -19 103 -19c29 0 37 9 48 19l14 -14c-12 -13 -26 -22 -50 -22c-46 0 -85 27 -117 27c-16 0 -30 -7 -41 -28l-13 13c52 46 72 117 76 182h-52l2 10h51
c6 130 9 260 123 260c55 0 75 -38 75 -80c0 -36 -15 -75 -37 -98l-15 12c24 23 37 57 37 88c0 36 -19 68 -61 68z" />
    <glyph glyph-name="section" unicode="&#xa7;" horiz-adv-x="322" 
d="M204 450c-28 0 -50 -24 -50 -73c0 -106 133 -161 133 -257c0 -72 -47 -126 -141 -126c-62 0 -113 43 -124 114l27 6c6 -65 47 -108 93 -108c45 0 65 41 65 82c0 85 -133 129 -133 258c0 67 43 115 125 115c54 0 88 -38 88 -89c0 -19 -5 -41 -16 -63l-21 8
c11 20 16 40 16 58c0 43 -28 75 -62 75zM267 114c0 98 -133 144 -133 260c0 30 10 56 35 74c-45 -7 -75 -46 -75 -100c0 -118 133 -170 133 -255c0 -30 -17 -69 -39 -85c53 14 79 54 79 106z" />
    <glyph glyph-name="bullet" unicode="&#x2022;" horiz-adv-x="108" 
d="M45 257c-20 0 -29 15 -29 32c0 24 17 52 44 52c20 0 28 -14 28 -31c0 -24 -17 -53 -43 -53z" />
    <glyph glyph-name="paragraph" unicode="&#xb6;" horiz-adv-x="561" 
d="M405 714c-17 -153 -35 -288 -60 -438c126 27 183 129 183 245c0 12 -1 24 -2 37l18 3c1 -11 2 -23 2 -34c0 -114 -56 -234 -203 -261c-14 -82 -31 -169 -51 -266h-14c19 94 36 181 50 263c-14 -2 -30 -3 -46 -3c-14 -81 -31 -167 -50 -260h-14c19 91 35 178 50 260
c-160 4 -239 107 -239 215c0 121 99 249 293 249c30 0 58 -3 83 -10zM334 714h-15c-177 0 -270 -125 -270 -242c0 -102 71 -199 220 -202c26 157 49 301 65 444zM284 270c16 1 32 1 46 4c27 152 45 290 63 432c-15 3 -29 6 -47 7c-17 -146 -35 -286 -62 -443z" />
    <glyph glyph-name="germandbls" unicode="&#xdf;" horiz-adv-x="233" 
d="M10 -232c-28 0 -51 20 -51 103c0 216 96 706 151 853c15 41 36 63 52 63c23 0 37 -24 37 -70c0 -122 -93 -255 -93 -339c0 -83 76 -113 76 -243c0 -79 -36 -122 -74 -122c-44 0 -73 47 -84 115l20 4c6 -73 34 -111 64 -111c28 0 54 37 54 114c0 116 -68 160 -68 243
c0 95 90 217 90 345c0 36 -7 55 -22 55c-41 0 -128 -401 -170 -727c65 -38 90 -102 90 -160c0 -66 -33 -123 -72 -123zM7 -222c30 0 59 52 59 114c0 51 -20 109 -76 149c-8 -68 -16 -131 -16 -177c0 -52 11 -86 33 -86z" />
    <glyph glyph-name="registered" unicode="&#xae;" horiz-adv-x="379" 
d="M155 200c-87 0 -127 96 -127 206c0 145 71 314 203 314c86 0 127 -96 127 -206c0 -145 -71 -314 -203 -314zM155 210c124 0 191 165 191 306c0 104 -37 194 -115 194c-124 0 -191 -165 -191 -306c0 -104 37 -194 115 -194zM120 321h16l19 103c37 -26 49 -102 82 -111
l5 13c-28 11 -40 78 -81 103c68 12 105 72 105 120c0 35 -20 64 -61 64c-29 0 -52 -13 -73 -28l8 -10c10 9 22 17 34 22c-12 -68 -20 -110 -30 -161c-5 1 -10 2 -15 2h-2l-2 -10c5 -1 10 -1 17 -1zM206 605c29 0 44 -24 44 -54c0 -44 -31 -101 -92 -115c10 52 17 91 30 166
c6 1 12 3 18 3z" />
    <glyph glyph-name="copyright" unicode="&#xa9;" horiz-adv-x="392" 
d="M155 200c-87 0 -127 96 -127 206c0 145 71 314 203 314c86 0 127 -96 127 -206c0 -145 -71 -314 -203 -314zM155 210c124 0 191 165 191 306c0 104 -37 194 -115 194c-124 0 -191 -165 -191 -306c0 -104 37 -194 115 -194zM262 405l-11 3c-16 -48 -39 -86 -70 -86
c-37 0 -52 40 -52 91c0 82 39 191 83 191c19 0 30 -17 30 -43c0 -24 -10 -55 -30 -86l16 -8c19 28 27 59 27 85c0 35 -16 62 -42 62c-55 0 -98 -111 -98 -198c0 -57 18 -104 63 -104c35 0 65 39 84 93z" />
    <glyph glyph-name="trademark" unicode="&#x2122;" horiz-adv-x="325" 
d="M298 456h-20c-3 21 -4 53 -4 88c0 34 1 71 6 103c-17 -69 -45 -150 -68 -191h-14c-6 38 -12 110 -21 187c-7 -50 -21 -114 -41 -187h-18c24 80 50 165 61 265h11c9 -112 24 -238 24 -238c49 111 77 238 77 238h14c-7 -59 -10 -119 -10 -170c0 -39 2 -72 3 -95zM-6 721
h139l-2 -12h-58c-7 -51 -29 -194 -43 -253h-17c12 61 33 191 42 253h-63z" />
    <glyph glyph-name="acute" unicode="&#xb4;" horiz-adv-x="188" 
d="M132 608l13 -8c-49 -80 -89 -112 -89 -112l-5 6c17 19 46 52 81 114z" />
    <glyph glyph-name="dieresis" unicode="&#xa8;" horiz-adv-x="147" 
d="M17 510c0 8 5 17 13 17s12 -6 12 -15c0 -8 -4 -17 -13 -17c-8 0 -12 6 -12 15zM107 510c0 8 5 17 13 17s12 -6 12 -15c0 -8 -4 -17 -13 -17c-8 0 -12 6 -12 15z" />
    <glyph glyph-name="notequal" unicode="&#x2260;" horiz-adv-x="210" 
d="M159 355l11 -2c-5 -10 -47 -105 -133 -219l-10 5c7 11 83 112 132 216zM22 296h181l-2 -12h-181zM8 216h181l-2 -12h-181z" />
    <glyph glyph-name="AE" unicode="&#xc6;" horiz-adv-x="1402" 
d="M980 884l26 -9c-7 -98 -22 -240 -32 -390h8c33 0 63 3 91 8c-12 36 -18 77 -18 119c0 133 59 274 179 274c71 0 111 -53 111 -128c0 -101 -77 -233 -252 -272c15 -39 37 -69 68 -82c11 2 24 4 36 4c14 0 20 -5 20 -10c0 -7 -8 -13 -22 -13c-15 0 -29 3 -42 8
c-80 -13 -143 -54 -189 -109c-1 -30 -1 -61 -1 -90c0 -222 27 -416 126 -416c161 0 241 165 241 297c0 86 -34 158 -103 158c-76 0 -119 -80 -119 -159c0 -33 8 -66 23 -93c-3 -3 -6 -5 -9 -5c-20 0 -31 71 -31 97c0 84 49 170 136 170c82 0 123 -80 123 -174
c0 -135 -87 -301 -265 -301c-151 0 -228 128 -228 269c0 89 30 183 92 254c2 61 4 123 8 184c-37 2 -70 6 -99 14c-94 -339 -203 -716 -501 -716c-235 0 -345 176 -345 361c0 204 134 418 382 418c145 0 249 -88 249 -231c0 -109 -60 -223 -174 -262l-8 18
c107 39 166 142 166 245c0 146 -102 222 -232 222c-236 0 -365 -212 -365 -411c0 -180 105 -350 331 -350c277 0 385 365 484 709c-116 34 -163 112 -163 182l20 3c0 -66 43 -139 146 -173c42 145 82 283 132 380zM1253 875c-5 0 -10 1 -15 1c-113 0 -167 -135 -167 -262
c0 -42 6 -82 18 -117c167 39 237 170 237 267c0 59 -27 106 -73 111zM1044 -217c-74 48 -96 223 -96 426c0 18 1 36 1 55c-49 -68 -74 -154 -74 -233c0 -119 55 -226 169 -248zM957 485c9 141 21 275 27 374c-47 -91 -84 -221 -123 -359c28 -8 60 -13 96 -15zM1139 400
c-28 17 -49 47 -63 83c-29 -5 -60 -8 -94 -8h-8c-4 -56 -7 -112 -9 -167c44 44 102 78 174 92z" />
    <glyph glyph-name="Oslash" unicode="&#xd8;" horiz-adv-x="1116" 
d="M822 913l12 -2c-38 -225 -160 -908 -215 -1187l-12 2c44 252 177 965 215 1187zM924 837l6 12c83 -39 121 -168 121 -324c0 -321 -161 -757 -419 -757c-159 0 -225 168 -226 372c-12 -1 -25 -1 -37 -1c-236 0 -339 143 -339 280c0 125 86 244 233 244c38 0 61 -7 91 -25
l-12 -17c-22 15 -48 22 -78 22c-138 0 -217 -110 -217 -226c0 -130 99 -268 322 -268c12 0 25 0 37 1c2 324 164 735 384 735c95 0 140 -76 140 -180c0 -208 -183 -529 -505 -563c0 -200 58 -364 206 -364c244 0 399 436 399 752c0 146 -33 267 -106 307zM790 875
c-205 0 -360 -405 -365 -723c316 34 484 351 484 554c0 98 -39 169 -119 169z" />
    <glyph glyph-name="yen" unicode="&#xa5;" horiz-adv-x="213" 
d="M129 287h51l-2 -12h-54l-27 -55l-3 -14h72l-2 -12h-72c-13 -71 -31 -195 -41 -195c-6 0 -11 4 -11 12c0 31 18 97 33 183h-68l2 12h68l4 17s-2 20 -6 52h-54l2 12h50c-6 45 -15 108 -27 169h22c12 -61 20 -123 25 -169h24l81 169h15zM109 275h-16l3 -27z" />
    <glyph glyph-name="ordfeminine" unicode="&#xaa;" horiz-adv-x="342" 
d="M329 253l9 -7c-39 -79 -63 -98 -93 -98c-23 0 -38 15 -38 68c0 19 2 44 7 76c-39 -107 -80 -144 -120 -144c-39 0 -55 46 -55 107c0 123 65 307 147 307c43 0 57 -43 59 -88l17 83h20c-27 -143 -54 -277 -54 -347c0 -31 6 -49 19 -49c23 0 49 25 82 92zM185 554
c-66 0 -129 -191 -129 -308c0 -51 12 -88 42 -88c58 0 137 157 137 298c0 59 -17 98 -50 98z" />
    <glyph glyph-name="ordmasculine" unicode="&#xba;" horiz-adv-x="360" 
d="M303 288l6 -8c-11 -9 -32 -17 -49 -19c-27 -63 -69 -112 -117 -112c-65 0 -95 62 -95 142c0 47 10 100 30 150l19 -6c-19 -52 -29 -106 -29 -152c0 -71 24 -124 79 -124c38 0 71 44 94 102c-96 4 -133 73 -133 143c0 77 43 156 103 156c59 0 83 -60 83 -134
c0 -50 -11 -106 -30 -154c13 3 26 8 39 16zM210 552c-48 0 -86 -75 -86 -147c0 -67 32 -132 121 -134c18 50 29 109 29 160c0 67 -19 121 -64 121z" />
    <glyph glyph-name="ae" unicode="&#xe6;" horiz-adv-x="416" 
d="M256 5c71 0 128 154 160 238c4 0 8 -2 8 -6v-2c-30 -80 -84 -240 -170 -240c-66 0 -93 69 -93 153c0 12 1 24 2 36c-35 -106 -76 -189 -129 -189c-37 0 -52 47 -52 112c0 138 70 354 154 354c52 0 63 -63 63 -118c27 67 66 118 109 118c27 0 40 -17 40 -42
c0 -49 -50 -128 -154 -179l-3 -2c-6 -34 -10 -68 -10 -100c0 -75 21 -133 75 -133zM180 283c5 23 8 47 8 69c0 55 -18 99 -53 99c-68 0 -137 -225 -137 -355c0 -54 12 -91 40 -91c43 0 101 120 136 255l4 15c0 2 1 5 2 8zM307 450c-46 0 -91 -95 -113 -198
c95 57 136 130 136 169c0 18 -8 29 -23 29z" />
    <glyph glyph-name="oslash" unicode="&#xf8;" horiz-adv-x="323" 
d="M219 458l9 -4c-65 -142 -136 -292 -238 -461l-9 3c96 153 172 317 238 462zM323 243c4 0 8 -2 8 -6v-2c-29 -77 -78 -125 -137 -128c-28 -65 -68 -112 -113 -112c-62 0 -89 74 -89 162c0 57 11 120 31 174l19 -4c-20 -55 -32 -121 -32 -178c0 -80 23 -144 75 -144
c35 0 67 43 91 102c-91 6 -126 82 -126 162c0 92 47 190 108 190c56 0 80 -63 80 -142c0 -64 -15 -139 -40 -200c49 5 95 47 125 126zM157 451c-49 0 -91 -94 -91 -183c0 -75 31 -147 114 -151c23 63 38 141 38 206c0 72 -18 128 -61 128z" />
    <glyph glyph-name="questiondown" unicode="&#xbf;" horiz-adv-x="498" 
d="M212 709c0 8 3 18 12 18s13 -7 13 -15c0 -10 -5 -17 -13 -17c-9 0 -12 6 -12 14zM215 601l-20 3c-31 -202 -207 -290 -207 -465c0 -94 50 -144 125 -144c98 0 148 91 148 175c0 71 -36 138 -111 138l-2 -17c64 0 96 -61 96 -127c0 -76 -44 -159 -131 -159
c-55 0 -105 45 -105 134c0 181 179 260 207 462z" />
    <glyph glyph-name="exclamdown" unicode="&#xa1;" horiz-adv-x="175" 
d="M-3 0h23c58 182 132 455 175 669h-12c-55 -270 -127 -485 -186 -669zM183 707c0 8 5 17 13 17s12 -6 12 -15c0 -8 -4 -17 -13 -17c-8 0 -12 6 -12 15z" />
    <glyph glyph-name="florin" unicode="&#x192;" horiz-adv-x="267" 
d="M97 211h67l-2 -12h-67c-21 -147 -37 -313 -99 -371l-15 13c60 56 74 215 95 358h-63l2 12h63c21 132 49 248 132 248c38 0 58 -38 58 -86c0 -36 -11 -77 -34 -113l-17 10c25 36 36 76 36 109c0 42 -17 73 -45 73c-67 0 -92 -111 -111 -241z" />
    <glyph glyph-name="approxequal" unicode="&#x2248;" horiz-adv-x="197" 
d="M23 306l-9 8c14 18 31 23 50 23c31 0 65 -14 92 -14c29 0 40 7 51 17l11 -15c-13 -12 -27 -18 -47 -18c-35 0 -72 20 -104 20c-17 0 -32 -5 -44 -21zM12 246l-9 8c14 18 31 23 50 23c31 0 65 -14 92 -14c29 0 40 7 51 17l11 -15c-13 -12 -27 -18 -47 -18
c-35 0 -72 20 -104 20c-17 0 -32 -5 -44 -21z" />
    <glyph glyph-name="guillemotleft" unicode="&#xab;" horiz-adv-x="333" 
d="M14 373l2 13s108 48 193 112l6 -9c-82 -63 -182 -108 -182 -108c67 -49 135 -130 135 -130l-12 -13s-69 76 -142 135zM104 373l2 13s108 48 193 112l6 -9c-82 -63 -182 -108 -182 -108c67 -49 135 -130 135 -130l-12 -13s-69 76 -142 135z" />
    <glyph glyph-name="guillemotright" unicode="&#xbb;" horiz-adv-x="241" 
d="M228 363l-2 -13s-108 -48 -193 -112l-6 9c82 63 182 108 182 108c-67 49 -135 130 -135 130l12 13s69 -76 142 -135zM328 363l-2 -13s-108 -48 -193 -112l-6 9c82 63 182 108 182 108c-67 49 -135 130 -135 130l12 13s69 -76 142 -135z" />
    <glyph glyph-name="ellipsis" unicode="&#x2026;" horiz-adv-x="237" 
d="M12 10c0 8 5 17 13 17s12 -6 12 -15c0 -8 -4 -17 -13 -17c-8 0 -12 6 -12 15zM102 10c0 8 5 17 13 17s12 -6 12 -15c0 -8 -4 -17 -13 -17c-8 0 -12 6 -12 15zM192 10c0 8 5 17 13 17s12 -6 12 -15c0 -8 -4 -17 -13 -17c-8 0 -12 6 -12 15z" />
    <glyph glyph-name="Agrave" unicode="&#xc0;" horiz-adv-x="1010" 
d="M559 400c85 -1 169 -25 234 -74c90 232 156 469 243 558l22 -10c-81 -339 -131 -644 -131 -873c0 -262 65 -424 224 -424c96 0 145 54 179 136l18 -6c-37 -93 -100 -141 -186 -141c-189 0 -255 171 -255 429c0 17 1 34 1 52c0 118 -39 201 -105 257
c-103 -277 -238 -536 -506 -536c-247 0 -364 180 -364 367c0 205 139 418 401 418c124 0 197 -68 225 -153zM188 152c36 156 194 243 354 247c-27 82 -96 146 -211 146c-244 0 -377 -210 -377 -410c0 -183 110 -357 347 -357c243 0 382 264 488 538c-63 48 -144 70 -227 71
c6 -23 9 -46 9 -70c0 -109 -62 -223 -175 -260l-7 15c108 36 165 143 165 246c0 23 -3 46 -9 68c-154 -5 -307 -89 -340 -238zM1029 858c-86 -122 -145 -336 -222 -543c53 -44 91 -105 105 -186c15 213 61 467 117 729zM947 1020l14 8c35 -62 64 -94 81 -113l-5 -7
s-41 32 -90 112z" />
    <glyph glyph-name="Atilde" unicode="&#xc3;" horiz-adv-x="1010" 
d="M559 400c85 -1 169 -25 234 -74c90 232 156 469 243 558l22 -10c-81 -339 -131 -644 -131 -873c0 -262 65 -424 224 -424c96 0 145 54 179 136l18 -6c-37 -93 -100 -141 -186 -141c-189 0 -255 171 -255 429c0 17 1 34 1 52c0 118 -39 201 -105 257
c-103 -277 -238 -536 -506 -536c-247 0 -364 180 -364 367c0 205 139 418 401 418c124 0 197 -68 225 -153zM188 152c36 156 194 243 354 247c-27 82 -96 146 -211 146c-244 0 -377 -210 -377 -410c0 -183 110 -357 347 -357c243 0 382 264 488 538c-63 48 -144 70 -227 71
c6 -23 9 -46 9 -70c0 -109 -62 -223 -175 -260l-7 15c108 36 165 143 165 246c0 23 -3 46 -9 68c-154 -5 -307 -89 -340 -238zM1029 858c-86 -122 -145 -336 -222 -543c53 -44 91 -105 105 -186c15 213 61 467 117 729zM973 916l-9 8c14 18 31 23 50 23c31 0 65 -14 92 -14
c29 0 40 7 51 17l11 -15c-13 -12 -27 -18 -47 -18c-35 0 -72 20 -104 20c-17 0 -32 -5 -44 -21z" />
    <glyph glyph-name="Otilde" unicode="&#xd5;" horiz-adv-x="1116" 
d="M924 837l6 12c83 -39 121 -168 121 -324c0 -321 -161 -757 -419 -757c-159 0 -225 168 -226 372c-12 -1 -25 -1 -37 -1c-236 0 -339 143 -339 280c0 125 86 244 233 244c38 0 61 -7 91 -25l-12 -17c-22 15 -48 22 -78 22c-138 0 -217 -110 -217 -226
c0 -130 99 -268 322 -268c12 0 25 0 37 1c2 324 164 735 384 735c95 0 140 -76 140 -180c0 -208 -183 -529 -505 -563c0 -200 58 -364 206 -364c244 0 399 436 399 752c0 146 -33 267 -106 307zM790 875c-205 0 -360 -405 -365 -723c316 34 484 351 484 554
c0 98 -39 169 -119 169zM723 936l-9 8c14 18 31 23 50 23c31 0 65 -14 92 -14c29 0 40 7 51 17l11 -15c-13 -12 -27 -18 -47 -18c-35 0 -72 20 -104 20c-17 0 -32 -5 -44 -21z" />
    <glyph glyph-name="OE" unicode="&#x152;" horiz-adv-x="1021" 
d="M823 406l-4 -21c-19 0 -35 8 -47 8c-55 -9 -103 -32 -142 -63c-22 -136 -66 -272 -128 -376c23 -99 90 -176 206 -176c161 0 241 165 241 297c0 86 -34 158 -103 158c-76 0 -119 -80 -119 -159c0 -33 8 -66 23 -93c-3 -3 -6 -5 -9 -5c-20 0 -31 71 -31 97
c0 84 49 170 136 170c82 0 123 -80 123 -174c0 -135 -87 -301 -265 -301c-113 0 -184 72 -213 168c-64 -101 -146 -168 -239 -168c-158 0 -224 167 -224 372c0 268 112 601 273 714l10 -12c-156 -106 -265 -441 -265 -707c0 -198 60 -357 205 -357c92 0 172 73 234 181
c-6 26 -9 53 -9 80c0 105 43 218 132 291c8 49 13 98 15 145h-22c-221 0 -314 133 -314 247c0 87 53 163 145 163c148 0 212 -169 212 -375v-24c17 2 33 4 48 7c-12 36 -18 77 -18 119c0 133 59 274 179 274c71 0 111 -53 111 -128c0 -101 -77 -233 -252 -272
c15 -39 37 -69 68 -82c7 2 15 2 27 2h16zM432 875c-82 0 -128 -68 -128 -146c0 -111 90 -244 297 -244h22v34c0 197 -58 356 -191 356zM872 875c-5 0 -10 1 -15 1c-113 0 -167 -135 -167 -262c0 -42 6 -82 18 -117c167 39 237 170 237 267c0 59 -27 106 -73 111zM604 307
c-73 -73 -110 -179 -110 -277c0 -16 1 -32 3 -48c50 93 87 208 107 325zM695 483c-16 -3 -33 -5 -51 -6c-2 -42 -6 -85 -12 -129c36 25 78 43 126 53c-27 17 -49 46 -63 82z" />
    <glyph glyph-name="oe" unicode="&#x153;" horiz-adv-x="456" 
d="M188 197c-100 0 -138 59 -138 121c0 69 47 143 108 143c51 0 74 -60 74 -137c0 -8 -1 -16 -1 -24c26 88 69 161 117 161c22 0 33 -22 33 -53c0 -69 -54 -184 -156 -207c-3 -21 -4 -42 -4 -62c0 -75 21 -134 75 -134c71 0 128 154 160 238c4 0 8 -2 8 -6v-2
c-30 -80 -84 -240 -170 -240c-61 0 -86 67 -86 149c0 8 0 16 1 24c-27 -93 -74 -173 -128 -173c-61 0 -87 74 -87 163c0 60 12 126 32 181l18 -5c-21 -56 -32 -124 -32 -184c0 -80 21 -145 73 -145c51 0 96 92 118 193c-5 -1 -10 -1 -15 -1zM157 451c-44 0 -87 -72 -87 -137
c0 -56 31 -107 118 -107c6 0 12 1 18 1c8 39 12 79 12 115c0 72 -18 128 -61 128zM347 450c-51 0 -103 -122 -120 -238c92 26 140 141 140 201c0 22 -7 37 -20 37z" />
    <glyph glyph-name="endash" unicode="&#x2013;" horiz-adv-x="319" 
d="M19 261h279l-2 -12h-279z" />
    <glyph glyph-name="emdash" unicode="&#x2014;" horiz-adv-x="467" 
d="M38 261h379l-2 -12h-379z" />
    <glyph glyph-name="quotedblleft" unicode="&#x201c;" horiz-adv-x="150" 
d="M65 728l8 -4c-21 -40 -30 -77 -30 -114c0 -9 1 -18 2 -27l-18 -3c0 4 -1 9 -1 13c0 43 14 91 39 135zM122 718l8 -4c-21 -40 -30 -77 -30 -114c0 -9 1 -18 2 -27l-18 -3c0 4 -1 9 -1 13c0 43 14 91 39 135z" />
    <glyph glyph-name="quotedblright" unicode="&#x201d;" horiz-adv-x="135" 
d="M98 570l-9 2c3 18 5 34 5 50c0 33 -7 63 -20 93l16 8c10 -26 15 -56 15 -87c0 -22 -2 -44 -7 -66zM40 563l-8 1c3 17 4 34 4 49c0 34 -7 64 -19 94l16 8c9 -26 15 -55 15 -87c0 -21 -3 -43 -8 -65z" />
    <glyph glyph-name="quoteleft" unicode="&#x2018;" horiz-adv-x="122" 
d="M88 718l8 -4c-21 -40 -30 -77 -30 -114c0 -9 1 -18 2 -27l-18 -3c0 4 -1 9 -1 13c0 43 14 91 39 135z" />
    <glyph glyph-name="quoteright" unicode="&#x2019;" horiz-adv-x="104" 
d="M75 570l-9 2c3 18 5 34 5 50c0 33 -7 63 -20 93l16 8c10 -26 15 -56 15 -87c0 -22 -2 -44 -7 -66z" />
    <glyph glyph-name="divide" unicode="&#xf7;" horiz-adv-x="227" 
d="M198 261h-179l-2 -12h179zM82 174c0 8 5 17 13 17s12 -6 12 -15c0 -8 -4 -17 -13 -17c-8 0 -12 6 -12 15zM106 321c0 8 5 17 13 17s12 -6 12 -15c0 -8 -4 -17 -13 -17c-8 0 -12 6 -12 15z" />
    <glyph glyph-name="ydieresis" unicode="&#xff;" horiz-adv-x="286" 
d="M286 243c-43 -112 -103 -186 -158 -246c33 188 74 415 85 459h-22c-9 -45 -23 -116 -37 -199c-28 -129 -93 -249 -134 -249c-17 0 -24 19 -24 55c0 83 37 244 65 393h-20c-28 -142 -60 -291 -60 -380c0 -49 10 -81 36 -81c37 0 85 68 119 161c-10 -62 -21 -125 -32 -185
c-62 -67 -123 -129 -123 -212c0 -38 19 -63 43 -63c31 0 56 26 64 70l38 213c58 61 122 136 168 256v2c0 4 -3 6 -6 6h-2zM-4 -219c10 68 53 117 105 172l-32 -185c-7 -39 -22 -62 -43 -62c-18 0 -32 16 -32 51c0 7 0 15 2 24zM70 510c0 8 5 17 13 17s12 -6 12 -15
c0 -8 -4 -17 -13 -17c-8 0 -12 6 -12 15zM170 510c0 8 5 17 13 17s12 -6 12 -15c0 -8 -4 -17 -13 -17c-8 0 -12 6 -12 15z" />
    <glyph glyph-name="Ydieresis" unicode="&#x178;" horiz-adv-x="803" 
d="M846 874l-22 11c-28 -63 -82 -234 -125 -474c-32 -139 -122 -406 -219 -406c-61 0 -80 55 -80 137c0 169 67 273 67 441c0 160 -122 301 -291 301c-236 0 -361 -183 -361 -352c0 -144 91 -278 283 -278c188 0 258 170 258 299c0 10 0 20 -1 30l-18 -4c1 -11 2 -23 2 -35
c0 -123 -64 -280 -242 -280c-179 0 -266 131 -266 272c0 163 116 338 342 338c164 0 274 -142 274 -291c0 -165 -67 -275 -67 -443c0 -92 31 -145 100 -145c81 0 155 159 201 309c-24 -126 -47 -645 -233 -645c-54 0 -92 32 -92 99c0 69 53 116 104 116l-2 20
c-58 -2 -120 -58 -120 -136c0 -68 46 -109 110 -109c187 0 221 424 246 607c42 313 106 522 152 618zM612 950c0 8 5 17 13 17s12 -6 12 -15c0 -8 -4 -17 -13 -17c-8 0 -12 6 -12 15zM712 950c0 8 5 17 13 17s12 -6 12 -15c0 -8 -4 -17 -13 -17c-8 0 -12 6 -12 15z" />
    <glyph glyph-name="fraction" unicode="&#x2044;" horiz-adv-x="187" 
d="M196 459l11 -6c-75 -152 -137 -284 -224 -456l-10 5c93 189 142 292 223 457z" />
    <glyph glyph-name="Euro" unicode="&#x20ac;" horiz-adv-x="304" 
d="M87 256h85l-2 -12h-85c-3 -16 -6 -32 -8 -48h85l-2 -12h-84c-1 -13 -2 -25 -2 -37c0 -79 23 -142 79 -142c51 0 90 51 112 128l15 -5c-24 -79 -68 -133 -130 -133c-67 0 -95 69 -95 154c0 11 1 23 2 35h-56l2 12h56c1 16 4 32 7 48h-55l2 12h56c24 106 79 205 144 205
c44 0 61 -45 61 -97c0 -46 -13 -97 -34 -128l-16 9c21 33 36 84 36 128c0 43 -14 78 -48 78c-55 0 -103 -94 -125 -195z" />
    <glyph glyph-name="guilsinglleft" unicode="&#x2039;" horiz-adv-x="218" 
d="M14 243l2 13s108 48 193 112l6 -9c-82 -63 -182 -108 -182 -108c67 -49 135 -130 135 -130l-12 -13s-69 76 -142 135z" />
    <glyph glyph-name="guilsinglright" unicode="&#x203a;" horiz-adv-x="241" 
d="M228 233l-2 -13s-108 -48 -193 -112l-6 9c82 63 182 108 182 108c-67 49 -135 130 -135 130l12 13s69 -76 142 -135z" />
    <glyph glyph-name="fi" unicode="&#xfb01;" horiz-adv-x="307" 
d="M10 -232c-28 0 -51 20 -51 103c0 217 97 706 151 853c15 42 37 63 52 63c14 0 23 -14 23 -40c0 -105 -142 -465 -170 -534c-9 -56 -17 -110 -23 -161c28 11 122 68 169 191c4 0 8 -2 8 -6v-2c-41 -105 -125 -173 -169 -190c59 -39 82 -100 82 -155
c0 -65 -32 -122 -72 -122zM7 -222c30 0 59 52 59 114c0 51 -20 109 -76 149c-8 -68 -16 -131 -16 -177c0 -52 11 -86 33 -86zM174 753c0 17 -3 25 -13 25c-34 0 -87 -233 -136 -509c37 93 149 386 149 484zM217 558c0 7 2 18 12 18c9 0 13 -7 13 -15c0 -10 -5 -17 -13 -17
c-9 0 -12 6 -12 14zM201 456h20c-28 -150 -62 -318 -62 -399c0 -31 5 -49 17 -49c35 0 76 91 131 235c4 0 8 -2 8 -6v-2c-61 -160 -95 -240 -141 -240c-23 0 -32 30 -32 78c0 89 31 242 59 383z" />
    <glyph glyph-name="fl" unicode="&#xfb02;" horiz-adv-x="320" 
d="M10 -232c-28 0 -51 20 -51 103c0 217 97 706 151 853c15 42 37 63 52 63c14 0 23 -14 23 -40c0 -105 -142 -465 -170 -534c-9 -56 -17 -110 -23 -161c28 11 122 68 169 191c4 0 8 -2 8 -6v-2c-41 -105 -125 -173 -169 -190c59 -39 82 -100 82 -155
c0 -65 -32 -122 -72 -122zM7 -222c30 0 59 52 59 114c0 51 -20 109 -76 149c-8 -68 -16 -131 -16 -177c0 -52 11 -86 33 -86zM174 753c0 17 -3 25 -13 25c-34 0 -87 -233 -136 -509c37 93 149 386 149 484zM189 8c35 0 76 91 131 235c4 0 9 -2 9 -7v-2
c-61 -160 -96 -239 -142 -239c-25 0 -35 44 -35 112c0 168 62 482 112 617c16 42 36 63 52 63s23 -14 23 -38c0 -172 -139 -460 -160 -503c-8 -61 -13 -116 -13 -157c0 -50 7 -81 23 -81zM328 749c0 20 -5 29 -12 29c-38 0 -100 -275 -131 -493c32 65 143 304 143 464z" />
    <glyph glyph-name="daggerdbl" unicode="&#x2021;" horiz-adv-x="180" 
d="M149 721h12c-38 -225 -90 -532 -145 -811h-12c44 252 107 589 145 811zM15 446h181l-2 -12h-181zM1 366h181l-2 -12h-181z" />
    <glyph glyph-name="periodcentered" unicode="&#xb7;" horiz-adv-x="105" 
d="M45 310c0 8 5 17 13 17s12 -6 12 -15c0 -8 -4 -17 -13 -17c-8 0 -12 6 -12 15z" />
    <glyph glyph-name="quotesinglbase" unicode="&#x201a;" horiz-adv-x="86" 
d="M-38 -107l-7 5c31 48 43 91 43 138h18c0 -42 -19 -100 -54 -143z" />
    <glyph glyph-name="quotedblbase" unicode="&#x201e;" horiz-adv-x="119" 
d="M-38 -107l-7 5c31 48 43 91 43 138h18c0 -42 -19 -100 -54 -143zM22 -107l-7 5c31 48 43 91 43 138h18c0 -42 -19 -100 -54 -143z" />
    <glyph glyph-name="perthousand" unicode="&#x2030;" horiz-adv-x="608" 
d="M514 230c-55 0 -92 -83 -92 -148c0 -42 16 -77 52 -77c55 0 91 82 91 147c0 43 -15 78 -51 78zM514 240c50 0 72 -43 72 -93c0 -69 -42 -152 -112 -152c-50 0 -72 43 -72 93c0 69 42 152 112 152zM311 230c-55 0 -92 -83 -92 -148c0 -42 16 -77 52 -77c55 0 91 82 91 147
c0 43 -15 78 -51 78zM311 240c50 0 72 -43 72 -93c0 -69 -42 -152 -112 -152c-50 0 -72 43 -72 93c0 69 42 152 112 152zM185 457c104 0 180 70 180 70l10 -7c-65 -148 -220 -392 -349 -523l-11 6c209 221 341 507 341 507s-70 -61 -164 -61c-10 0 -21 1 -33 4
c27 -9 46 -45 46 -87c0 -65 -35 -144 -109 -144c-52 0 -77 47 -77 100c0 61 45 141 116 141c18 0 34 -6 50 -6zM132 453c-59 0 -93 -80 -93 -137c0 -45 18 -84 57 -84c56 0 90 72 90 134c0 43 -17 82 -54 87z" />
    <glyph glyph-name="Acircumflex" unicode="&#xc2;" horiz-adv-x="1010" 
d="M559 400c85 -1 169 -25 234 -74c90 232 156 469 243 558l22 -10c-81 -339 -131 -644 -131 -873c0 -262 65 -424 224 -424c96 0 145 54 179 136l18 -6c-37 -93 -100 -141 -186 -141c-189 0 -255 171 -255 429c0 17 1 34 1 52c0 118 -39 201 -105 257
c-103 -277 -238 -536 -506 -536c-247 0 -364 180 -364 367c0 205 139 418 401 418c124 0 197 -68 225 -153zM188 152c36 156 194 243 354 247c-27 82 -96 146 -211 146c-244 0 -377 -210 -377 -410c0 -183 110 -357 347 -357c243 0 382 264 488 538c-63 48 -144 70 -227 71
c6 -23 9 -46 9 -70c0 -109 -62 -223 -175 -260l-7 15c108 36 165 143 165 246c0 23 -3 46 -9 68c-154 -5 -307 -89 -340 -238zM1029 858c-86 -122 -145 -336 -222 -543c53 -44 91 -105 105 -186c15 213 61 467 117 729zM1030 1018h14c30 -53 49 -87 57 -107l-14 -7
c-7 15 -26 55 -55 98c-40 -54 -92 -94 -92 -94l-7 7c27 22 63 56 97 103z" />
    <glyph glyph-name="Ecircumflex" unicode="&#xca;" horiz-adv-x="590" 
d="M394 387l2 19c-3 1 -7 2 -12 2c-12 0 -25 -2 -36 -4c-31 13 -53 43 -68 82c175 39 252 171 252 272c0 75 -40 128 -111 128c-120 0 -179 -141 -179 -274c0 -42 6 -83 18 -119c-28 -5 -58 -8 -91 -8c-199 0 -283 101 -283 189c0 68 50 129 137 129c60 0 109 -41 134 -91
l19 13c-29 49 -84 88 -153 88c-96 0 -155 -69 -155 -144c0 -92 88 -194 301 -194c34 0 65 3 94 8c14 -36 35 -66 63 -83c-190 -38 -282 -208 -282 -363c0 -141 78 -269 228 -269c178 0 265 166 265 301c0 94 -41 174 -123 174c-89 0 -136 -89 -136 -174c0 -35 8 -70 24 -97
l16 9c-15 27 -23 60 -23 93c0 79 43 159 119 159c69 0 103 -72 103 -158c0 -132 -80 -297 -241 -297c-144 0 -214 119 -214 253c0 155 95 331 278 362c13 -5 27 -8 42 -8c5 0 9 1 12 2zM440 875c46 -5 73 -52 73 -111c0 -97 -70 -228 -237 -267c-12 35 -18 75 -18 117
c0 127 54 262 167 262c5 0 10 -1 15 -1zM452 1058h14c30 -53 49 -87 57 -107l-14 -7c-7 15 -26 55 -55 98c-40 -54 -92 -94 -92 -94l-7 7c27 22 63 56 97 103z" />
    <glyph glyph-name="Aacute" unicode="&#xc1;" horiz-adv-x="1010" 
d="M559 400c85 -1 169 -25 234 -74c90 232 156 469 243 558l22 -10c-81 -339 -131 -644 -131 -873c0 -262 65 -424 224 -424c96 0 145 54 179 136l18 -6c-37 -93 -100 -141 -186 -141c-189 0 -255 171 -255 429c0 17 1 34 1 52c0 118 -39 201 -105 257
c-103 -277 -238 -536 -506 -536c-247 0 -364 180 -364 367c0 205 139 418 401 418c124 0 197 -68 225 -153zM188 152c36 156 194 243 354 247c-27 82 -96 146 -211 146c-244 0 -377 -210 -377 -410c0 -183 110 -357 347 -357c243 0 382 264 488 538c-63 48 -144 70 -227 71
c6 -23 9 -46 9 -70c0 -109 -62 -223 -175 -260l-7 15c108 36 165 143 165 246c0 23 -3 46 -9 68c-154 -5 -307 -89 -340 -238zM1029 858c-86 -122 -145 -336 -222 -543c53 -44 91 -105 105 -186c15 213 61 467 117 729zM1132 1038l13 -8c-49 -80 -89 -112 -89 -112l-5 6
c17 19 46 52 81 114z" />
    <glyph glyph-name="Edieresis" unicode="&#xcb;" horiz-adv-x="726" 
d="M530 387l2 19c-3 1 -7 2 -12 2c-12 0 -25 -2 -36 -4c-31 13 -53 43 -68 82c175 39 252 171 252 272c0 75 -40 128 -111 128c-120 0 -179 -141 -179 -274c0 -42 6 -83 18 -119c-28 -5 -58 -8 -91 -8c-199 0 -283 101 -283 189c0 68 50 129 137 129c60 0 109 -41 134 -91
l19 13c-29 49 -84 88 -153 88c-96 0 -155 -69 -155 -144c0 -92 88 -194 301 -194c34 0 65 3 94 8c14 -36 35 -66 63 -83c-190 -38 -282 -208 -282 -363c0 -141 78 -269 228 -269c178 0 265 166 265 301c0 94 -41 174 -123 174c-89 0 -136 -89 -136 -174c0 -35 8 -70 24 -97
l16 9c-15 27 -23 60 -23 93c0 79 43 159 119 159c69 0 103 -72 103 -158c0 -132 -80 -297 -241 -297c-144 0 -214 119 -214 253c0 155 95 331 278 362c13 -5 27 -8 42 -8c5 0 9 1 12 2zM576 875c46 -5 73 -52 73 -111c0 -97 -70 -228 -237 -267c-12 35 -18 75 -18 117
c0 127 54 262 167 262c5 0 10 -1 15 -1zM517 950c0 8 5 17 13 17s12 -6 12 -15c0 -8 -4 -17 -13 -17c-8 0 -12 6 -12 15zM607 950c0 8 5 17 13 17s12 -6 12 -15c0 -8 -4 -17 -13 -17c-8 0 -12 6 -12 15z" />
    <glyph glyph-name="Egrave" unicode="&#xc8;" horiz-adv-x="726" 
d="M530 387l2 19c-3 1 -7 2 -12 2c-12 0 -25 -2 -36 -4c-31 13 -53 43 -68 82c175 39 252 171 252 272c0 75 -40 128 -111 128c-120 0 -179 -141 -179 -274c0 -42 6 -83 18 -119c-28 -5 -58 -8 -91 -8c-199 0 -283 101 -283 189c0 68 50 129 137 129c60 0 109 -41 134 -91
l19 13c-29 49 -84 88 -153 88c-96 0 -155 -69 -155 -144c0 -92 88 -194 301 -194c34 0 65 3 94 8c14 -36 35 -66 63 -83c-190 -38 -282 -208 -282 -363c0 -141 78 -269 228 -269c178 0 265 166 265 301c0 94 -41 174 -123 174c-89 0 -136 -89 -136 -174c0 -35 8 -70 24 -97
l16 9c-15 27 -23 60 -23 93c0 79 43 159 119 159c69 0 103 -72 103 -158c0 -132 -80 -297 -241 -297c-144 0 -214 119 -214 253c0 155 95 331 278 362c13 -5 27 -8 42 -8c5 0 9 1 12 2zM576 875c46 -5 73 -52 73 -111c0 -97 -70 -228 -237 -267c-12 35 -18 75 -18 117
c0 127 54 262 167 262c5 0 10 -1 15 -1zM463 1020l14 8c35 -62 64 -94 81 -113l-5 -7s-41 32 -90 112z" />
    <glyph glyph-name="Iacute" unicode="&#xcd;" horiz-adv-x="517" 
d="M538 882l16 -4c-2 -16 -9 -35 -15 -46c-82 -342 -129 -639 -186 -1059h-20c62 412 104 696 186 1035c-130 -137 -479 -257 -479 -498c0 -112 64 -185 165 -185c81 0 124 66 124 128c0 43 -21 85 -66 100l8 18c51 -18 76 -64 76 -113c0 -70 -50 -143 -142 -143
c-108 0 -185 73 -185 195c0 246 390 388 503 515c4 26 10 42 15 57zM632 1048l13 -8c-49 -80 -89 -112 -89 -112l-5 6c17 19 46 52 81 114z" />
    <glyph glyph-name="Icircumflex" unicode="&#xce;" horiz-adv-x="517" 
d="M554 878l-16 4c-5 -15 -11 -31 -15 -57c-113 -127 -503 -269 -503 -515c0 -122 77 -195 185 -195c92 0 142 73 142 143c0 49 -25 95 -76 113l-8 -18c45 -15 66 -57 66 -100c0 -62 -43 -128 -124 -128c-101 0 -165 73 -165 185c0 241 349 361 479 498
c-82 -339 -124 -623 -186 -1035h20c57 420 104 717 186 1059c6 11 13 30 15 46zM562 1018h14c30 -53 49 -87 57 -107l-14 -7c-7 15 -26 55 -55 98c-40 -54 -92 -94 -92 -94l-7 7c27 22 63 56 97 103z" />
    <glyph glyph-name="Idieresis" unicode="&#xcf;" horiz-adv-x="517" 
d="M554 878l-16 4c-5 -15 -11 -31 -15 -57c-113 -127 -503 -269 -503 -515c0 -122 77 -195 185 -195c92 0 142 73 142 143c0 49 -25 95 -76 113l-8 -18c45 -15 66 -57 66 -100c0 -62 -43 -128 -124 -128c-101 0 -165 73 -165 185c0 241 349 361 479 498
c-82 -339 -124 -623 -186 -1035h20c57 420 104 717 186 1059c6 11 13 30 15 46zM492 930c0 8 5 17 13 17s12 -6 12 -15c0 -8 -4 -17 -13 -17c-8 0 -12 6 -12 15zM592 930c0 8 5 17 13 17s12 -6 12 -15c0 -8 -4 -17 -13 -17c-8 0 -12 6 -12 15z" />
    <glyph glyph-name="Igrave" unicode="&#xcc;" horiz-adv-x="517" 
d="M554 878l-16 4c-5 -15 -11 -31 -15 -57c-113 -127 -503 -269 -503 -515c0 -122 77 -195 185 -195c92 0 142 73 142 143c0 49 -25 95 -76 113l-8 -18c45 -15 66 -57 66 -100c0 -62 -43 -128 -124 -128c-101 0 -165 73 -165 185c0 241 349 361 479 498
c-82 -339 -124 -623 -186 -1035h20c57 420 104 717 186 1059c6 11 13 30 15 46zM454 1020l14 8c35 -62 64 -94 81 -113l-5 -7s-41 32 -90 112z" />
    <glyph glyph-name="Oacute" unicode="&#xd3;" horiz-adv-x="1116" 
d="M924 837l6 12c83 -39 121 -168 121 -324c0 -321 -161 -757 -419 -757c-159 0 -225 168 -226 372c-12 -1 -25 -1 -37 -1c-236 0 -339 143 -339 280c0 125 86 244 233 244c38 0 61 -7 91 -25l-12 -17c-22 15 -48 22 -78 22c-138 0 -217 -110 -217 -226
c0 -130 99 -268 322 -268c12 0 25 0 37 1c2 324 164 735 384 735c95 0 140 -76 140 -180c0 -208 -183 -529 -505 -563c0 -200 58 -364 206 -364c244 0 399 436 399 752c0 146 -33 267 -106 307zM790 875c-205 0 -360 -405 -365 -723c316 34 484 351 484 554
c0 98 -39 169 -119 169zM882 1048l13 -8c-49 -80 -89 -112 -89 -112l-5 6c17 19 46 52 81 114z" />
    <glyph glyph-name="Ocircumflex" unicode="&#xd4;" horiz-adv-x="1116" 
d="M930 849l-6 -12c73 -40 106 -161 106 -307c0 -316 -155 -752 -399 -752c-148 0 -206 164 -206 364c322 34 505 355 505 563c0 104 -45 180 -140 180c-220 0 -382 -411 -384 -735c-12 -1 -25 -1 -37 -1c-223 0 -322 138 -322 268c0 116 79 226 217 226c30 0 56 -7 78 -22
l12 17c-30 18 -53 25 -91 25c-147 0 -233 -119 -233 -244c0 -137 103 -280 339 -280c12 0 25 0 37 1c1 -204 67 -372 226 -372c258 0 419 436 419 757c0 156 -38 285 -121 324zM790 875c80 0 119 -71 119 -169c0 -203 -168 -520 -484 -554c5 318 160 723 365 723zM832 1048
h14c30 -53 49 -87 57 -107l-14 -7c-7 15 -26 55 -55 98c-40 -54 -92 -94 -92 -94l-7 7c27 22 63 56 97 103z" />
    <glyph glyph-name="Ograve" unicode="&#xd2;" horiz-adv-x="1116" 
d="M930 849l-6 -12c73 -40 106 -161 106 -307c0 -316 -155 -752 -399 -752c-148 0 -206 164 -206 364c322 34 505 355 505 563c0 104 -45 180 -140 180c-220 0 -382 -411 -384 -735c-12 -1 -25 -1 -37 -1c-223 0 -322 138 -322 268c0 116 79 226 217 226c30 0 56 -7 78 -22
l12 17c-30 18 -53 25 -91 25c-147 0 -233 -119 -233 -244c0 -137 103 -280 339 -280c12 0 25 0 37 1c1 -204 67 -372 226 -372c258 0 419 436 419 757c0 156 -38 285 -121 324zM790 875c80 0 119 -71 119 -169c0 -203 -168 -520 -484 -554c5 318 160 723 365 723zM747 1020
l14 8c35 -62 64 -94 81 -113l-5 -7s-41 32 -90 112z" />
    <glyph glyph-name="Uacute" unicode="&#xda;" horiz-adv-x="779" 
d="M881 -30l18 -3c-23 -148 -77 -200 -144 -200c-72 0 -115 52 -115 202c0 47 5 100 12 157c-47 -163 -136 -358 -223 -358c-69 0 -100 53 -100 145c0 168 118 505 118 670c0 149 -110 291 -274 291c-226 0 -342 -175 -342 -338c0 -141 87 -272 266 -272
c178 0 242 157 242 280c0 12 -1 24 -2 35l18 4c1 -10 1 -20 1 -30c0 -129 -70 -299 -258 -299c-192 0 -283 134 -283 278c0 169 125 352 361 352c169 0 291 -141 291 -301c0 -188 -118 -499 -118 -668c0 -82 19 -137 80 -137c101 0 207 305 237 440c35 225 92 507 146 668
l27 -11l-38 -100c-18 -47 -37 -120 -72 -325c-28 -163 -69 -353 -69 -490c0 -128 36 -183 93 -183c58 0 111 55 128 193zM732 1038l13 -8c-49 -80 -89 -112 -89 -112l-5 6c17 19 46 52 81 114z" />
    <glyph glyph-name="Ucircumflex" unicode="&#xdb;" horiz-adv-x="779" 
d="M899 -33l-18 3c-17 -138 -70 -193 -128 -193c-57 0 -93 55 -93 183c0 137 41 327 69 490c35 205 54 278 72 325l38 100l-27 11c-54 -161 -111 -443 -146 -668c-30 -135 -136 -440 -237 -440c-61 0 -80 55 -80 137c0 169 118 480 118 668c0 160 -122 301 -291 301
c-236 0 -361 -183 -361 -352c0 -144 91 -278 283 -278c188 0 258 170 258 299c0 10 0 20 -1 30l-18 -4c1 -11 2 -23 2 -35c0 -123 -64 -280 -242 -280c-179 0 -266 131 -266 272c0 163 116 338 342 338c164 0 274 -142 274 -291c0 -165 -118 -502 -118 -670
c0 -92 31 -145 100 -145c87 0 176 195 223 358c-7 -57 -12 -110 -12 -157c0 -150 43 -202 115 -202c67 0 121 52 144 200zM672 1018h14c30 -53 49 -87 57 -107l-14 -7c-7 15 -26 55 -55 98c-40 -54 -92 -94 -92 -94l-7 7c27 22 63 56 97 103z" />
    <glyph glyph-name="Ugrave" unicode="&#xd9;" horiz-adv-x="779" 
d="M899 -33l-18 3c-17 -138 -70 -193 -128 -193c-57 0 -93 55 -93 183c0 137 41 327 69 490c35 205 54 278 72 325l38 100l-27 11c-54 -161 -111 -443 -146 -668c-30 -135 -136 -440 -237 -440c-61 0 -80 55 -80 137c0 169 118 480 118 668c0 160 -122 301 -291 301
c-236 0 -361 -183 -361 -352c0 -144 91 -278 283 -278c188 0 258 170 258 299c0 10 0 20 -1 30l-18 -4c1 -11 2 -23 2 -35c0 -123 -64 -280 -242 -280c-179 0 -266 131 -266 272c0 163 116 338 342 338c164 0 274 -142 274 -291c0 -165 -118 -502 -118 -670
c0 -92 31 -145 100 -145c87 0 176 195 223 358c-7 -57 -12 -110 -12 -157c0 -150 43 -202 115 -202c67 0 121 52 144 200zM587 1020l14 8c35 -62 64 -94 81 -113l-5 -7s-41 32 -90 112z" />
    <glyph glyph-name="dotlessi" unicode="&#x131;" 
d="M40 456h20c-28 -150 -62 -318 -62 -399c0 -31 5 -49 17 -49c35 0 76 91 131 235c4 0 8 -2 8 -6v-2c-61 -160 -95 -240 -141 -240c-23 0 -32 30 -32 78c0 89 31 242 59 383z" />
    <glyph glyph-name="circumflex" unicode="&#x2c6;" horiz-adv-x="198" 
d="M112 598h14c30 -53 49 -87 57 -107l-14 -7c-7 15 -26 55 -55 98c-40 -54 -92 -94 -92 -94l-7 7c27 22 63 56 97 103z" />
    <glyph glyph-name="tilde" unicode="&#x2dc;" horiz-adv-x="208" 
d="M13 506l-9 8c14 18 31 23 50 23c31 0 65 -14 92 -14c29 0 40 7 51 17l11 -15c-13 -12 -27 -18 -47 -18c-35 0 -72 20 -104 20c-17 0 -32 -5 -44 -21z" />
    <glyph glyph-name="macron" unicode="&#xaf;" horiz-adv-x="203" 
d="M19 511h159l-2 -12h-159z" />
    <glyph glyph-name="breve" unicode="&#x2d8;" horiz-adv-x="187" 
d="M156 584l10 -1c-11 -66 -50 -98 -82 -98c-28 0 -52 25 -52 77c0 7 0 14 1 20l15 -1c-1 -10 -2 -23 -2 -31c0 -39 17 -57 38 -57c29 0 64 32 72 91z" />
    <glyph glyph-name="dotaccent" unicode="&#x2d9;" horiz-adv-x="121" 
d="M52 520c0 8 5 17 13 17s12 -6 12 -15c0 -8 -4 -17 -13 -17c-8 0 -12 6 -12 15z" />
    <glyph glyph-name="ring" unicode="&#x2da;" horiz-adv-x="172" 
d="M77 452c-31 0 -45 23 -45 49c0 32 22 69 61 69c31 0 45 -23 45 -49c0 -33 -22 -69 -61 -69zM93 562c-31 0 -50 -34 -50 -62c0 -22 11 -41 34 -41c31 0 49 34 49 63c0 21 -10 40 -33 40z" />
    <glyph glyph-name="cedilla" unicode="&#xb8;" horiz-adv-x="414" 
d="M164 -100l-18 13c6 7 11 12 18 16c4 15 10 40 17 75l12 -5l-16 -64c12 4 26 7 41 7c46 0 69 -28 69 -57c0 -34 -30 -70 -86 -70c-46 0 -70 18 -77 45l23 11c8 -26 20 -46 57 -46s61 33 61 63c0 23 -15 44 -49 44c-20 0 -32 -5 -42 -10v-1c-2 -7 -5 -17 -10 -21z" />
    <glyph glyph-name="hungarumlaut" unicode="&#x2dd;" horiz-adv-x="201" 
d="M107 484c-1 0 -2 -1 -3 -1c-3 0 -6 3 -6 6c0 1 0 3 1 4c15 37 49 136 59 136c5 0 11 -4 11 -9c0 -1 -1 -2 -1 -3c-17 -41 -35 -76 -61 -133zM47 484c-1 0 -2 -1 -3 -1c-3 0 -6 3 -6 6c0 1 0 3 1 4c15 37 49 136 59 136c5 0 11 -4 11 -9c0 -1 -1 -2 -1 -3
c-17 -41 -35 -76 -61 -133z" />
    <glyph glyph-name="ogonek" unicode="&#x2db;" horiz-adv-x="231" 
d="M182 -98l6 -17c-22 -11 -43 -16 -61 -16c-45 0 -75 28 -75 62c0 27 18 56 62 79l3 -9c-39 -19 -55 -45 -55 -68c0 -27 24 -49 60 -49c17 0 38 5 60 18z" />
    <glyph glyph-name="caron" unicode="&#x2c7;" horiz-adv-x="198" 
d="M85 489h-14c-30 53 -49 87 -57 107l9 4c12 -27 25 -54 54 -97c46 59 94 100 94 100l10 -12c-19 -16 -62 -55 -96 -102z" />
    <glyph glyph-name="Eth" unicode="&#xd0;" horiz-adv-x="898" 
d="M269 11h179l-2 -12h-179zM106 -92c52 0 95 -31 147 -63c55 53 103 144 138 293c-9 -1 -19 -1 -28 -1c-196 0 -293 158 -293 329c0 201 133 419 394 419c254 0 366 -248 366 -514c0 -293 -138 -603 -372 -603c-90 0 -152 29 -203 59c-52 -44 -111 -59 -171 -59
c-57 0 -90 34 -90 69s34 71 112 71zM458 -222c217 0 348 305 348 594c0 262 -106 504 -351 504c-241 0 -365 -213 -365 -409c0 -166 90 -320 274 -320c10 0 19 0 29 1c13 60 24 129 33 208c21 188 48 313 75 393l17 -5c-28 -79 -55 -205 -74 -388c-8 -78 -19 -146 -32 -206
c139 22 207 136 207 234c0 46 -15 88 -44 115l9 13c34 -28 51 -74 51 -124c0 -105 -74 -227 -226 -248c-35 -155 -85 -248 -144 -303c51 -31 110 -59 193 -59zM87 -222c54 0 107 15 155 57c-51 32 -91 63 -138 63c-62 0 -92 -32 -92 -63c0 -29 26 -57 75 -57z" />
    <glyph glyph-name="NULL" horiz-adv-x="500" 
 />
    <glyph glyph-name="CR" horiz-adv-x="500" 
 />
    <glyph glyph-name="r.start" horiz-adv-x="266" 
d="M95 581l17 -1c0 -53 -3 -103 -12 -154c19 -40 59 -83 59 -152c0 -83 -48 -162 -48 -231c0 -23 10 -35 24 -35c35 0 76 91 131 235c4 0 8 -2 8 -6v-2c-61 -160 -95 -240 -141 -240c-27 0 -40 20 -40 57c0 72 48 146 48 222c0 58 -27 95 -44 134
c-28 -143 -83 -313 -126 -413l-9 5c57 138 98 286 125 432c-7 55 -1 100 8 149z" />
    <glyph glyph-name="C.small" horiz-adv-x="315" 
d="M129 5c72 0 141 121 186 238c4 0 8 -2 8 -6v-2c-49 -128 -112 -240 -198 -240c-89 0 -127 105 -127 236c0 213 102 495 247 495c53 0 78 -54 78 -126c0 -65 -21 -144 -61 -209l-21 10c45 74 66 151 66 210c0 62 -23 105 -63 105c-123 0 -227 -293 -227 -502
c0 -118 33 -209 112 -209z" />
    <glyph glyph-name="R.small" horiz-adv-x="361" 
d="M29 280l3 19h2c15 0 28 -2 40 -6c23 128 42 249 68 408c-31 -12 -60 -31 -83 -53l-12 13c42 42 112 66 173 66c92 0 135 -65 135 -145c0 -118 -92 -268 -261 -298c106 -61 61 -279 121 -279c51 0 115 156 146 238c4 0 8 -2 8 -6v-2c-29 -78 -94 -241 -154 -241
c-80 0 -39 220 -126 279l-50 -273h-23c22 106 40 195 56 281h-2c-15 -1 -27 -1 -41 -1zM93 295c157 30 241 177 241 290c0 73 -36 132 -111 132c-20 0 -40 -3 -60 -9c-25 -155 -46 -281 -70 -413z" />
    <glyph glyph-name="S.small" horiz-adv-x="283" 
d="M-53 148l26 2c-1 -5 -1 -10 -1 -15c0 -69 39 -129 109 -129c79 0 120 79 120 162c0 149 -145 220 -145 389c0 101 54 169 125 169c61 0 84 -40 84 -97c0 -42 -12 -93 -31 -144l-22 7c21 52 34 103 34 142c0 49 -19 82 -65 82c-65 0 -105 -72 -105 -160
c0 -158 145 -241 145 -386c0 -101 -52 -176 -141 -176c-84 0 -133 72 -133 154z" />
    <glyph glyph-name="T.small" horiz-adv-x="219" 
d="M21 542l-18 -7c-5 17 -8 34 -8 51c0 75 53 138 152 138c33 0 75 -11 113 -11c27 0 51 6 69 25l14 -15c-16 -17 -42 -22 -71 -22c-24 0 -50 4 -73 7v-1c-38 -225 -74 -428 -129 -707h-19c44 251 92 490 130 711c-14 2 -27 3 -36 3c-86 0 -132 -54 -132 -122
c0 -16 2 -33 8 -50z" />
    <glyph glyph-name="M.small" horiz-adv-x="499" 
d="M174 720h16c0 -235 1 -427 8 -666c85 250 148 444 204 666h15c-52 -397 -69 -573 -69 -651c0 -55 9 -61 20 -61c35 0 76 91 131 235c4 0 9 -2 9 -7v-2c-61 -160 -96 -239 -142 -239c-24 0 -37 13 -37 85c0 81 17 236 58 531c-47 -164 -118 -390 -190 -600h-16
c0 212 -10 362 -10 543c0 23 1 46 1 70c-30 -214 -64 -369 -147 -624h-23c75 186 133 441 172 720z" />
    <glyph glyph-name="Y.small" horiz-adv-x="179" 
d="M32 720h23c16 -129 28 -251 34 -364c55 126 109 249 162 364h13c-56 -126 -115 -263 -174 -400c-21 -112 -34 -187 -60 -320h-18c18 104 39 218 58 317c-5 122 -18 259 -38 403z" />
    <glyph glyph-name="E.small" horiz-adv-x="315" 
d="M178 388l-3 -19h-2c-11 0 -20 2 -29 6c-73 -23 -117 -131 -117 -225c0 -78 30 -145 101 -145h1c72 0 141 121 186 238c4 0 8 -2 8 -6v-2c-49 -128 -112 -240 -198 -240c-81 0 -117 74 -117 158c0 94 46 201 125 229c-33 24 -50 77 -50 135c0 98 48 208 141 208
c65 0 93 -49 93 -103c0 -42 -17 -86 -44 -111l-18 16c29 22 46 64 46 103c0 46 -23 85 -78 85c-78 0 -119 -111 -119 -206c0 -55 14 -105 43 -123h1c7 2 13 2 19 2h11z" />
    <glyph glyph-name="uni0000" horiz-adv-x="0" 
 />
    <glyph glyph-name="uni0000" horiz-adv-x="0" 
 />
    <glyph glyph-name="A.small" horiz-adv-x="397" 
d="M251 113c-1 -12 -1 -22 -1 -32c0 -45 7 -73 24 -73c35 0 86 138 123 235c4 0 9 -2 9 -7v-2c-39 -100 -88 -239 -134 -239c-28 0 -39 47 -39 117c0 36 3 79 9 125c-42 -132 -96 -242 -155 -242c-63 0 -89 83 -89 193c0 216 102 537 232 537c55 0 72 -69 72 -153l22 109h19
c-29 -151 -92 -422 -92 -568zM229 717c-112 0 -212 -335 -212 -545c0 -97 21 -167 72 -167c57 0 119 141 163 301c14 89 40 185 40 268c0 80 -17 143 -63 143z" />
    <glyph glyph-name="B.small" horiz-adv-x="410" 
d="M-20 -6v24c6 1 16 2 25 2h10c44 75 115 479 151 689c-39 -11 -73 -32 -105 -61l-11 12c50 38 91 65 165 65c78 0 121 -59 121 -126c0 -74 -50 -155 -157 -179c114 -11 166 -94 166 -180c0 -116 -78 -245 -230 -245c-46 0 -63 12 -97 14c-11 -9 -22 -15 -35 -15h-3zM113 5
c134 0 211 122 211 236c0 89 -56 169 -187 173c-11 0 -53 -246 -53 -247c-8 -36 -25 -110 -57 -149c29 -4 52 -13 86 -13zM213 715c-10 0 -19 -1 -28 -2c-17 -100 -34 -199 -51 -290c121 6 180 99 180 179c0 61 -35 113 -101 113z" />
    <glyph glyph-name="D.small" horiz-adv-x="410" 
d="M-30 -6l-4 23c4 2 9 3 15 3c5 0 10 0 15 -1c43 75 113 482 150 694c-55 -10 -98 -50 -125 -95l-11 6c31 53 94 102 165 102c135 0 194 -129 194 -281c0 -204 -104 -450 -274 -450c-45 0 -62 11 -95 13c-8 -8 -17 -14 -27 -14h-3zM93 5c157 0 254 244 254 444
c0 148 -53 267 -174 267h-7c-36 -214 -76 -429 -102 -549c-8 -36 -29 -110 -57 -149c30 -4 52 -13 86 -13z" />
    <glyph glyph-name="F.small" horiz-adv-x="245" 
d="M120 401h102l-2 -12h-103c-21 -119 -44 -243 -73 -389h-18c23 133 47 263 71 389h-56l2 12h56c20 106 39 210 56 310c-14 2 -27 3 -36 3c-86 0 -132 -54 -132 -122c0 -16 2 -33 8 -50l-18 -7c-5 17 -8 34 -8 51c0 75 53 138 152 138c33 0 75 -11 113 -11c27 0 51 6 69 25
l14 -15c-16 -17 -42 -22 -71 -22c-24 0 -50 4 -73 7z" />
    <glyph glyph-name="G.small" horiz-adv-x="336" 
d="M108 -222c41 0 60 36 74 111c14 76 24 139 34 195c-21 -57 -49 -89 -90 -89c-89 0 -127 105 -127 236c0 213 102 495 247 495c57 0 81 -50 81 -116c0 -67 -25 -152 -67 -221l-18 12c47 77 71 157 71 217c0 58 -23 98 -68 98c-123 0 -227 -293 -227 -502
c0 -118 33 -209 112 -209c44 0 78 62 102 169l14 71l21 -2c-17 -66 -46 -218 -68 -354c-13 -81 -40 -121 -92 -121c-45 0 -69 34 -71 67l16 3c0 -26 12 -60 56 -60z" />
    <glyph glyph-name="H.small" horiz-adv-x="363" 
d="M124 720h20c-20 -116 -40 -228 -62 -349h199c23 121 45 237 64 349h19c-38 -225 -77 -441 -132 -720h-19c21 121 44 242 66 359h-199c-20 -111 -42 -228 -68 -359h-19c21 121 44 242 65 359h-60l2 12h61c22 121 44 237 63 349z" />
    <glyph glyph-name="I.small" horiz-adv-x="123" 
d="M88 720h20c-38 -225 -77 -441 -132 -720h-19c44 252 93 498 131 720z" />
    <glyph glyph-name="J.small" horiz-adv-x="157" 
d="M146 720h14c-11 -65 -33 -180 -82 -458c-31 -175 -87 -389 -170 -389l-1 12c88 0 132 259 154 378c50 276 66 377 85 457z" />
    <glyph glyph-name="K.small" horiz-adv-x="304" 
d="M310 726l1 -21c-68 0 -59 -281 -222 -327c57 -23 70 -90 70 -161c0 -62 -10 -126 -10 -167c0 -26 4 -43 18 -43c36 0 93 121 137 236c4 0 9 -2 9 -7v-2c-44 -114 -97 -239 -145 -239c-32 0 -41 33 -41 80c0 46 9 107 9 162c0 65 -12 121 -61 138c-9 -2 -19 -3 -29 -3
c-21 -115 -44 -236 -71 -372h-21c48 252 95 498 133 720h20c-19 -111 -38 -219 -59 -334c9 0 18 -1 25 -3c167 34 144 343 237 343z" />
    <glyph glyph-name="L.small" horiz-adv-x="387" 
d="M33 -6l-2 24c4 2 9 2 14 2c4 0 8 0 13 -1c24 35 50 142 74 265c-81 10 -119 64 -119 122c0 31 12 64 34 91l16 -13c-23 -25 -35 -57 -35 -87c0 -49 32 -94 106 -103c18 92 36 193 51 280c14 81 60 152 136 152c64 0 93 -50 93 -119c0 -132 -104 -324 -254 -324h-9
c-7 -38 -15 -74 -24 -116c-8 -37 -30 -112 -58 -150c33 -6 91 -10 111 -10c88 0 163 121 207 236c4 0 9 -2 9 -7v-2c-44 -114 -117 -239 -215 -239c-64 0 -85 11 -118 13c-9 -8 -18 -14 -27 -14h-3zM203 567c-22 -132 -36 -208 -50 -274h7c135 0 231 195 231 321
c0 60 -22 102 -71 102c-67 0 -102 -61 -117 -149z" />
    <glyph glyph-name="N.small" horiz-adv-x="348" 
d="M311 633c0 -135 -124 -423 -124 -575c0 -29 9 -50 27 -50c34 0 90 120 134 235c4 0 8 -2 8 -6v-2c-44 -114 -96 -240 -144 -240c-31 0 -45 24 -45 64c0 147 125 457 125 574c0 53 -17 82 -47 82c-72 0 -156 -193 -222 -429c-43 -238 -50 -291 -66 -291c-6 0 -11 3 -12 10
c10 0 118 557 129 681h22c-1 -12 -27 -152 -55 -302c53 174 125 342 206 342c39 0 64 -40 64 -93z" />
    <glyph glyph-name="O.small" horiz-adv-x="395" 
d="M129 -5c-90 0 -129 97 -129 238c0 210 88 493 224 493c91 0 130 -95 130 -234c0 -211 -91 -497 -225 -497zM129 5c120 0 205 289 205 496c0 129 -34 215 -110 215c-120 0 -204 -291 -204 -498c0 -129 32 -213 109 -213z" />
    <glyph glyph-name="P.small" horiz-adv-x="334" 
d="M39 0h-23c22 105 39 194 55 279c-26 0 -52 5 -68 15l7 12c14 -12 40 -17 63 -17c23 129 42 250 69 409c-31 -12 -60 -29 -83 -50l-12 15c48 40 110 63 173 63c94 0 137 -67 137 -150c0 -126 -100 -289 -267 -297zM92 290c155 10 244 167 244 288c0 77 -36 138 -113 138
c-19 0 -39 -4 -60 -11c-25 -155 -47 -281 -71 -415z" />
    <glyph glyph-name="Q.small" horiz-adv-x="425" 
d="M35 -11l3 35h4c20 0 40 -2 61 -6c161 60 261 303 261 485c0 119 -43 213 -138 213c-127 0 -184 -140 -184 -279c0 -104 31 -207 89 -250l-12 -15c-60 45 -93 152 -93 260c0 146 61 294 200 294c106 0 154 -101 154 -228c0 -179 -94 -409 -255 -485
c114 -25 235 -90 315 -90c28 0 56 9 83 30l12 -19c-27 -23 -58 -31 -90 -31c-84 0 -232 80 -336 103l-16 -6c-23 -9 -35 -11 -49 -12c-3 0 -6 1 -9 1z" />
    <glyph glyph-name="U.small" horiz-adv-x="403" 
d="M257 113c-1 -12 -1 -22 -1 -32c0 -45 7 -73 24 -73c35 0 86 138 123 235c4 0 9 -2 9 -7v-2c-39 -100 -88 -239 -134 -239c-28 0 -39 47 -39 117c0 47 7 109 17 176c-54 -184 -117 -293 -186 -293c-56 0 -76 60 -76 149c0 167 73 434 114 576h20
c-40 -142 -114 -422 -114 -586c0 -75 16 -126 58 -126c73 0 141 156 202 393c22 120 49 241 64 319h20c-34 -172 -101 -457 -101 -607z" />
    <glyph glyph-name="V.small" horiz-adv-x="223" 
d="M288 720h16c-136 -281 -246 -708 -250 -720h-21c1 40 1 80 1 119c0 337 -31 601 -31 601h21c10 -129 28 -284 28 -559c0 -42 0 -87 -1 -135c95 398 237 694 237 694z" />
    <glyph glyph-name="W.small" horiz-adv-x="373" 
d="M438 720h16c-136 -281 -245 -708 -249 -720h-25c1 43 1 85 1 126c0 82 -1 160 -4 231l-123 -357h-20c1 39 1 77 1 114c0 339 -33 606 -33 606h21c3 -20 29 -272 29 -586c0 -36 0 -72 -1 -108l124 371c-8 194 -22 323 -22 323h20c2 -13 13 -116 21 -269
c55 161 94 269 94 269h16l-108 -309c4 -82 6 -177 6 -278c0 -35 -1 -71 -1 -107c95 398 237 694 237 694z" />
    <glyph glyph-name="X.small" horiz-adv-x="287" 
d="M79 720h21c-2 -79 -3 -149 -3 -215c0 -80 1 -150 4 -210c57 121 122 268 177 425h12c-58 -168 -127 -326 -188 -452c10 -174 30 -261 53 -261c49 0 97 144 132 236c4 0 9 -2 9 -7v-2c-37 -95 -83 -240 -141 -240c-41 0 -61 106 -71 237c-67 -136 -118 -226 -122 -231h-13
s59 102 134 257c-5 83 -7 174 -7 254c0 106 3 190 3 209z" />
    <glyph glyph-name="Z.small" horiz-adv-x="312" 
d="M-41 -6l-2 25c4 1 8 1 11 1c6 0 11 0 17 -2c57 65 229 380 314 696c-24 -6 -58 -8 -93 -8c-40 0 -81 3 -108 8v-18c0 -30 -3 -77 -11 -127l-20 1c14 66 17 133 17 158c40 -6 80 -9 118 -9c40 0 78 4 110 11l6 -15c-81 -297 -233 -612 -319 -698c34 -4 87 -10 106 -10
c88 0 163 121 207 236c4 0 9 -2 9 -7v-2c-44 -114 -117 -239 -215 -239c-62 0 -84 11 -116 13c-11 -9 -21 -14 -29 -14h-2z" />
    <glyph glyph-name="parenleft.small" 
d="M159 590l9 -4c-72 -135 -133 -411 -133 -624c0 -36 2 -70 6 -102l-10 -2c-7 43 -10 91 -10 141c0 210 56 461 138 591z" />
    <glyph glyph-name="parenright.small" horiz-adv-x="145" 
d="M-21 -142l-9 4c72 135 132 411 132 623c0 37 -1 71 -5 103l10 2c7 -43 10 -91 10 -142c0 -209 -57 -460 -138 -590z" />
    <glyph glyph-name="s.start" horiz-adv-x="237" 
d="M149 122c0 83 -46 177 -62 310c-61 -207 -139 -370 -164 -434l-9 4c63 152 127 303 170 462c-3 43 3 88 16 130l18 -2c-1 -54 -13 -94 -24 -135c7 -119 75 -251 75 -335c0 -15 -2 -29 -6 -42c23 39 46 93 73 163c4 0 8 -2 8 -6v-2c-59 -153 -100 -240 -186 -240h-1
c-51 0 -76 38 -76 76c0 13 3 27 9 39l15 -7c-6 -10 -8 -22 -8 -33c0 -33 21 -65 63 -65h2h2c53 2 85 57 85 117z" />
    <glyph glyph-name="p.swash" horiz-adv-x="303" 
d="M-41 -20c6 38 62 363 71 476h22l-26 -161c32 95 73 166 120 166c46 0 65 -54 65 -125c0 -113 -50 -272 -120 -324c71 23 162 99 212 231c4 0 8 -2 8 -6v-2c-59 -153 -180 -240 -266 -240h-1c-37 0 -52 30 -56 68c-20 -116 -17 -121 -31 -179c106 -27 187 -65 310 -65
c107 0 159 58 191 122l15 -8c-36 -64 -87 -124 -209 -124c-124 0 -206 37 -309 64c-44 -174 -137 -315 -289 -315c-117 0 -179 79 -179 162c0 93 77 192 240 192c88 0 156 -11 215 -25c7 31 13 62 17 93zM-334 -432c153 0 232 138 273 308c-59 15 -127 26 -214 26
c-148 0 -219 -95 -219 -184c0 -77 54 -150 160 -150zM-3 119c-1 -8 -1 -15 -1 -23c0 -48 12 -91 49 -91c78 0 148 208 148 340c0 61 -15 106 -51 106c-43 0 -98 -107 -129 -231c-5 -35 -11 -69 -16 -101z" />
    <glyph glyph-name="y.swash" horiz-adv-x="236" 
d="M41 456h20c-28 -149 -65 -310 -65 -393c0 -36 7 -55 24 -55c43 0 111 130 137 264l30 184h22c-57 -306 -95 -547 -101 -572c106 -27 187 -65 310 -65c107 0 159 58 191 122l15 -8c-36 -64 -87 -124 -209 -124c-124 0 -206 37 -310 64c-43 -174 -136 -315 -288 -315
c-117 0 -179 79 -179 162c0 93 77 192 240 192c88 0 156 -11 215 -25c17 77 6 41 46 276c-34 -96 -84 -168 -122 -168c-26 0 -36 32 -36 81c0 89 32 238 60 380zM-183 -432c153 0 232 138 273 308c-60 15 -127 26 -214 26c-148 0 -219 -95 -219 -184c0 -77 54 -150 160 -150
z" />
    <glyph glyph-name="g.swash" horiz-adv-x="266" 
d="M34 -5c-37 0 -52 47 -52 111c0 138 70 353 154 353c35 0 53 -29 59 -66l11 63h22c-57 -306 -95 -547 -101 -572c106 -27 187 -65 310 -65c107 0 159 58 191 122l15 -8c-36 -64 -87 -124 -209 -124c-124 0 -206 37 -310 64c-43 -174 -136 -315 -288 -315
c-117 0 -179 79 -179 162c0 93 77 192 240 192c88 0 156 -11 215 -25c7 31 12 62 17 93l35 221c-35 -115 -74 -206 -130 -206zM-164 -432c153 0 232 138 273 308c-60 15 -127 26 -214 26c-148 0 -219 -95 -219 -184c0 -77 54 -150 160 -150zM135 451
c-68 0 -137 -225 -137 -355c0 -54 12 -91 40 -91c45 0 102 131 139 273l8 51c1 8 1 16 1 24c0 51 -15 98 -51 98z" />
    <glyph glyph-name="j.swash" horiz-adv-x="119" 
d="M474 -297l10 16c-158 104 -311 160 -503 171c5 25 40 263 97 566h-22l-26 -154c13 42 20 78 26 102l-6 16c-7 -36 -16 -88 -50 -177c0 -1 -1 -2 -1 -3c0 -5 9 -5 9 -5c9 23 16 45 22 66c-48 -294 -56 -349 -66 -410c-19 1 -38 1 -57 1c-372 0 -547 -200 -547 -355
c0 -99 71 -179 206 -179c219 0 350 210 413 522c188 -11 339 -68 495 -177zM-95 -118c19 0 38 0 57 -1c-63 -313 -184 -513 -396 -513c-124 0 -189 75 -189 167c0 150 170 347 528 347zM74 562c1 8 4 14 12 14c9 0 13 -7 13 -15c0 -10 -5 -17 -13 -17c-9 0 -12 6 -12 14v4z
" />
    <glyph glyph-name="d.swash" horiz-adv-x="324" 
d="M34 -5c-37 0 -52 47 -52 111c0 138 70 353 154 353c35 0 53 -29 60 -65l16 99c5 30 9 61 17 90c-108 27 -187 65 -310 65c-107 0 -159 -59 -191 -122l-15 8c36 64 87 124 209 124c123 0 205 -37 309 -64c44 174 137 315 289 315c117 0 179 -79 179 -162
c0 -94 -78 -192 -240 -192c-88 0 -155 10 -214 24c-20 -76 -9 -45 -50 -293c-16 -98 -26 -167 -26 -210c0 -52 10 -68 24 -68c35 0 76 91 131 235c4 0 9 -2 9 -7v-2c-61 -160 -96 -239 -142 -239c-27 0 -39 27 -39 81c0 24 3 63 10 113c-35 -109 -74 -194 -128 -194z
M461 565c148 0 219 95 219 183c0 78 -55 151 -160 151c-138 0 -228 -138 -272 -309c59 -14 126 -25 213 -25zM171 251l7 39l9 49v10c0 52 -15 102 -52 102c-68 0 -137 -225 -137 -355c0 -54 12 -91 40 -91c42 0 96 114 133 246z" />
    <glyph glyph-name="l.swash" horiz-adv-x="162" 
d="M28 8c35 0 76 91 131 235c4 0 9 -2 9 -7v-2c-61 -160 -96 -239 -142 -239c-25 0 -35 44 -35 112c0 54 6 122 16 195c-68 -73 -157 -124 -267 -124c-191 0 -272 127 -272 248c0 145 88 277 262 277c35 0 64 -7 92 -22l-9 -16c-24 14 -52 22 -82 22
c-160 0 -246 -126 -246 -257c0 -117 77 -243 255 -243c115 0 204 56 270 134c33 218 90 466 145 466c21 0 28 -25 28 -66c0 -94 -50 -266 -152 -392c-15 -94 -25 -182 -25 -243c0 -48 6 -78 22 -78zM155 778c-35 0 -87 -224 -121 -426c93 126 138 295 138 377
c0 31 -4 49 -17 49z" />
    <glyph glyph-name="e.end" horiz-adv-x="789" 
d="M85 5c148 0 184 486 484 486c136 0 201 -94 201 -193c0 -113 -84 -234 -246 -234c-91 0 -147 40 -188 90l14 13c42 -56 99 -93 174 -93c149 0 227 116 227 225c0 94 -59 182 -182 182c-288 0 -319 -486 -486 -486c-66 0 -92 69 -92 154c0 136 67 312 146 312
c27 0 40 -17 40 -42c0 -49 -50 -128 -154 -179l-3 -2c-6 -34 -10 -68 -10 -100c0 -75 21 -133 75 -133zM136 450c-46 0 -91 -95 -113 -198c95 57 136 130 136 169c0 18 -8 29 -23 29z" />
    <glyph glyph-name="k.end" horiz-adv-x="635" 
d="M387 -162c148 0 224 123 224 236c0 99 -57 190 -171 190c-66 0 -124 -44 -148 -114l-19 7c26 72 96 117 167 117c126 0 189 -99 189 -204c0 -119 -81 -245 -244 -245c-250 0 -257 315 -343 364c-8 -3 -16 -5 -23 -5c-4 0 -7 1 -9 2c0 -2 -1 -4 -2 -6
c-8 -62 -16 -123 -25 -180h-22c38 193 95 787 190 787c14 0 23 -14 23 -40c0 -103 -128 -432 -158 -508l-3 -22c52 133 101 242 158 242c18 0 26 -12 26 -31c0 -61 -78 -194 -144 -233c88 -60 113 -357 334 -357zM163 753c0 17 -3 25 -13 25c-45 0 -100 -309 -129 -506
c32 87 143 382 142 481zM166 448c-36 0 -90 -84 -149 -242h4c7 0 13 -2 20 -4c63 30 140 171 140 225c0 13 -5 21 -15 21z" />
    <glyph glyph-name="t_h.swash" horiz-adv-x="895" 
d="M264 247l7 -16c-27 -17 -64 -27 -111 -27c-101 0 -152 64 -152 132c0 77 64 158 190 158c84 0 182 -27 258 -43c27 125 62 248 98 248c13 0 23 -14 23 -38c0 -56 -33 -147 -59 -222c9 -1 17 -1 24 -1c27 0 54 4 80 11c44 237 107 343 190 343c40 0 62 -30 62 -68
c0 -117 -100 -238 -234 -281l-2 -14c-19 -105 -31 -172 -48 -259c45 130 115 289 175 289c26 0 44 -25 44 -63c0 -75 -75 -256 -75 -338c0 -29 9 -50 27 -50c34 0 90 120 134 235c4 0 8 -2 8 -6v-2c-44 -114 -96 -240 -144 -240c-31 0 -45 24 -45 64c0 77 76 280 76 337
c0 36 -10 52 -30 52c-47 0 -138 -205 -181 -334l-22 -114h-19c0 -1 23 116 35 179c-49 -123 -81 -184 -121 -184c-28 0 -40 48 -40 120c0 88 18 212 42 325c-80 17 -184 44 -256 44c-116 0 -173 -74 -173 -144c0 -63 45 -122 134 -122c49 0 82 11 105 29zM454 8
c34 0 75 89 129 231l35 190c0 3 1 5 1 8c-25 -6 -52 -9 -79 -9c-7 0 -16 1 -25 2c-32 -90 -66 -169 -76 -194c-7 -54 -11 -103 -11 -142c0 -52 7 -86 26 -86zM859 727c0 30 -15 55 -49 55c-70 0 -125 -102 -167 -326c122 44 216 161 216 271zM565 657c0 4 1 7 1 11
c0 13 -4 22 -12 22c-20 0 -55 -124 -79 -243c11 -3 21 -4 31 -6c25 74 49 155 59 216zM503 431l-30 5c-12 -55 -22 -112 -30 -166c12 30 36 92 60 161z" />
    <glyph glyph-name="m.swash" horiz-adv-x="393" 
d="M277 451c-41 0 -95 -106 -128 -241c-15 -85 -34 -171 -43 -210h-22c24 110 73 355 73 398c0 21 0 52 -22 52c-34 0 -83 -113 -121 -224c-21 -111 -43 -222 -44 -226h-22c0 4 69 323 88 456h21c-1 -10 -14 -80 -30 -161c35 94 73 166 115 166c23 -2 32 -25 32 -63
c0 -24 -5 -66 -13 -114c30 103 72 177 121 177c29 0 44 -27 44 -65c0 -109 -105 -413 -105 -544c0 -133 68 -193 166 -193c108 0 166 94 166 180c0 49 -18 94 -56 120l13 16c40 -27 59 -75 59 -127c0 -95 -64 -199 -183 -199c-111 0 -185 64 -185 204c0 131 106 441 106 543
c0 36 -8 55 -30 55z" />
    <glyph glyph-name="f.alt" horiz-adv-x="159" 
d="M-83 -299h-17s17 138 65 333c50 293 115 753 195 753c14 0 23 -14 23 -40c0 -106 -145 -473 -170 -536l-27 -160c24 8 124 64 173 192c4 0 8 -2 8 -6v-2c-45 -118 -147 -189 -183 -194c-21 -121 -43 -239 -67 -340zM172 753c0 17 -3 25 -13 25c-43 0 -102 -306 -137 -511
c36 90 150 387 150 486z" />
    <glyph glyph-name="r.end" horiz-adv-x="437" 
d="M62 24c0 72 45 174 45 250c0 65 -33 105 -50 149c-14 -68 -31 -140 -49 -188c0 0 -9 0 -9 5c0 1 1 2 1 3c21 55 37 134 49 205c-5 25 -7 51 -7 74c0 31 4 58 10 75l27 -3c1 -8 1 -16 1 -24c0 -41 -11 -84 -18 -121l-2 -9c16 -44 65 -89 65 -166c0 -83 -43 -182 -43 -251
c0 -123 63 -173 161 -173c108 0 166 94 166 180c0 49 -18 94 -56 120l13 16c40 -27 59 -75 59 -127c0 -95 -64 -199 -183 -199c-111 0 -180 54 -180 184z" />
    <glyph glyph-name="h.alt" horiz-adv-x="300" 
d="M86 720h20c-22 -123 -65 -358 -102 -552c44 130 106 291 166 291c26 0 44 -25 44 -63c0 -75 -75 -256 -75 -338c0 -29 9 -50 27 -50c34 0 90 120 134 235c4 0 8 -2 8 -6v-2c-44 -114 -96 -240 -144 -240c-31 0 -45 24 -45 64c0 77 76 280 76 337c0 36 -10 52 -30 52
c-50 0 -129 -207 -171 -335c-8 -41 -15 -80 -22 -113h-19c0 -16 94 500 133 720z" />
    <glyph glyph-name="l.alt" horiz-adv-x="138" 
d="M99 787h19s-14 -108 -56 -331c-29 -156 -70 -331 -70 -408c0 -25 4 -40 15 -40c35 0 76 91 131 235c4 0 8 -2 8 -6v-2c-61 -160 -95 -240 -141 -240c-21 0 -29 25 -29 65c0 87 38 248 66 396c42 222 57 331 57 331z" />
    <glyph glyph-name="b.alt" horiz-adv-x="324" 
d="M91 720h21c-34 -225 -97 -430 -97 -587c0 -79 18 -128 71 -128c35 0 67 43 91 102c-83 7 -115 83 -115 162c0 92 43 190 97 190c56 0 80 -63 80 -142c0 -64 -15 -139 -40 -200c49 5 95 47 125 126c4 0 8 -2 8 -6v-2c-29 -77 -78 -125 -137 -128
c-28 -65 -68 -112 -113 -112c-66 0 -89 59 -89 150c0 162 61 360 98 575zM158 451c-40 0 -79 -97 -79 -187c0 -73 27 -142 102 -147c23 63 38 141 38 206c0 72 -18 128 -61 128z" />
    <glyph glyph-name="k.alt" horiz-adv-x="251" 
d="M98 787h20c-21 -116 -66 -364 -105 -570c52 133 101 242 158 242c18 0 26 -12 26 -31c0 -64 -85 -204 -152 -237c34 -47 42 -183 72 -183c34 0 90 120 134 235c4 0 9 -2 9 -7v-2c-44 -114 -97 -239 -145 -239c-53 0 -52 151 -81 191c-5 -1 -10 -2 -15 -2c-4 0 -7 1 -9 2
l-6 -17c-11 -64 -23 -123 -32 -169h-19s10 55 23 110c25 143 98 543 122 677zM166 448c-36 0 -90 -84 -149 -242h4c6 0 11 -2 16 -6c63 27 144 172 144 227c0 13 -5 21 -15 21z" />
    <glyph glyph-name="t_h.alt" horiz-adv-x="464" 
d="M-41 457l2 11c27 -6 51 -13 74 -18c27 127 62 249 98 249c13 0 23 -14 23 -38c0 -56 -33 -147 -59 -222c9 -1 17 -1 24 -1c27 0 54 4 80 11c44 237 107 343 190 343c40 0 62 -30 62 -68c0 -117 -100 -238 -234 -281l-2 -14c-19 -105 -31 -172 -48 -259
c45 130 115 289 175 289c26 0 44 -25 44 -63c0 -75 -75 -256 -75 -338c0 -29 9 -50 27 -50c34 0 90 120 134 235c4 0 8 -2 8 -6v-2c-44 -114 -96 -240 -144 -240c-31 0 -45 24 -45 64c0 77 76 280 76 337c0 36 -10 52 -30 52c-47 0 -138 -205 -181 -334l-22 -114h-19
c0 -1 23 116 35 179c-49 -123 -81 -184 -121 -184c-28 0 -39 47 -39 118c0 88 17 212 41 326c-39 7 -74 15 -74 18zM33 8c34 0 75 89 129 231l35 190c0 3 1 5 1 8c-25 -6 -52 -9 -79 -9c-6 0 -15 1 -25 2c-32 -90 -66 -169 -76 -194c-7 -54 -11 -103 -11 -142
c0 -52 7 -86 26 -86zM438 727c0 30 -15 55 -49 55c-70 0 -125 -102 -167 -326c122 44 216 161 216 271zM144 657c0 4 1 7 1 11c0 13 -4 22 -12 22c-21 0 -55 -124 -79 -244c11 -2 21 -4 31 -5c25 73 49 154 59 216zM82 431l-31 5c-11 -55 -21 -112 -29 -166
c12 30 36 92 60 161z" />
    <glyph glyph-name="a.end" horiz-adv-x="817" 
d="M521 437v20c190 0 283 -158 283 -306c0 -169 -125 -354 -362 -354c-183 0 -283 128 -283 318c0 24 2 48 5 74c-36 -112 -79 -194 -130 -194c-37 0 -52 47 -52 111c0 138 70 353 154 353c43 0 57 -43 59 -88l17 85h20c-24 -128 -33 -179 -44 -268c-3 -27 -5 -53 -5 -78
c0 -185 91 -303 262 -303c229 0 343 180 343 345c0 134 -91 285 -267 285zM135 451c-68 0 -137 -225 -137 -355c0 -54 12 -91 40 -91c62 0 147 243 147 348c0 59 -17 98 -50 98z" />
    <glyph glyph-name="t.swash" horiz-adv-x="164" 
d="M786 609l-9 -11c-49 31 -99 44 -149 44c-163 0 -336 -128 -514 -153c-36 -111 -83 -223 -96 -253c-7 -54 -11 -103 -11 -142c0 -52 7 -86 26 -86c35 0 76 91 131 235c4 0 8 -2 8 -6v-2c-61 -160 -95 -240 -141 -240c-28 0 -40 48 -40 119c0 101 23 247 52 372
c-52 2 -104 14 -157 44l9 14c51 -31 101 -44 151 -46c26 109 56 201 87 201c13 0 23 -14 23 -38c0 -40 -20 -103 -38 -159c172 24 342 149 512 149c52 0 104 -12 156 -42zM144 657c0 4 1 7 1 11c0 13 -4 22 -12 22c-17 0 -46 -91 -68 -192c13 0 26 1 40 2
c17 56 32 112 39 157zM101 488c-13 -2 -26 -3 -39 -3c-15 -69 -30 -145 -40 -215c16 39 50 127 79 218z" />
    <glyph glyph-name="y.end" horiz-adv-x="487" 
d="M41 456h20c-28 -149 -65 -310 -65 -393c0 -36 7 -55 24 -55c41 0 106 120 134 249c14 83 28 154 37 199h22c-12 -45 -53 -283 -87 -473c142 149 338 337 338 547c0 155 -110 235 -223 235c-87 0 -176 -48 -219 -147l-22 10c48 97 147 147 244 147c123 0 241 -83 241 -244
c0 -221 -217 -417 -362 -569l-35 -196c-8 -44 -33 -70 -64 -70c-24 0 -43 25 -43 63c0 57 46 118 121 198l34 199c-34 -93 -82 -161 -119 -161c-26 0 -36 32 -36 81c0 89 32 238 60 380zM-4 -219c-2 -9 -2 -17 -2 -24c0 -35 14 -51 32 -51c21 0 36 23 43 62l29 169
c-55 -60 -96 -112 -102 -156z" />
    <glyph glyph-name="n.swash" horiz-adv-x="279" 
d="M212 396c0 -109 -105 -413 -105 -544c0 -133 68 -193 166 -193c168 0 216 229 110 300l13 16c113 -76 60 -326 -124 -326c-111 0 -185 64 -185 204c0 131 106 441 106 543c0 36 -8 54 -30 54c-51 0 -116 -140 -158 -261l-34 -189h-22c4 28 15 80 32 140
c19 103 44 245 50 316h21c-1 -12 -18 -109 -37 -211c42 111 98 216 153 216c29 0 44 -27 44 -65z" />
    <glyph glyph-name="uni00A0" unicode="&#xa0;" horiz-adv-x="181" 
 />
    </font>
</defs>
</svg>
